<svg width="31" height="23" viewBox="0 0 31 23" fill="none" xmlns="http://www.w3.org/2000/svg">
<path d="M30.6861 12.2376L21.8473 6.93395L22.9504 6.23258C23.1364 6.11372 23.2487 5.90835 23.2487 5.68747C23.2487 5.4666 23.1364 5.26122 22.9504 5.14237L15.8462 0.621639C15.6344 0.487286 15.3644 0.487286 15.1526 0.621639L8.04845 5.14249C7.86238 5.26128 7.75001 5.46666 7.75001 5.68753C7.75001 5.90841 7.86238 6.11378 8.04838 6.23264L9.15149 6.93528L0.313885 12.2376C0.120135 12.3538 1.02134e-05 12.5631 1.02134e-05 12.7891C-0.00126127 13.0151 0.11626 13.2257 0.31001 13.3432L15.1642 22.3848C15.2675 22.4481 15.3838 22.4791 15.5 22.4791C15.6163 22.4791 15.7325 22.4481 15.8359 22.3848L30.69 13.3433C30.8838 13.2244 31 13.0152 31 12.7891C30.9987 12.5631 30.8799 12.3538 30.6861 12.2376ZM15.5 1.93266L21.4016 5.68753L15.5 9.44241L9.59838 5.68753L15.5 1.93266ZM10.3695 7.71028L15.1525 10.7534C15.2584 10.8206 15.3799 10.8542 15.5 10.8542C15.6201 10.8542 15.7415 10.8206 15.8462 10.7534L20.6292 7.70895L21.4804 8.22045L15.5 12.027L9.51828 8.22051L10.3695 7.71028ZM1.89489 12.793L8.28088 8.96324L14.2975 12.7917L8.23184 16.6512L1.89489 12.793ZM15.5 21.0764L9.46149 17.4003L15.5 13.5577L21.5385 17.4004L15.5 21.0764ZM22.7682 16.6525L16.7026 12.7917L22.7192 8.96324L29.1052 12.7943L22.7682 16.6525Z" fill="#7F8B25"/>
</svg>
