<svg width="25" height="25" viewBox="0 0 25 25" fill="none" xmlns="http://www.w3.org/2000/svg">
<g clip-path="url(#clip0_64_1035)">
<path d="M5.37109 6.15259C5.10156 6.15259 4.88281 6.37134 4.88281 6.64087C4.88281 6.9104 5.10156 7.12915 5.37109 7.12915C5.64062 7.12915 5.85938 6.9104 5.85938 6.64087C5.85938 6.37134 5.64062 6.15259 5.37109 6.15259Z" fill="#7F8B25"/>
<path d="M22.9944 10.3286L22.2879 8.91555C22.0381 8.41594 21.5361 8.10564 20.9777 8.10564H16.8938V4.68782C16.8938 3.88015 16.2368 3.22302 15.4291 3.22302H1.46479C0.65708 3.22302 0 3.8801 0 4.68782V17.3826C0 18.1903 0.65708 18.8474 1.46479 18.8474H2.92959C2.92959 19.5971 3.21304 20.2817 3.67793 20.8004H0.488281C0.218604 20.8004 0 21.0191 0 21.2887C0 21.5583 0.218604 21.777 0.488281 21.777H24.5107C24.7804 21.777 24.999 21.5583 24.999 21.2887C24.999 21.0191 24.7804 20.8004 24.5107 20.8004H23.2741C23.7391 20.2817 24.0225 19.5971 24.0225 18.8474C24.0225 18.8196 24.0211 18.7919 24.0204 18.7641C24.5897 18.5631 24.999 18.0199 24.999 17.3826V14.6835C24.999 14.1137 25.1118 14.6456 22.9944 10.3286ZM22.2559 11.0352L23.7207 13.9648H18.8469V11.0352H22.2559ZM0.976514 14.9413H1.95303V15.9178H0.976514V14.9413ZM5.85913 20.8004C4.78223 20.8004 3.9061 19.9242 3.9061 18.8474C3.9061 18.7144 3.91929 18.5835 3.94565 18.4562C4.1293 17.5512 4.93403 16.8943 5.85913 16.8943C6.78423 16.8943 7.58901 17.5511 7.77261 18.4562C7.77275 18.4569 7.7729 18.4575 7.77305 18.4582C7.79902 18.5834 7.81216 18.7144 7.81216 18.8474C7.81216 19.9243 6.93604 20.8004 5.85913 20.8004ZM5.85913 15.9178C4.60811 15.9178 3.50405 16.7192 3.09702 17.8708H1.46479C1.19556 17.8708 0.976514 17.6518 0.976514 17.3825V16.8943H2.44131C2.71099 16.8943 2.92959 16.6756 2.92959 16.406V14.453C2.92959 14.1833 2.71099 13.9647 2.44131 13.9647H0.976514V4.68782C0.976514 4.41858 1.19556 4.19954 1.46479 4.19954H15.4291C15.6983 4.19954 15.9173 4.41858 15.9173 4.68782C15.9173 5.05105 15.9173 16.6999 15.9173 17.8709H8.621C8.21323 16.7186 7.10962 15.9178 5.85913 15.9178ZM8.04033 20.8004C8.50527 20.2817 8.78867 19.5971 8.78867 18.8474C9.16357 18.8474 18.0037 18.8474 18.1633 18.8474C18.1633 19.5971 18.4467 20.2817 18.9116 20.8004H8.04033ZM21.0929 20.8004C20.016 20.8004 19.1398 19.9242 19.1398 18.8474C19.1398 18.7144 19.153 18.5835 19.1794 18.4562C19.363 17.5512 20.1678 16.8943 21.0929 16.8943C22.018 16.8943 22.8228 17.5511 23.0063 18.4562C23.0065 18.4569 23.0066 18.4575 23.0068 18.4582C23.0328 18.5834 23.0459 18.7144 23.0459 18.8474C23.0459 19.9243 22.1698 20.8004 21.0929 20.8004ZM24.0225 17.3826C24.0225 17.545 23.9424 17.6887 23.8201 17.7776C23.387 16.6756 22.3093 15.9178 21.0929 15.9178C19.8418 15.9178 18.7378 16.7193 18.3308 17.8709H16.8938V9.08215H20.9776C21.1638 9.08215 21.3311 9.18567 21.4144 9.35222L21.7676 10.0587H18.3586C18.089 10.0587 17.8704 10.2773 17.8704 10.5469V14.4531C17.8704 14.7227 18.089 14.9413 18.3586 14.9413H24.0225V17.3826Z" fill="#7F8B25"/>
<path d="M13.4763 6.15259H7.32422C7.05454 6.15259 6.83594 6.37124 6.83594 6.64087C6.83594 6.9105 7.05454 7.12915 7.32422 7.12915H13.4763C13.746 7.12915 13.9646 6.9105 13.9646 6.64087C13.9646 6.37124 13.7459 6.15259 13.4763 6.15259Z" fill="#7F8B25"/>
<path d="M13.4764 8.10571H9.27734C9.00767 8.10571 8.78906 8.32437 8.78906 8.59399C8.78906 8.86362 9.00767 9.08228 9.27734 9.08228H13.4764C13.7461 9.08228 13.9647 8.86362 13.9647 8.59399C13.9647 8.32437 13.746 8.10571 13.4764 8.10571Z" fill="#7F8B25"/>
<path d="M21.0937 17.8708C20.5552 17.8708 20.1172 18.3089 20.1172 18.8474C20.1172 19.3858 20.5553 19.8239 21.0937 19.8239C21.6322 19.8239 22.0702 19.3858 22.0702 18.8474C22.0702 18.3089 21.6322 17.8708 21.0937 17.8708Z" fill="#7F8B25"/>
<path d="M5.85933 17.8708C5.32085 17.8708 4.88281 18.3089 4.88281 18.8474C4.88281 19.3858 5.3209 19.8239 5.85933 19.8239C6.3978 19.8239 6.83584 19.3858 6.83584 18.8474C6.83584 18.3089 6.3978 17.8708 5.85933 17.8708Z" fill="#7F8B25"/>
</g>
<defs>
<clipPath id="clip0_64_1035">
<rect width="25" height="25" fill="white"/>
</clipPath>
</defs>
</svg>
