<svg width="26" height="28" viewBox="0 0 26 28" fill="none" xmlns="http://www.w3.org/2000/svg">
<path d="M21.8807 17.9668L21.7331 18.0538L21.8815 18.1395L24.7255 19.7814L24.7755 19.6948L24.7255 19.7814C25.1348 20.0177 25.2749 20.5409 25.0387 20.95C24.8803 21.2242 24.5929 21.3779 24.297 21.3779C24.152 21.3779 24.005 21.341 23.8701 21.2631L23.8201 21.3497L23.8701 21.2631L21.0258 19.621L20.8774 19.5353L20.8758 19.7066L20.8493 22.5687C20.845 23.0384 20.4627 23.4163 19.994 23.4163L19.9892 23.4163L19.9892 23.4162L19.9859 23.4162C19.5135 23.4118 19.134 23.0253 19.1384 22.5528L19.1384 22.5528L19.1749 18.6109L19.1754 18.5526L19.1249 18.5234L14.0063 15.5683L13.8563 15.4817V15.6549V21.5649V21.6233L13.9071 21.652L17.3389 23.5915C17.7502 23.824 17.8952 24.3459 17.6627 24.7573C17.5055 25.0355 17.2158 25.192 16.9171 25.192C16.7745 25.192 16.6301 25.1564 16.497 25.0811L16.4478 25.1682L16.497 25.0811L14.0055 23.6731L13.8563 23.5888V23.7601V27.0445C13.8563 27.517 13.4733 27.9 13.0008 27.9C12.5284 27.9 12.1453 27.517 12.1453 27.0445V23.7601V23.5888L11.9961 23.6731L9.50471 25.0811L9.55391 25.1682L9.5047 25.0811C9.37156 25.1564 9.22703 25.192 9.08457 25.192C8.78587 25.192 8.49617 25.0355 8.33895 24.7573C8.10647 24.3458 8.25146 23.824 8.66277 23.5915L8.61357 23.5045L8.66278 23.5915L12.0944 21.652L12.1452 21.6233V21.5649V15.6547V15.4815L11.9952 15.5681L6.87655 18.5234L6.82603 18.5526L6.82655 18.6109L6.8621 22.5529L6.8621 22.5529C6.86643 23.0254 6.48683 23.4118 6.01436 23.416L6.01436 23.416L6.0109 23.4161L6.01084 23.4161L6.01063 23.4161L6.00981 23.4162L6.00647 23.4162C5.53769 23.4162 5.15544 23.0382 5.15122 22.5683L5.12536 19.7067L5.12381 19.5352L4.97536 19.621L2.13142 21.263L2.18142 21.3496L2.13142 21.263C1.99658 21.3409 1.84955 21.3778 1.70457 21.3778C1.4086 21.3778 1.12119 21.2242 0.96282 20.9499L0.876216 20.9999L0.962818 20.9499C0.726587 20.5408 0.866776 20.0175 1.27593 19.7813L4.11987 18.1394L4.2683 18.0537L4.12066 17.9666L1.65573 16.5133L1.65572 16.5132C1.24875 16.2734 1.11335 15.7489 1.35334 15.3419C1.59333 14.9349 2.11806 14.7997 2.5248 15.0395L2.5756 14.9534L2.5248 15.0395L5.92026 17.0417L5.97052 17.0714L6.02105 17.0422L11.14 14.0868L11.29 14.0002L11.14 13.9136L6.02194 10.9587L5.97143 10.9295L5.92117 10.9591L2.52487 12.9607C2.38828 13.0411 2.23885 13.0792 2.09135 13.0792C1.79801 13.0792 1.51287 12.9285 1.35335 12.658C1.11347 12.2508 1.249 11.7264 1.65597 11.4865L4.12128 10.0335L4.26896 9.94647L4.12051 9.86076L1.27606 8.21845L1.22605 8.30505L1.27606 8.21845C0.866903 7.98222 0.726715 7.459 0.962945 7.04984C1.19919 6.64067 1.72241 6.50039 2.13153 6.73672L2.13155 6.73673L4.97549 8.37878L5.12394 8.4645L5.12549 8.29309L5.15135 5.43169C5.15557 4.96173 5.53781 4.58383 6.0066 4.58383H6.00661H6.00663H6.00665H6.00667H6.00668H6.0067H6.00672H6.00674H6.00676H6.00677H6.00679H6.00681H6.00683H6.00685H6.00686H6.00688H6.0069H6.00692H6.00693H6.00695H6.00697H6.00699H6.00701H6.00702H6.00704H6.00706H6.00708H6.00709H6.00711H6.00713H6.00715H6.00717H6.00718H6.0072H6.00722H6.00724H6.00725H6.00727H6.00729H6.00731H6.00733H6.00734H6.00736H6.00738H6.0074H6.00741H6.00743H6.00745H6.00747H6.00748H6.0075H6.00752H6.00754H6.00755H6.00757H6.00759H6.00761H6.00763H6.00764H6.00766H6.00768H6.0077H6.00771H6.00773H6.00775H6.00777H6.00778H6.0078H6.00782H6.00784H6.00785H6.00787H6.00789H6.00791H6.00792H6.00794H6.00796H6.00798H6.00799H6.00801H6.00803H6.00805H6.00806H6.00808H6.0081H6.00812H6.00813H6.00815H6.00817H6.00819H6.0082H6.00822H6.00824H6.00826H6.00827H6.00829H6.00831H6.00833H6.00834H6.00836H6.00838H6.0084H6.00841H6.00843H6.00845H6.00846H6.00848H6.0085H6.00852H6.00853H6.00855H6.00857H6.00859H6.0086H6.00862H6.00864H6.00866H6.00867H6.00869H6.00871H6.00873H6.00874H6.00876H6.00878H6.00879H6.00881H6.00883H6.00885H6.00886H6.00888H6.0089H6.00892H6.00893H6.00895H6.00897H6.00899H6.009H6.00902H6.00904H6.00905H6.00907H6.00909H6.00911H6.00912H6.00914H6.00916H6.00917H6.00919H6.00921H6.00923H6.00924H6.00926H6.00928H6.0093H6.00931H6.00933H6.00935H6.00936H6.00938H6.0094H6.00942H6.00943H6.00945H6.00947H6.00948H6.0095H6.00952H6.00954H6.00955H6.00957H6.00959H6.0096H6.00962H6.00964H6.00966H6.00967H6.00969H6.00971H6.00973H6.00974H6.00976H6.00978H6.00979H6.00981H6.00983H6.00984H6.00986H6.00988H6.0099H6.00991H6.00993H6.00995H6.00996H6.00998H6.01H6.01002H6.01003H6.01005H6.01007H6.01008H6.0101H6.01012H6.01014H6.01015H6.01017H6.01019H6.0102H6.01022H6.01024H6.01026H6.01027H6.01029H6.01031H6.01032H6.01034H6.01036H6.01037H6.01039H6.01041H6.01043H6.01044H6.01046H6.01048H6.01049H6.01051H6.01053H6.01054H6.01056H6.01058H6.0106H6.01061H6.01063H6.01065H6.01066H6.01068H6.0107H6.01072H6.01073H6.01075H6.01077H6.01078H6.0108H6.01082H6.01083H6.01085H6.01087H6.01089H6.0109H6.01092H6.01094H6.01095H6.01097H6.01099H6.011H6.01102H6.01104H6.01105H6.01107H6.01109H6.01111H6.01112H6.01114H6.01116H6.01117H6.01119H6.01121H6.01122H6.01124H6.01126H6.01128H6.01129H6.01131H6.01133H6.01134H6.01136H6.01138H6.01139H6.01141H6.01143H6.01145H6.01146H6.01148H6.0115H6.01151H6.01153H6.01155H6.01156H6.01158H6.0116H6.01161H6.01163H6.01165H6.01167H6.01168H6.0117H6.01172H6.01173H6.01175H6.01177H6.01178H6.0118H6.01182H6.01184H6.01185H6.01187H6.01189H6.0119H6.01192H6.01194H6.01195H6.01197H6.01199H6.012H6.01202H6.01204H6.01205H6.01207H6.01209H6.01211H6.01212H6.01214H6.01216H6.01217H6.01219H6.01221H6.01222H6.01224H6.01226H6.01228H6.01229H6.01231H6.01233H6.01234H6.01236H6.01238H6.01239H6.01241H6.01243H6.01244H6.01246H6.01248H6.0125H6.01251H6.01253H6.01255H6.01256H6.01258H6.0126H6.01261H6.01263H6.01265H6.01266H6.01268H6.0127H6.01271H6.01273H6.01275H6.01277H6.01278H6.0128H6.01282H6.01283H6.01285H6.01287H6.01288H6.0129H6.01292H6.01294H6.01295H6.01297H6.01299H6.013H6.01302H6.01304H6.01305H6.01307H6.01309H6.0131H6.01312H6.01314H6.01315H6.01317H6.01319H6.01321H6.01322H6.01324H6.01326H6.01327H6.01329H6.01331H6.01332H6.01334H6.01336H6.01338H6.01339H6.01341H6.01343H6.01344H6.01346H6.01348H6.01349H6.01351H6.01353H6.01354H6.01356H6.01358H6.0136H6.01361H6.01363H6.01365H6.01366H6.01368H6.0137H6.01371H6.01373H6.01375H6.01377H6.01378H6.0138H6.01382H6.01383H6.01385H6.01387H6.01388H6.0139H6.01392H6.01394H6.01395H6.01397H6.01399H6.014H6.01402H6.01404H6.01405H6.01407H6.01409H6.0141H6.01412H6.01414H6.01416H6.01417H6.01419H6.01421H6.01422H6.01424H6.01426H6.01428H6.01429H6.01431H6.01433H6.01434H6.01436H6.01438H6.01439H6.01441H6.01443H6.01445H6.01446H6.01448H6.0145H6.01451H6.01453H6.01455H6.01456H6.01458H6.0146H6.01462H6.01463H6.01465H6.01467H6.01468H6.0147H6.01472H6.01474H6.01475H6.01477H6.01479H6.0148H6.01482H6.01484H6.01485H6.01487H6.01489H6.01491C6.48718 4.58827 6.86656 4.97464 6.86222 5.44694L6.86222 5.44696L6.82668 9.38883L6.82615 9.44716L6.87667 9.47633L11.9952 12.4316L12.1452 12.5182V12.345V6.43508V6.37673L12.0944 6.34802L8.66278 4.40849L8.61357 4.49555L8.66277 4.40849C8.25146 4.17603 8.10647 3.65406 8.33894 3.24273C8.57153 2.83127 9.09313 2.6863 9.50471 2.9189L11.9961 4.32692L12.1453 4.41124V4.23986V0.955497C12.1453 0.483036 12.5284 0.1 13.0008 0.1C13.4733 0.1 13.8563 0.483036 13.8563 0.955497V4.23986V4.41124L14.0055 4.32691L16.497 2.91877L16.497 2.91876C16.9083 2.68619 17.4302 2.83126 17.6627 3.24259C17.8952 3.65405 17.7502 4.1759 17.3389 4.40836L13.9071 6.34789L13.8563 6.3766V6.43495V12.345V12.5182L14.0063 12.4316L19.1249 9.47633L19.1754 9.44716L19.1749 9.38883L19.1393 5.44696C19.135 4.9745 19.5146 4.58804 19.987 4.58382L19.9875 4.58382C20.458 4.57733 20.846 4.95875 20.8502 5.43155L20.876 8.29309L20.8776 8.4645L21.026 8.37878L23.87 6.73673L23.87 6.73672C24.2791 6.50038 24.8023 6.64056 25.0386 7.04983L25.1252 6.99984L25.0386 7.04984C25.2748 7.459 25.1346 7.98222 24.7255 8.21845L21.8809 9.86075L21.7324 9.94647L21.8801 10.0335L24.345 11.4862C24.345 11.4862 24.345 11.4862 24.3451 11.4862C24.752 11.7263 24.8875 12.2507 24.6477 12.6577C24.4881 12.9283 24.203 13.079 23.9098 13.079C23.7622 13.079 23.6127 13.0409 23.4764 12.9605L23.4763 12.9605L20.0804 10.9589L20.0301 10.9293L19.9796 10.9584L14.8617 13.9133L14.7117 13.9999L14.8617 14.0865L19.9805 17.042L20.031 17.0711L20.0813 17.0415L23.4762 15.0397C23.8833 14.7998 24.4077 14.9352 24.6477 15.3421C24.8877 15.749 24.7523 16.2735 24.3453 16.5135L21.8807 17.9668Z" fill="#7F8B25" stroke="#FAFAFA" stroke-width="0.2"/>
</svg>
