<svg width="28" height="28" viewBox="0 0 28 28" fill="none" xmlns="http://www.w3.org/2000/svg">
<path d="M10.1906 15.8782L8.00309 18.0657C7.92108 18.1478 7.875 18.259 7.875 18.375C7.875 18.491 7.92108 18.6023 8.00309 18.6843L9.31559 19.9968C9.39764 20.0789 9.5089 20.1249 9.62491 20.1249C9.74092 20.1249 9.85218 20.0789 9.93422 19.9968L12.1217 17.8093C12.2037 17.7273 12.2498 17.616 12.2498 17.5C12.2498 17.384 12.2037 17.2728 12.1217 17.1907L10.8092 15.8782C10.7272 15.7962 10.6159 15.7501 10.4999 15.7501C10.3839 15.7501 10.2726 15.7962 10.1906 15.8782V15.8782ZM9.62491 19.0689L8.93103 18.375L10.4999 16.8062L11.1938 17.5L9.62491 19.0689Z" fill="#7F8B25"/>
<path d="M17.4999 12.25C17.6159 12.25 17.7272 12.2039 17.8092 12.1218L19.9967 9.93434C20.0787 9.8523 20.1248 9.74104 20.1248 9.62503C20.1248 9.50902 20.0787 9.39776 19.9967 9.31572L18.6842 8.00322C18.6022 7.9212 18.4909 7.87512 18.3749 7.87512C18.2589 7.87512 18.1476 7.9212 18.0656 8.00322L15.8781 10.1907C15.7961 10.2728 15.75 10.384 15.75 10.5C15.75 10.616 15.7961 10.7273 15.8781 10.8093L17.1906 12.1218C17.2726 12.2039 17.3839 12.25 17.4999 12.25ZM18.3749 8.93115L19.0688 9.62503L17.4999 11.1939L16.806 10.5L18.3749 8.93115Z" fill="#7F8B25"/>
<mask id="path-3-outside-1_64_1008" maskUnits="userSpaceOnUse" x="-0.5625" y="-0.5625" width="29" height="29" fill="black">
<rect fill="white" x="-0.5625" y="-0.5625" width="29" height="29"/>
<path d="M14 0.4375C11.3176 0.4375 8.69543 1.23293 6.46509 2.72319C4.23475 4.21346 2.4964 6.33163 1.46989 8.80986C0.443376 11.2881 0.174794 14.015 0.698106 16.6459C1.22142 19.2768 2.51312 21.6934 4.40987 23.5901C6.30662 25.4869 8.72323 26.7786 11.3541 27.3019C13.985 27.8252 16.7119 27.5566 19.1902 26.5301C21.6684 25.5036 23.7866 23.7653 25.2768 21.5349C26.7671 19.3046 27.5625 16.6824 27.5625 14C27.5584 10.4043 26.1281 6.95703 23.5855 4.41447C21.043 1.87191 17.5957 0.441668 14 0.4375V0.4375ZM26.0925 10.1614L17.8386 1.9075C19.7725 2.52625 21.5305 3.59813 22.9662 5.03384C24.4019 6.46955 25.4738 8.22755 26.0925 10.1614V10.1614ZM24.0625 14C24.0697 16.0653 23.4346 18.0818 22.2451 19.7702L19.7028 17.2283L24.0017 12.9294C24.0408 13.285 24.0611 13.6423 24.0625 14V14ZM19.0842 16.6097L18.4656 15.9911L23.6469 10.8093C23.7289 10.7273 23.775 10.616 23.775 10.5C23.775 10.384 23.7289 10.2727 23.6469 10.1907L17.8093 4.35313C17.7273 4.27111 17.616 4.22503 17.5 4.22503C17.384 4.22503 17.2727 4.27111 17.1907 4.35313L12.0089 9.53444L11.3903 8.91581L17.5 2.80613L25.1939 10.5L19.0842 16.6097ZM14.3194 11.8449C14.7824 11.9132 15.2111 12.1288 15.542 12.4598C15.8729 12.7907 16.0885 13.2194 16.1569 13.6824L14.3194 11.8449ZM14 10.9375C13.8205 10.9394 13.6414 10.957 13.4649 10.99L12.628 10.1531L17.5 5.28106L22.719 10.5L17.847 15.372L17.01 14.5351C17.0932 14.0943 17.0776 13.6405 16.9644 13.2065C16.8512 12.7724 16.6432 12.3688 16.3554 12.0248C16.0675 11.6808 15.707 11.4048 15.2997 11.2168C14.8925 11.0288 14.4486 10.9334 14 10.9375V10.9375ZM8.22982 5.75488C9.91822 4.56538 11.9347 3.93028 14 3.9375C14.3577 3.93892 14.715 3.95922 15.0706 3.99831L10.7717 8.29719L8.22982 5.75488ZM1.90751 17.8386L10.1614 26.0925C8.22755 25.4738 6.46956 24.4019 5.03385 22.9662C3.59813 21.5304 2.52626 19.7725 1.90751 17.8386V17.8386ZM3.93751 14C3.93024 11.9346 4.56552 9.91808 5.75532 8.22981L8.2972 10.7717L3.99832 15.0706C3.95923 14.715 3.93893 14.3577 3.93751 14V14ZM8.91582 11.3903L9.53445 12.0089L4.35313 17.1907C4.27111 17.2727 4.22504 17.384 4.22504 17.5C4.22504 17.616 4.27111 17.7273 4.35313 17.8093L10.1907 23.6469C10.2727 23.7289 10.384 23.775 10.5 23.775C10.616 23.775 10.7273 23.7289 10.8093 23.6469L15.9911 18.4656L16.6097 19.0842L10.5 25.1939L2.80613 17.5L8.91582 11.3903ZM13.6806 16.1551C13.2176 16.0868 12.789 15.8712 12.458 15.5402C12.1271 15.2093 11.9115 14.7806 11.8431 14.3176L13.6806 16.1551ZM14 17.0625C14.1796 17.0606 14.3586 17.0431 14.5351 17.01L15.372 17.8469L10.5 22.7189L5.28107 17.5L10.1531 12.628L10.99 13.4649C10.9068 13.9057 10.9224 14.3595 11.0356 14.7935C11.1488 15.2276 11.3568 15.6312 11.6446 15.9752C11.9325 16.3192 12.293 16.5952 12.7003 16.7832C13.1076 16.9712 13.5515 17.0666 14 17.0625V17.0625ZM19.7702 22.2451C18.0818 23.4346 16.0653 24.0697 14 24.0625C13.6423 24.0611 13.285 24.0408 12.9294 24.0017L17.2283 19.7028L19.7702 22.2451ZM14 26.6875C12.8577 26.6872 11.7206 26.5322 10.6199 26.2268C10.691 26.2087 10.7563 26.1725 10.8093 26.1218L12.1524 24.7791C12.7628 24.8836 13.3808 24.9366 14 24.9375C16.4302 24.9458 18.7925 24.1366 20.7073 22.6402C20.7565 22.6021 20.7971 22.554 20.8262 22.499C20.8553 22.444 20.8724 22.3834 20.8762 22.3213C20.8801 22.2592 20.8706 22.1969 20.8485 22.1388C20.8264 22.0806 20.7921 22.0278 20.748 21.9839L6.01476 7.252C5.97102 7.20798 5.91837 7.17385 5.86034 7.15189C5.8023 7.12993 5.74024 7.12065 5.67832 7.12469C5.61635 7.12849 5.5559 7.14543 5.50099 7.1744C5.44607 7.20337 5.39795 7.24369 5.35982 7.29269C3.86336 9.20747 3.05423 11.5698 3.06251 14C3.06333 14.6192 3.11645 15.2373 3.22132 15.8476L1.87819 17.1907C1.82749 17.2438 1.79133 17.309 1.77319 17.3801C1.17367 15.2173 1.15894 12.9341 1.7305 10.7637C2.30207 8.59329 3.43944 6.61348 5.02646 5.02646C6.61349 3.43943 8.5933 2.30206 10.7637 1.7305C12.9341 1.15894 15.2173 1.17367 17.3801 1.77319C17.309 1.79132 17.2438 1.82749 17.1907 1.87819L15.8476 3.22088C15.2373 3.11637 14.6192 3.06339 14 3.0625C11.5698 3.05423 9.20748 3.86336 7.2927 5.35981C7.24348 5.3979 7.20296 5.44605 7.17384 5.50104C7.14471 5.55604 7.12765 5.61662 7.1238 5.67873C7.11995 5.74084 7.12939 5.80306 7.1515 5.86123C7.17361 5.9194 7.20788 5.97219 7.25201 6.01606L21.9853 20.748C22.0673 20.8301 22.1786 20.8762 22.2946 20.8762C22.3038 20.8762 22.313 20.8762 22.3221 20.8762C22.384 20.8723 22.4444 20.8554 22.4992 20.8264C22.5541 20.7974 22.6021 20.7571 22.6402 20.7082C24.1368 18.7932 24.946 16.4305 24.9375 14C24.9366 13.3808 24.8836 12.7628 24.7791 12.1524L26.1218 10.8093C26.1725 10.7562 26.2087 10.691 26.2268 10.6199C26.749 12.5037 26.8285 14.4827 26.4593 16.4023C26.09 18.322 25.2819 20.1303 24.0981 21.6859C22.9144 23.2415 21.3869 24.5024 19.6352 25.3701C17.8835 26.2377 15.9548 26.6886 14 26.6875V26.6875Z"/>
</mask>
<path d="M14 0.4375C11.3176 0.4375 8.69543 1.23293 6.46509 2.72319C4.23475 4.21346 2.4964 6.33163 1.46989 8.80986C0.443376 11.2881 0.174794 14.015 0.698106 16.6459C1.22142 19.2768 2.51312 21.6934 4.40987 23.5901C6.30662 25.4869 8.72323 26.7786 11.3541 27.3019C13.985 27.8252 16.7119 27.5566 19.1902 26.5301C21.6684 25.5036 23.7866 23.7653 25.2768 21.5349C26.7671 19.3046 27.5625 16.6824 27.5625 14C27.5584 10.4043 26.1281 6.95703 23.5855 4.41447C21.043 1.87191 17.5957 0.441668 14 0.4375V0.4375ZM26.0925 10.1614L17.8386 1.9075C19.7725 2.52625 21.5305 3.59813 22.9662 5.03384C24.4019 6.46955 25.4738 8.22755 26.0925 10.1614V10.1614ZM24.0625 14C24.0697 16.0653 23.4346 18.0818 22.2451 19.7702L19.7028 17.2283L24.0017 12.9294C24.0408 13.285 24.0611 13.6423 24.0625 14V14ZM19.0842 16.6097L18.4656 15.9911L23.6469 10.8093C23.7289 10.7273 23.775 10.616 23.775 10.5C23.775 10.384 23.7289 10.2727 23.6469 10.1907L17.8093 4.35313C17.7273 4.27111 17.616 4.22503 17.5 4.22503C17.384 4.22503 17.2727 4.27111 17.1907 4.35313L12.0089 9.53444L11.3903 8.91581L17.5 2.80613L25.1939 10.5L19.0842 16.6097ZM14.3194 11.8449C14.7824 11.9132 15.2111 12.1288 15.542 12.4598C15.8729 12.7907 16.0885 13.2194 16.1569 13.6824L14.3194 11.8449ZM14 10.9375C13.8205 10.9394 13.6414 10.957 13.4649 10.99L12.628 10.1531L17.5 5.28106L22.719 10.5L17.847 15.372L17.01 14.5351C17.0932 14.0943 17.0776 13.6405 16.9644 13.2065C16.8512 12.7724 16.6432 12.3688 16.3554 12.0248C16.0675 11.6808 15.707 11.4048 15.2997 11.2168C14.8925 11.0288 14.4486 10.9334 14 10.9375V10.9375ZM8.22982 5.75488C9.91822 4.56538 11.9347 3.93028 14 3.9375C14.3577 3.93892 14.715 3.95922 15.0706 3.99831L10.7717 8.29719L8.22982 5.75488ZM1.90751 17.8386L10.1614 26.0925C8.22755 25.4738 6.46956 24.4019 5.03385 22.9662C3.59813 21.5304 2.52626 19.7725 1.90751 17.8386V17.8386ZM3.93751 14C3.93024 11.9346 4.56552 9.91808 5.75532 8.22981L8.2972 10.7717L3.99832 15.0706C3.95923 14.715 3.93893 14.3577 3.93751 14V14ZM8.91582 11.3903L9.53445 12.0089L4.35313 17.1907C4.27111 17.2727 4.22504 17.384 4.22504 17.5C4.22504 17.616 4.27111 17.7273 4.35313 17.8093L10.1907 23.6469C10.2727 23.7289 10.384 23.775 10.5 23.775C10.616 23.775 10.7273 23.7289 10.8093 23.6469L15.9911 18.4656L16.6097 19.0842L10.5 25.1939L2.80613 17.5L8.91582 11.3903ZM13.6806 16.1551C13.2176 16.0868 12.789 15.8712 12.458 15.5402C12.1271 15.2093 11.9115 14.7806 11.8431 14.3176L13.6806 16.1551ZM14 17.0625C14.1796 17.0606 14.3586 17.0431 14.5351 17.01L15.372 17.8469L10.5 22.7189L5.28107 17.5L10.1531 12.628L10.99 13.4649C10.9068 13.9057 10.9224 14.3595 11.0356 14.7935C11.1488 15.2276 11.3568 15.6312 11.6446 15.9752C11.9325 16.3192 12.293 16.5952 12.7003 16.7832C13.1076 16.9712 13.5515 17.0666 14 17.0625V17.0625ZM19.7702 22.2451C18.0818 23.4346 16.0653 24.0697 14 24.0625C13.6423 24.0611 13.285 24.0408 12.9294 24.0017L17.2283 19.7028L19.7702 22.2451ZM14 26.6875C12.8577 26.6872 11.7206 26.5322 10.6199 26.2268C10.691 26.2087 10.7563 26.1725 10.8093 26.1218L12.1524 24.7791C12.7628 24.8836 13.3808 24.9366 14 24.9375C16.4302 24.9458 18.7925 24.1366 20.7073 22.6402C20.7565 22.6021 20.7971 22.554 20.8262 22.499C20.8553 22.444 20.8724 22.3834 20.8762 22.3213C20.8801 22.2592 20.8706 22.1969 20.8485 22.1388C20.8264 22.0806 20.7921 22.0278 20.748 21.9839L6.01476 7.252C5.97102 7.20798 5.91837 7.17385 5.86034 7.15189C5.8023 7.12993 5.74024 7.12065 5.67832 7.12469C5.61635 7.12849 5.5559 7.14543 5.50099 7.1744C5.44607 7.20337 5.39795 7.24369 5.35982 7.29269C3.86336 9.20747 3.05423 11.5698 3.06251 14C3.06333 14.6192 3.11645 15.2373 3.22132 15.8476L1.87819 17.1907C1.82749 17.2438 1.79133 17.309 1.77319 17.3801C1.17367 15.2173 1.15894 12.9341 1.7305 10.7637C2.30207 8.59329 3.43944 6.61348 5.02646 5.02646C6.61349 3.43943 8.5933 2.30206 10.7637 1.7305C12.9341 1.15894 15.2173 1.17367 17.3801 1.77319C17.309 1.79132 17.2438 1.82749 17.1907 1.87819L15.8476 3.22088C15.2373 3.11637 14.6192 3.06339 14 3.0625C11.5698 3.05423 9.20748 3.86336 7.2927 5.35981C7.24348 5.3979 7.20296 5.44605 7.17384 5.50104C7.14471 5.55604 7.12765 5.61662 7.1238 5.67873C7.11995 5.74084 7.12939 5.80306 7.1515 5.86123C7.17361 5.9194 7.20788 5.97219 7.25201 6.01606L21.9853 20.748C22.0673 20.8301 22.1786 20.8762 22.2946 20.8762C22.3038 20.8762 22.313 20.8762 22.3221 20.8762C22.384 20.8723 22.4444 20.8554 22.4992 20.8264C22.5541 20.7974 22.6021 20.7571 22.6402 20.7082C24.1368 18.7932 24.946 16.4305 24.9375 14C24.9366 13.3808 24.8836 12.7628 24.7791 12.1524L26.1218 10.8093C26.1725 10.7562 26.2087 10.691 26.2268 10.6199C26.749 12.5037 26.8285 14.4827 26.4593 16.4023C26.09 18.322 25.2819 20.1303 24.0981 21.6859C22.9144 23.2415 21.3869 24.5024 19.6352 25.3701C17.8835 26.2377 15.9548 26.6886 14 26.6875V26.6875Z" fill="#7F8B25"/>
<path d="M14 0.4375C11.3176 0.4375 8.69543 1.23293 6.46509 2.72319C4.23475 4.21346 2.4964 6.33163 1.46989 8.80986C0.443376 11.2881 0.174794 14.015 0.698106 16.6459C1.22142 19.2768 2.51312 21.6934 4.40987 23.5901C6.30662 25.4869 8.72323 26.7786 11.3541 27.3019C13.985 27.8252 16.7119 27.5566 19.1902 26.5301C21.6684 25.5036 23.7866 23.7653 25.2768 21.5349C26.7671 19.3046 27.5625 16.6824 27.5625 14C27.5584 10.4043 26.1281 6.95703 23.5855 4.41447C21.043 1.87191 17.5957 0.441668 14 0.4375V0.4375ZM26.0925 10.1614L17.8386 1.9075C19.7725 2.52625 21.5305 3.59813 22.9662 5.03384C24.4019 6.46955 25.4738 8.22755 26.0925 10.1614V10.1614ZM24.0625 14C24.0697 16.0653 23.4346 18.0818 22.2451 19.7702L19.7028 17.2283L24.0017 12.9294C24.0408 13.285 24.0611 13.6423 24.0625 14V14ZM19.0842 16.6097L18.4656 15.9911L23.6469 10.8093C23.7289 10.7273 23.775 10.616 23.775 10.5C23.775 10.384 23.7289 10.2727 23.6469 10.1907L17.8093 4.35313C17.7273 4.27111 17.616 4.22503 17.5 4.22503C17.384 4.22503 17.2727 4.27111 17.1907 4.35313L12.0089 9.53444L11.3903 8.91581L17.5 2.80613L25.1939 10.5L19.0842 16.6097ZM14.3194 11.8449C14.7824 11.9132 15.2111 12.1288 15.542 12.4598C15.8729 12.7907 16.0885 13.2194 16.1569 13.6824L14.3194 11.8449ZM14 10.9375C13.8205 10.9394 13.6414 10.957 13.4649 10.99L12.628 10.1531L17.5 5.28106L22.719 10.5L17.847 15.372L17.01 14.5351C17.0932 14.0943 17.0776 13.6405 16.9644 13.2065C16.8512 12.7724 16.6432 12.3688 16.3554 12.0248C16.0675 11.6808 15.707 11.4048 15.2997 11.2168C14.8925 11.0288 14.4486 10.9334 14 10.9375V10.9375ZM8.22982 5.75488C9.91822 4.56538 11.9347 3.93028 14 3.9375C14.3577 3.93892 14.715 3.95922 15.0706 3.99831L10.7717 8.29719L8.22982 5.75488ZM1.90751 17.8386L10.1614 26.0925C8.22755 25.4738 6.46956 24.4019 5.03385 22.9662C3.59813 21.5304 2.52626 19.7725 1.90751 17.8386V17.8386ZM3.93751 14C3.93024 11.9346 4.56552 9.91808 5.75532 8.22981L8.2972 10.7717L3.99832 15.0706C3.95923 14.715 3.93893 14.3577 3.93751 14V14ZM8.91582 11.3903L9.53445 12.0089L4.35313 17.1907C4.27111 17.2727 4.22504 17.384 4.22504 17.5C4.22504 17.616 4.27111 17.7273 4.35313 17.8093L10.1907 23.6469C10.2727 23.7289 10.384 23.775 10.5 23.775C10.616 23.775 10.7273 23.7289 10.8093 23.6469L15.9911 18.4656L16.6097 19.0842L10.5 25.1939L2.80613 17.5L8.91582 11.3903ZM13.6806 16.1551C13.2176 16.0868 12.789 15.8712 12.458 15.5402C12.1271 15.2093 11.9115 14.7806 11.8431 14.3176L13.6806 16.1551ZM14 17.0625C14.1796 17.0606 14.3586 17.0431 14.5351 17.01L15.372 17.8469L10.5 22.7189L5.28107 17.5L10.1531 12.628L10.99 13.4649C10.9068 13.9057 10.9224 14.3595 11.0356 14.7935C11.1488 15.2276 11.3568 15.6312 11.6446 15.9752C11.9325 16.3192 12.293 16.5952 12.7003 16.7832C13.1076 16.9712 13.5515 17.0666 14 17.0625V17.0625ZM19.7702 22.2451C18.0818 23.4346 16.0653 24.0697 14 24.0625C13.6423 24.0611 13.285 24.0408 12.9294 24.0017L17.2283 19.7028L19.7702 22.2451ZM14 26.6875C12.8577 26.6872 11.7206 26.5322 10.6199 26.2268C10.691 26.2087 10.7563 26.1725 10.8093 26.1218L12.1524 24.7791C12.7628 24.8836 13.3808 24.9366 14 24.9375C16.4302 24.9458 18.7925 24.1366 20.7073 22.6402C20.7565 22.6021 20.7971 22.554 20.8262 22.499C20.8553 22.444 20.8724 22.3834 20.8762 22.3213C20.8801 22.2592 20.8706 22.1969 20.8485 22.1388C20.8264 22.0806 20.7921 22.0278 20.748 21.9839L6.01476 7.252C5.97102 7.20798 5.91837 7.17385 5.86034 7.15189C5.8023 7.12993 5.74024 7.12065 5.67832 7.12469C5.61635 7.12849 5.5559 7.14543 5.50099 7.1744C5.44607 7.20337 5.39795 7.24369 5.35982 7.29269C3.86336 9.20747 3.05423 11.5698 3.06251 14C3.06333 14.6192 3.11645 15.2373 3.22132 15.8476L1.87819 17.1907C1.82749 17.2438 1.79133 17.309 1.77319 17.3801C1.17367 15.2173 1.15894 12.9341 1.7305 10.7637C2.30207 8.59329 3.43944 6.61348 5.02646 5.02646C6.61349 3.43943 8.5933 2.30206 10.7637 1.7305C12.9341 1.15894 15.2173 1.17367 17.3801 1.77319C17.309 1.79132 17.2438 1.82749 17.1907 1.87819L15.8476 3.22088C15.2373 3.11637 14.6192 3.06339 14 3.0625C11.5698 3.05423 9.20748 3.86336 7.2927 5.35981C7.24348 5.3979 7.20296 5.44605 7.17384 5.50104C7.14471 5.55604 7.12765 5.61662 7.1238 5.67873C7.11995 5.74084 7.12939 5.80306 7.1515 5.86123C7.17361 5.9194 7.20788 5.97219 7.25201 6.01606L21.9853 20.748C22.0673 20.8301 22.1786 20.8762 22.2946 20.8762C22.3038 20.8762 22.313 20.8762 22.3221 20.8762C22.384 20.8723 22.4444 20.8554 22.4992 20.8264C22.5541 20.7974 22.6021 20.7571 22.6402 20.7082C24.1368 18.7932 24.946 16.4305 24.9375 14C24.9366 13.3808 24.8836 12.7628 24.7791 12.1524L26.1218 10.8093C26.1725 10.7562 26.2087 10.691 26.2268 10.6199C26.749 12.5037 26.8285 14.4827 26.4593 16.4023C26.09 18.322 25.2819 20.1303 24.0981 21.6859C22.9144 23.2415 21.3869 24.5024 19.6352 25.3701C17.8835 26.2377 15.9548 26.6886 14 26.6875V26.6875Z" stroke="#7F8B25" stroke-width="0.4" mask="url(#path-3-outside-1_64_1008)"/>
</svg>
