<svg width="27" height="32" viewBox="0 0 27 32" fill="none" xmlns="http://www.w3.org/2000/svg">
<path d="M22.3966 30.5157C22.6661 30.5157 22.8845 30.2973 22.8845 30.0278C22.8845 29.7584 22.6661 29.5399 22.3966 29.5399C22.1271 29.5399 21.9087 29.7584 21.9087 30.0278C21.9087 30.2973 22.1271 30.5157 22.3966 30.5157Z" fill="#7F8B25"/>
<path d="M24.3752 14.9456C24.3752 14.8165 24.3238 14.6928 24.2326 14.6015L12.5315 2.90072C12.3415 2.71067 12.0334 2.71067 11.8433 2.90072L0.14254 14.6015C-0.0475133 14.7916 -0.0475133 15.0996 0.14254 15.2897L2.23179 17.3792L0.14254 19.4684C-0.0475133 19.6585 -0.0475133 19.9666 0.14254 20.1566L11.8433 31.8574C11.9384 31.9524 12.063 32 12.1874 32C12.3119 32 12.4365 31.9524 12.5315 31.8574L24.2326 20.1566C24.3238 20.0654 24.3752 19.9415 24.3752 19.8125C24.3752 19.6835 24.3238 19.5597 24.2326 19.4684L22.143 17.3788L24.2326 15.2897C24.3238 15.1984 24.3752 15.0747 24.3752 14.9456ZM1.17481 14.9456L4.21116 11.9093C4.22746 12.0053 4.26397 12.0987 4.33807 12.1728L4.68386 12.5187L4.33807 12.8646C4.14801 13.0547 4.14801 13.363 4.33807 13.5528C4.43309 13.6478 4.55769 13.6954 4.68216 13.6954C4.80663 13.6954 4.93122 13.6478 5.02625 13.5528L5.37204 13.207L5.71784 13.5528C5.78111 13.6161 5.85873 13.6504 5.9394 13.6716L2.91997 16.691L1.17481 14.9456ZM12.1874 30.8251L1.17481 19.8125L12.1874 8.79991L23.2003 19.8125L12.1874 30.8251ZM21.4548 16.6906L12.5315 7.76763C12.3415 7.57758 12.0334 7.57758 11.8433 7.76763L6.52477 13.0862C6.5036 13.0055 6.46929 12.9279 6.40602 12.8646L6.06022 12.5187L6.40602 12.1728C6.59607 11.9827 6.59607 11.6744 6.40602 11.4846C6.21597 11.2946 5.90789 11.2946 5.71784 11.4846L5.37204 11.8304L5.02625 11.4846C4.95215 11.4105 4.8587 11.374 4.7627 11.3577L12.1873 3.93311L23.2003 14.9456L21.4548 16.6906Z" fill="#7F8B25"/>
<path d="M24.3752 14.9456C24.3752 14.8165 24.3238 14.6928 24.2326 14.6015L12.5315 2.90072C12.3415 2.71067 12.0334 2.71067 11.8433 2.90072L0.14254 14.6015C-0.0475133 14.7916 -0.0475133 15.0996 0.14254 15.2897L2.23179 17.3792L0.14254 19.4684C-0.0475133 19.6585 -0.0475133 19.9666 0.14254 20.1566L11.8433 31.8574C11.9384 31.9524 12.063 32 12.1874 32C12.3119 32 12.4365 31.9524 12.5315 31.8574L24.2326 20.1566C24.3238 20.0654 24.3752 19.9415 24.3752 19.8125C24.3752 19.6835 24.3238 19.5597 24.2326 19.4684L22.143 17.3788L24.2326 15.2897C24.3238 15.1984 24.3752 15.0747 24.3752 14.9456ZM1.17481 14.9456L4.21116 11.9093C4.22746 12.0053 4.26397 12.0987 4.33807 12.1728L4.68386 12.5187L4.33807 12.8646C4.14801 13.0547 4.14801 13.363 4.33807 13.5528C4.43309 13.6478 4.55769 13.6954 4.68216 13.6954C4.80663 13.6954 4.93122 13.6478 5.02625 13.5528L5.37204 13.207L5.71784 13.5528C5.78111 13.6161 5.85873 13.6504 5.9394 13.6716L2.91997 16.691L1.17481 14.9456ZM12.1874 30.8251L1.17481 19.8125L12.1874 8.79991L23.2003 19.8125L12.1874 30.8251ZM21.4548 16.6906L12.5315 7.76763C12.3415 7.57758 12.0334 7.57758 11.8433 7.76763L6.52477 13.0862C6.5036 13.0055 6.46929 12.9279 6.40602 12.8646L6.06022 12.5187L6.40602 12.1728C6.59607 11.9827 6.59607 11.6744 6.40602 11.4846C6.21597 11.2946 5.90789 11.2946 5.71784 11.4846L5.37204 11.8304L5.02625 11.4846C4.95215 11.4105 4.8587 11.374 4.7627 11.3577L12.1873 3.93311L23.2003 14.9456L21.4548 16.6906Z" stroke="#7F8B25"/>
<path d="M12.1764 20.2952C12.4458 20.2952 12.6643 20.0767 12.6643 19.8072C12.6643 19.5378 12.4458 19.3193 12.1764 19.3193C11.9069 19.3193 11.6885 19.5378 11.6885 19.8072C11.6885 20.0767 11.9069 20.2952 12.1764 20.2952Z" fill="#7F8B25"/>
<path d="M12.1764 17.3751C12.4458 17.3751 12.6643 17.1567 12.6643 16.8872C12.6643 16.6177 12.4458 16.3993 12.1764 16.3993C11.9069 16.3993 11.6885 16.6177 11.6885 16.8872C11.6885 17.1567 11.9069 17.3751 12.1764 17.3751Z" fill="#7F8B25"/>
<path d="M12.1764 14.4549C12.4458 14.4549 12.6643 14.2365 12.6643 13.967C12.6643 13.6976 12.4458 13.4791 12.1764 13.4791C11.9069 13.4791 11.6885 13.6976 11.6885 13.967C11.6885 14.2365 11.9069 14.4549 12.1764 14.4549Z" fill="#7F8B25"/>
<path d="M12.1764 26.1355C12.4458 26.1355 12.6643 25.917 12.6643 25.6476C12.6643 25.3781 12.4458 25.1597 12.1764 25.1597C11.9069 25.1597 11.6885 25.3781 11.6885 25.6476C11.6885 25.917 11.9069 26.1355 12.1764 26.1355Z" fill="#7F8B25"/>
<path d="M12.1764 23.2153C12.4458 23.2153 12.6643 22.9969 12.6643 22.7274C12.6643 22.4579 12.4458 22.2395 12.1764 22.2395C11.9069 22.2395 11.6885 22.4579 11.6885 22.7274C11.6885 22.9969 11.9069 23.2153 12.1764 23.2153Z" fill="#7F8B25"/>
<path d="M9.25695 20.2952C9.52642 20.2952 9.74486 20.0767 9.74486 19.8072C9.74486 19.5378 9.52642 19.3193 9.25695 19.3193C8.98749 19.3193 8.76904 19.5378 8.76904 19.8072C8.76904 20.0767 8.98749 20.2952 9.25695 20.2952Z" fill="#7F8B25"/>
<path d="M6.33556 20.2952C6.60503 20.2952 6.82347 20.0767 6.82347 19.8072C6.82347 19.5378 6.60503 19.3193 6.33556 19.3193C6.0661 19.3193 5.84766 19.5378 5.84766 19.8072C5.84766 20.0767 6.0661 20.2952 6.33556 20.2952Z" fill="#7F8B25"/>
<path d="M18.0167 20.2952C18.2862 20.2952 18.5046 20.0767 18.5046 19.8072C18.5046 19.5378 18.2862 19.3193 18.0167 19.3193C17.7473 19.3193 17.5288 19.5378 17.5288 19.8072C17.5288 20.0767 17.7473 20.2952 18.0167 20.2952Z" fill="#7F8B25"/>
<path d="M15.0953 20.2952C15.3648 20.2952 15.5832 20.0767 15.5832 19.8072C15.5832 19.5378 15.3648 19.3193 15.0953 19.3193C14.8259 19.3193 14.6074 19.5378 14.6074 19.8072C14.6074 20.0767 14.8259 20.2952 15.0953 20.2952Z" fill="#7F8B25"/>
<path d="M16.9912 17.933C17.0862 18.0281 17.2108 18.0756 17.3353 18.0756C17.4597 18.0756 17.5843 18.0281 17.6794 17.933L18.0251 17.5872L18.3709 17.933C18.466 18.0281 18.5906 18.0756 18.715 18.0756C18.8395 18.0756 18.9641 18.0281 19.0591 17.933C19.2492 17.7431 19.2492 17.4349 19.0591 17.2448L18.7133 16.8989L19.0591 16.553C19.2492 16.363 19.2492 16.0546 19.0591 15.8648C18.8691 15.6748 18.561 15.6748 18.3709 15.8648L18.0251 16.2106L17.6794 15.8648C17.4893 15.6748 17.1812 15.6748 16.9912 15.8648C16.8011 16.0548 16.8011 16.363 16.9912 16.553L17.337 16.8989L16.9912 17.2448C16.8011 17.4349 16.8011 17.7431 16.9912 17.933Z" fill="#7F8B25"/>
<path d="M22.0339 8.24905C21.2215 7.99642 20.6756 7.25448 20.6756 6.4028C20.6756 5.98651 20.8059 5.5899 21.0525 5.25584C21.0581 5.24821 21.0632 5.23988 21.0674 5.23141C21.1082 5.14994 21.0751 5.05099 20.9936 5.01025C20.9198 4.97332 20.8316 4.99704 20.7853 5.06226C20.4977 5.45298 20.3457 5.91648 20.3457 6.4028C20.3457 6.8953 20.5012 7.36356 20.7954 7.75692C21.0798 8.13714 21.4848 8.4238 21.936 8.56407C21.9523 8.56915 21.9688 8.57156 21.985 8.57156C22.0553 8.57156 22.1205 8.52621 22.1425 8.45553C22.1695 8.36854 22.1209 8.27611 22.0339 8.24905Z" fill="#7F8B25"/>
<path d="M25.018 2.38317L25.018 2.38318L26.061 3.93154C26.258 4.20068 26.3622 4.51993 26.3622 4.85443C26.3622 5.30214 26.173 5.70639 25.8709 5.99152C25.8847 6.11207 25.8919 6.23408 25.8919 6.35595C25.8919 8.10263 24.471 9.52351 22.7243 9.52351C20.9776 9.52351 19.5567 8.10263 19.5567 6.35595C19.5567 5.67631 19.769 5.02812 20.1705 4.48176L22.5046 1.01693C22.5046 1.01693 22.5046 1.01692 22.5046 1.01692C22.5538 0.943815 22.6362 0.9 22.7243 0.9C22.8124 0.9 22.8948 0.94382 22.944 1.01693M25.018 2.38317L22.8611 1.07279M25.018 2.38317C24.9687 2.31009 24.8864 2.26626 24.7982 2.26626C24.7101 2.26626 24.6277 2.31009 24.5785 2.38317L24.5785 2.38318L24.2215 2.9132M25.018 2.38317L24.2817 3.00269M22.944 1.01693L22.8611 1.07279M22.944 1.01693L22.944 1.01692L22.8611 1.07279M22.944 1.01693L24.2215 2.9132M22.8611 1.07279L24.1612 3.00269L24.2215 2.9132M24.2215 2.9132L24.2817 3.00269M24.2817 3.00269L24.2215 3.09219L24.2817 3.00269ZM25.6308 4.24095L25.6308 4.24092C25.6279 4.23696 25.625 4.23282 25.6221 4.22849L24.7982 3.00543L24.4434 3.53213L24.4434 3.53212L24.4419 3.53453L24.4411 3.53569L24.4409 3.53596L24.4409 3.53597L24.4408 3.53604L23.9741 4.22884L25.6308 4.24095ZM25.6308 4.24095C25.7627 4.41952 25.8323 4.63136 25.8323 4.85442M25.6308 4.24095L25.8323 4.85442M25.8323 4.85442C25.8323 5.4245 25.3683 5.88845 24.7982 5.88845M25.8323 4.85442L24.7982 5.88845M24.7982 5.88845C24.2282 5.88845 23.7642 5.4245 23.7642 4.85442M24.7982 5.88845L23.7642 4.85442M23.7642 4.85442C23.7642 4.63137 23.8338 4.41954 23.9657 4.24097L23.7642 4.85442ZM20.5204 4.73155L20.6007 4.79115C20.604 4.78672 20.607 4.78238 20.6096 4.7783L22.7243 1.63915L23.902 3.38742L23.5355 3.93156C23.3385 4.20068 23.2343 4.51995 23.2343 4.85443C23.2343 5.71687 23.9358 6.41836 24.7982 6.41836C24.9967 6.41836 25.1867 6.38113 25.3616 6.31335C25.3618 6.32756 25.3619 6.34176 25.3619 6.35595C25.3619 7.81029 24.1786 8.99362 22.7243 8.99362C21.2699 8.99362 20.0866 7.81029 20.0866 6.35595C20.0866 5.78768 20.2644 5.24678 20.6009 4.79094L20.5204 4.73155ZM20.5204 4.73155C20.1712 5.20465 19.9866 5.76637 19.9866 6.35595C19.9866 7.86551 21.2147 9.09362 22.7243 9.09362C24.2338 9.09362 25.4619 7.86551 25.4619 6.35595C25.4619 6.32763 25.4615 6.2993 25.4606 6.27099L20.5262 4.72315C20.5243 4.72604 20.5224 4.72886 20.5204 4.73155Z" fill="#7F8B25" stroke="#7F8B25" stroke-width="0.2"/>
<path d="M24.2166 4.81425C24.2166 4.73433 24.2329 4.6572 24.265 4.585C24.302 4.50176 24.2645 4.40427 24.1813 4.36728C24.098 4.33031 24.0006 4.36774 23.9636 4.45099C23.9126 4.56566 23.8867 4.68787 23.8867 4.81425C23.8867 5.11361 24.0354 5.39187 24.2845 5.55853C24.3127 5.57739 24.3446 5.58639 24.3761 5.58639C24.4293 5.58639 24.4815 5.5607 24.5133 5.51317C24.564 5.43745 24.5437 5.335 24.468 5.28434C24.3106 5.17903 24.2166 5.00329 24.2166 4.81425Z" fill="#7F8B25"/>
<path d="M22.6466 8.47785C22.6061 8.3715 22.4552 8.34117 22.377 8.4243C22.284 8.51447 22.3341 8.68003 22.4616 8.70315C22.5881 8.73087 22.6984 8.5966 22.6466 8.47785Z" fill="#7F8B25"/>
<path d="M24.7107 5.70955C24.8173 5.78338 24.9699 5.70175 24.9678 5.57219C24.9702 5.44262 24.8172 5.36083 24.7107 5.43467C24.6142 5.49516 24.6138 5.64925 24.7107 5.70955Z" fill="#7F8B25"/>
</svg>
