<svg width="18" height="27" viewBox="0 0 18 27" fill="none" xmlns="http://www.w3.org/2000/svg">
<path d="M6.87215 22.5145C4.86508 21.7648 3.51656 19.5628 3.51656 17.0351C3.51656 15.7996 3.8385 14.6225 4.44763 13.631C4.46152 13.6084 4.47407 13.5837 4.48454 13.5585C4.58519 13.3167 4.50345 13.023 4.30216 12.9021C4.11998 12.7925 3.90207 12.8629 3.78773 13.0565C3.07722 14.2161 2.70166 15.5917 2.70166 17.0351C2.70166 18.4967 3.08582 19.8865 3.81259 21.0539C4.51506 22.1824 5.51569 23.0332 6.6302 23.4495C6.6705 23.4645 6.71124 23.4717 6.7513 23.4717C6.925 23.4717 7.08599 23.3371 7.14027 23.1273C7.20709 22.8692 7.08705 22.5948 6.87215 22.5145Z" fill="#7F8B25"/>
<path d="M15.8714 10.4948L15.8714 10.4948C15.8657 10.4855 15.8602 10.476 15.8548 10.4661C15.8547 10.4659 15.8546 10.4656 15.8544 10.4654L13.7012 6.62514L12.7076 8.39726C12.706 8.4003 12.7041 8.40366 12.7027 8.40614C12.7017 8.40788 12.7009 8.40918 12.7007 8.40962L11.5474 10.4664C11.5473 10.4666 11.5472 10.4669 11.547 10.4671L15.8714 10.4948ZM15.8714 10.4948C16.2184 11.0593 16.4027 11.7315 16.4027 12.4395M15.8714 10.4948L16.4027 12.4395M16.4027 12.4395C16.4027 14.258 15.1743 15.7051 13.7012 15.7051M16.4027 12.4395L13.7012 15.7051M13.7012 15.7051C12.2281 15.7051 10.9998 14.258 10.9998 12.4395M13.7012 15.7051L10.9998 12.4395M10.9998 12.4395C10.9998 11.7315 11.1841 11.0593 11.531 10.4949L10.9998 12.4395ZM14.1264 5.22203L14.1264 5.22202C14.036 5.06083 13.8788 4.95491 13.7012 4.95491C13.5236 4.95491 13.3664 5.06083 13.276 5.22202L13.276 5.22203L12.2764 7.0049L9.00302 1.16714C9.00302 1.16713 9.00302 1.16713 9.00302 1.16713C8.91265 1.00592 8.75538 0.9 8.57788 0.9C8.40037 0.9 8.24311 1.00592 8.15274 1.16713C8.15274 1.16713 8.15274 1.16713 8.15273 1.16714L2.38489 11.4538C1.41279 13.0416 0.9 14.9232 0.9 16.8958C0.9 21.9531 4.32781 26.1 8.57788 26.1C12.8279 26.1 16.2558 21.9531 16.2558 16.8958C16.2558 16.5069 16.2349 16.1172 16.1945 15.7332C16.9468 14.9179 17.4176 13.7419 17.4176 12.4395C17.4176 11.4911 17.1718 10.5857 16.7048 9.82067L14.1264 5.22203ZM15.2408 16.8958C15.2408 21.3388 12.2353 24.9209 8.57784 24.9209C4.92034 24.9209 1.9149 21.3388 1.9149 16.8958C1.9149 15.1633 2.36634 13.5145 3.21876 12.1272C3.22473 12.1175 3.23031 12.1077 3.23549 12.0981L8.57788 2.57018L11.6705 8.0856L10.6976 9.82071C10.2307 10.5857 9.98482 11.4912 9.98482 12.4395C9.98482 14.8725 11.6355 16.8843 13.7012 16.8843C14.2472 16.8843 14.7656 16.7426 15.232 16.4895C15.2378 16.6249 15.2408 16.7604 15.2408 16.8958Z" fill="#7F8B25" stroke="#7F8B25" stroke-width="0.2"/>
<path d="M12.2651 12.32C12.2651 12.0828 12.3054 11.8539 12.3847 11.6397C12.4761 11.3926 12.3835 11.1033 12.1779 10.9935C11.9722 10.8838 11.7314 10.9948 11.64 11.2419C11.514 11.5822 11.4502 11.9449 11.4502 12.32C11.4502 13.2085 11.8176 14.0343 12.4329 14.529C12.5025 14.5849 12.5812 14.6117 12.6591 14.6117C12.7906 14.6117 12.9196 14.5354 12.9982 14.3944C13.1233 14.1696 13.0731 13.8656 12.8861 13.7152C12.4973 13.4026 12.2651 12.8811 12.2651 12.32Z" fill="#7F8B25"/>
<path d="M8.38523 23.1927C8.28548 22.8778 7.9133 22.7879 7.72065 23.0341C7.49129 23.3012 7.61475 23.7915 7.92928 23.86C8.24111 23.9421 8.51293 23.5444 8.38523 23.1927Z" fill="#7F8B25"/>
<path d="M13.485 14.9753C13.7477 15.1939 14.124 14.9522 14.1186 14.5685C14.1245 14.1848 13.7475 13.9425 13.485 14.1612C13.247 14.3404 13.2461 14.7967 13.485 14.9753Z" fill="#7F8B25"/>
</svg>
