<svg width="26" height="26" viewBox="0 0 26 26" fill="none" xmlns="http://www.w3.org/2000/svg">
<mask id="path-1-outside-1_64_922" maskUnits="userSpaceOnUse" x="0" y="0.00012207" width="26" height="26" fill="black">
<rect fill="white" y="0.00012207" width="26" height="26"/>
<path d="M23.8 5.00012C24.4614 4.99685 24.9967 4.46152 25 3.80012C25 3.13739 24.4627 2.60013 23.8 2.60013H23.4V2.20014C23.4024 1.88346 23.2762 1.57937 23.0504 1.35734C22.8276 1.12723 22.5204 0.998214 22.2 1.00014C21.5373 1.00014 21 1.53741 21 2.20014V2.60013H19.4V2.20014C19.4024 1.88346 19.2763 1.57937 19.0504 1.35734C18.8276 1.12723 18.5204 0.998214 18.2 1.00014C17.5373 1.00014 17 1.53741 17 2.20014V2.60013H15.4001V2.20014C15.4024 1.88346 15.2763 1.57937 15.0505 1.35734C14.8276 1.12723 14.5204 0.998214 14.2001 1.00014C13.5373 1.00014 13.0001 1.53741 13.0001 2.20014V2.60013H11.6764C11.6764 1.71646 10.9601 1.00014 10.0764 1.00014H3.00001C1.89599 1.00144 1.00134 1.8961 1 3.00011V23.0001C1.00134 24.1041 1.89599 24.9987 3.00001 25.0001H23C24.104 24.9987 24.9987 24.1041 25 23.0001V15.9241C25 15.0404 24.2836 14.3241 23.4 14.3241V13.0001H23.8C24.4614 12.9968 24.9967 12.4615 25 11.8001C25 11.1374 24.4627 10.6001 23.8 10.6001H23.4V9.00014H23.8C24.4614 8.99687 24.9967 8.46153 25 7.80014C25 7.13741 24.4627 6.60014 23.8 6.60014H23.4V5.00016H23.8V5.00012ZM23.8 3.40014C24.0209 3.40014 24.2 3.57923 24.2 3.80012C24.2003 3.90799 24.156 4.01122 24.0776 4.08531C24.0044 4.15948 23.9042 4.2009 23.8 4.20011H23.4V3.40014H23.8ZM21.8 2.20014C21.8 1.97924 21.9791 1.80015 22.2 1.80015C22.3077 1.8 22.4108 1.84429 22.4848 1.92255C22.5594 1.9955 22.601 2.09577 22.6 2.20014V14.4865C22.4604 14.5313 22.3288 14.5773 22.2 14.6229C22.0712 14.6685 21.9372 14.7153 21.8 14.7585V2.20014ZM18.6 5.00012V6.6001H17.8V5.00012H18.6ZM21 5.00012V6.6001H19.4V5.00012H21ZM15.4 12.2001V11.4001H21V12.2001H15.4ZM21 7.40011V8.20012H15.4V7.40011H21ZM17.8 10.6001V9.00014H18.6V10.6001H17.8ZM15.4 10.6001V9.00014H17V10.6001H15.4ZM19.4 9.0001H21V10.6001H19.4V9.0001ZM17 6.6001H15.4V5.00012H17V6.6001ZM15.4 13.0001H17V14.3429C16.5171 14.2414 16.0245 14.1935 15.5312 14.2001C15.486 14.2001 15.444 14.2053 15.3999 14.2069V13.0001H15.4ZM17.8 13.0001H18.6V14.8353C18.36 14.7729 18.1472 14.6989 17.9316 14.6229L17.8 14.5769V13.0001ZM19.4 13.0001H21V14.9397C20.6903 14.982 20.3781 15.0021 20.0656 15.0001C19.8156 15.0001 19.5975 14.9893 19.4 14.9713V13.0001H19.4ZM17.8 2.20014C17.8 1.97924 17.9791 1.80015 18.2 1.80015C18.3077 1.8 18.4107 1.84429 18.4848 1.92255C18.5594 1.9955 18.601 2.09577 18.5999 2.20014V2.60013H17.7999V2.20014H17.8ZM21 3.40014V4.20015H15.4V3.40014H21ZM13.8 2.20014C13.8 1.97924 13.9791 1.80015 14.2 1.80015C14.3077 1.8 14.4108 1.84429 14.4848 1.92255C14.5594 1.9955 14.601 2.09577 14.6 2.20014V14.3221C14.3254 14.393 14.0577 14.4881 13.8 14.6065V2.20014H13.8ZM11.658 9.0001H13V10.6001H11.7932C11.7932 10.5549 11.8 10.5117 11.8 10.4657C11.8065 9.97345 11.7589 9.48197 11.658 9.0001ZM13 6.6001H11.0292C11.0108 6.40212 11 6.18291 11 5.93131C10.998 5.6199 11.0181 5.30869 11.06 5.00012H13V6.6001ZM13 7.40011V8.20012H11.4244C11.4084 8.15532 11.3928 8.10973 11.3772 8.06533C11.3016 7.85092 11.2276 7.63971 11.1656 7.40011H13ZM11.6776 11.4001H13V12.2001H11.3924C11.5109 11.9424 11.6063 11.6746 11.6776 11.4001ZM10.9784 13.0001H13V15.0205C12.0944 15.5177 11.68 15.6821 11 15.0001C10.32 14.3181 10.482 13.9045 10.9784 13.0001ZM13 4.20011H11.24C11.2832 4.06252 11.3296 3.9313 11.3764 3.80012C11.4232 3.66891 11.4676 3.54053 11.512 3.40014H13V4.20011ZM24.2 15.9241V23.0001C24.2 23.6628 23.6627 24.2001 23 24.2001H3.00001C2.33728 24.2001 1.80001 23.6628 1.80001 23.0001V3.00011C1.80001 2.33738 2.33728 1.80012 3.00001 1.80012H10.076C10.3213 1.80039 10.5529 1.91291 10.7048 2.10546C10.8567 2.29805 10.9121 2.54954 10.8552 2.78811C10.7911 3.04011 10.7136 3.28845 10.6228 3.5321C10.3254 4.29648 10.1817 5.11208 10.2 5.9321C10.1817 6.75211 10.3253 7.56771 10.6228 8.33209C10.8893 9.01108 11.0175 9.73649 11 10.4657C10.9606 11.2107 10.7225 11.9317 10.3104 12.5537C9.83044 13.4257 9.28361 14.4145 10.434 15.5657C11.5844 16.7168 12.5724 16.1713 13.4445 15.6897C14.066 15.2776 14.7866 15.0395 15.5312 15.0001C16.2607 14.9826 16.9863 15.1108 17.6656 15.3773C18.43 15.6749 19.2456 15.8186 20.0656 15.8001C20.8857 15.8186 21.7013 15.6747 22.4656 15.3768C22.71 15.2861 22.959 15.2085 23.2116 15.1444C23.4503 15.0877 23.7018 15.1433 23.8944 15.2952C24.087 15.4471 24.1996 15.6788 24.2 15.9241ZM23.8 11.4001C24.0209 11.4001 24.2 11.5792 24.2 11.8001C24.2003 11.9079 24.156 12.0112 24.0776 12.0853C24.0044 12.1594 23.9042 12.2008 23.8 12.2001H23.4V11.4001H23.8V11.4001ZM23.8 7.40011C24.0209 7.40011 24.2 7.5792 24.2 7.8001C24.2003 7.90797 24.156 8.01119 24.0776 8.08529C24.0044 8.15946 23.9042 8.20087 23.8 8.20009H23.4V7.40007H23.8V7.40011Z"/>
</mask>
<path d="M23.8 5.00012C24.4614 4.99685 24.9967 4.46152 25 3.80012C25 3.13739 24.4627 2.60013 23.8 2.60013H23.4V2.20014C23.4024 1.88346 23.2762 1.57937 23.0504 1.35734C22.8276 1.12723 22.5204 0.998214 22.2 1.00014C21.5373 1.00014 21 1.53741 21 2.20014V2.60013H19.4V2.20014C19.4024 1.88346 19.2763 1.57937 19.0504 1.35734C18.8276 1.12723 18.5204 0.998214 18.2 1.00014C17.5373 1.00014 17 1.53741 17 2.20014V2.60013H15.4001V2.20014C15.4024 1.88346 15.2763 1.57937 15.0505 1.35734C14.8276 1.12723 14.5204 0.998214 14.2001 1.00014C13.5373 1.00014 13.0001 1.53741 13.0001 2.20014V2.60013H11.6764C11.6764 1.71646 10.9601 1.00014 10.0764 1.00014H3.00001C1.89599 1.00144 1.00134 1.8961 1 3.00011V23.0001C1.00134 24.1041 1.89599 24.9987 3.00001 25.0001H23C24.104 24.9987 24.9987 24.1041 25 23.0001V15.9241C25 15.0404 24.2836 14.3241 23.4 14.3241V13.0001H23.8C24.4614 12.9968 24.9967 12.4615 25 11.8001C25 11.1374 24.4627 10.6001 23.8 10.6001H23.4V9.00014H23.8C24.4614 8.99687 24.9967 8.46153 25 7.80014C25 7.13741 24.4627 6.60014 23.8 6.60014H23.4V5.00016H23.8V5.00012ZM23.8 3.40014C24.0209 3.40014 24.2 3.57923 24.2 3.80012C24.2003 3.90799 24.156 4.01122 24.0776 4.08531C24.0044 4.15948 23.9042 4.2009 23.8 4.20011H23.4V3.40014H23.8ZM21.8 2.20014C21.8 1.97924 21.9791 1.80015 22.2 1.80015C22.3077 1.8 22.4108 1.84429 22.4848 1.92255C22.5594 1.9955 22.601 2.09577 22.6 2.20014V14.4865C22.4604 14.5313 22.3288 14.5773 22.2 14.6229C22.0712 14.6685 21.9372 14.7153 21.8 14.7585V2.20014ZM18.6 5.00012V6.6001H17.8V5.00012H18.6ZM21 5.00012V6.6001H19.4V5.00012H21ZM15.4 12.2001V11.4001H21V12.2001H15.4ZM21 7.40011V8.20012H15.4V7.40011H21ZM17.8 10.6001V9.00014H18.6V10.6001H17.8ZM15.4 10.6001V9.00014H17V10.6001H15.4ZM19.4 9.0001H21V10.6001H19.4V9.0001ZM17 6.6001H15.4V5.00012H17V6.6001ZM15.4 13.0001H17V14.3429C16.5171 14.2414 16.0245 14.1935 15.5312 14.2001C15.486 14.2001 15.444 14.2053 15.3999 14.2069V13.0001H15.4ZM17.8 13.0001H18.6V14.8353C18.36 14.7729 18.1472 14.6989 17.9316 14.6229L17.8 14.5769V13.0001ZM19.4 13.0001H21V14.9397C20.6903 14.982 20.3781 15.0021 20.0656 15.0001C19.8156 15.0001 19.5975 14.9893 19.4 14.9713V13.0001H19.4ZM17.8 2.20014C17.8 1.97924 17.9791 1.80015 18.2 1.80015C18.3077 1.8 18.4107 1.84429 18.4848 1.92255C18.5594 1.9955 18.601 2.09577 18.5999 2.20014V2.60013H17.7999V2.20014H17.8ZM21 3.40014V4.20015H15.4V3.40014H21ZM13.8 2.20014C13.8 1.97924 13.9791 1.80015 14.2 1.80015C14.3077 1.8 14.4108 1.84429 14.4848 1.92255C14.5594 1.9955 14.601 2.09577 14.6 2.20014V14.3221C14.3254 14.393 14.0577 14.4881 13.8 14.6065V2.20014H13.8ZM11.658 9.0001H13V10.6001H11.7932C11.7932 10.5549 11.8 10.5117 11.8 10.4657C11.8065 9.97345 11.7589 9.48197 11.658 9.0001ZM13 6.6001H11.0292C11.0108 6.40212 11 6.18291 11 5.93131C10.998 5.6199 11.0181 5.30869 11.06 5.00012H13V6.6001ZM13 7.40011V8.20012H11.4244C11.4084 8.15532 11.3928 8.10973 11.3772 8.06533C11.3016 7.85092 11.2276 7.63971 11.1656 7.40011H13ZM11.6776 11.4001H13V12.2001H11.3924C11.5109 11.9424 11.6063 11.6746 11.6776 11.4001ZM10.9784 13.0001H13V15.0205C12.0944 15.5177 11.68 15.6821 11 15.0001C10.32 14.3181 10.482 13.9045 10.9784 13.0001ZM13 4.20011H11.24C11.2832 4.06252 11.3296 3.9313 11.3764 3.80012C11.4232 3.66891 11.4676 3.54053 11.512 3.40014H13V4.20011ZM24.2 15.9241V23.0001C24.2 23.6628 23.6627 24.2001 23 24.2001H3.00001C2.33728 24.2001 1.80001 23.6628 1.80001 23.0001V3.00011C1.80001 2.33738 2.33728 1.80012 3.00001 1.80012H10.076C10.3213 1.80039 10.5529 1.91291 10.7048 2.10546C10.8567 2.29805 10.9121 2.54954 10.8552 2.78811C10.7911 3.04011 10.7136 3.28845 10.6228 3.5321C10.3254 4.29648 10.1817 5.11208 10.2 5.9321C10.1817 6.75211 10.3253 7.56771 10.6228 8.33209C10.8893 9.01108 11.0175 9.73649 11 10.4657C10.9606 11.2107 10.7225 11.9317 10.3104 12.5537C9.83044 13.4257 9.28361 14.4145 10.434 15.5657C11.5844 16.7168 12.5724 16.1713 13.4445 15.6897C14.066 15.2776 14.7866 15.0395 15.5312 15.0001C16.2607 14.9826 16.9863 15.1108 17.6656 15.3773C18.43 15.6749 19.2456 15.8186 20.0656 15.8001C20.8857 15.8186 21.7013 15.6747 22.4656 15.3768C22.71 15.2861 22.959 15.2085 23.2116 15.1444C23.4503 15.0877 23.7018 15.1433 23.8944 15.2952C24.087 15.4471 24.1996 15.6788 24.2 15.9241ZM23.8 11.4001C24.0209 11.4001 24.2 11.5792 24.2 11.8001C24.2003 11.9079 24.156 12.0112 24.0776 12.0853C24.0044 12.1594 23.9042 12.2008 23.8 12.2001H23.4V11.4001H23.8V11.4001ZM23.8 7.40011C24.0209 7.40011 24.2 7.5792 24.2 7.8001C24.2003 7.90797 24.156 8.01119 24.0776 8.08529C24.0044 8.15946 23.9042 8.20087 23.8 8.20009H23.4V7.40007H23.8V7.40011Z" fill="#7F8B25"/>
<path d="M23.8 5.00012C24.4614 4.99685 24.9967 4.46152 25 3.80012C25 3.13739 24.4627 2.60013 23.8 2.60013H23.4V2.20014C23.4024 1.88346 23.2762 1.57937 23.0504 1.35734C22.8276 1.12723 22.5204 0.998214 22.2 1.00014C21.5373 1.00014 21 1.53741 21 2.20014V2.60013H19.4V2.20014C19.4024 1.88346 19.2763 1.57937 19.0504 1.35734C18.8276 1.12723 18.5204 0.998214 18.2 1.00014C17.5373 1.00014 17 1.53741 17 2.20014V2.60013H15.4001V2.20014C15.4024 1.88346 15.2763 1.57937 15.0505 1.35734C14.8276 1.12723 14.5204 0.998214 14.2001 1.00014C13.5373 1.00014 13.0001 1.53741 13.0001 2.20014V2.60013H11.6764C11.6764 1.71646 10.9601 1.00014 10.0764 1.00014H3.00001C1.89599 1.00144 1.00134 1.8961 1 3.00011V23.0001C1.00134 24.1041 1.89599 24.9987 3.00001 25.0001H23C24.104 24.9987 24.9987 24.1041 25 23.0001V15.9241C25 15.0404 24.2836 14.3241 23.4 14.3241V13.0001H23.8C24.4614 12.9968 24.9967 12.4615 25 11.8001C25 11.1374 24.4627 10.6001 23.8 10.6001H23.4V9.00014H23.8C24.4614 8.99687 24.9967 8.46153 25 7.80014C25 7.13741 24.4627 6.60014 23.8 6.60014H23.4V5.00016H23.8V5.00012ZM23.8 3.40014C24.0209 3.40014 24.2 3.57923 24.2 3.80012C24.2003 3.90799 24.156 4.01122 24.0776 4.08531C24.0044 4.15948 23.9042 4.2009 23.8 4.20011H23.4V3.40014H23.8ZM21.8 2.20014C21.8 1.97924 21.9791 1.80015 22.2 1.80015C22.3077 1.8 22.4108 1.84429 22.4848 1.92255C22.5594 1.9955 22.601 2.09577 22.6 2.20014V14.4865C22.4604 14.5313 22.3288 14.5773 22.2 14.6229C22.0712 14.6685 21.9372 14.7153 21.8 14.7585V2.20014ZM18.6 5.00012V6.6001H17.8V5.00012H18.6ZM21 5.00012V6.6001H19.4V5.00012H21ZM15.4 12.2001V11.4001H21V12.2001H15.4ZM21 7.40011V8.20012H15.4V7.40011H21ZM17.8 10.6001V9.00014H18.6V10.6001H17.8ZM15.4 10.6001V9.00014H17V10.6001H15.4ZM19.4 9.0001H21V10.6001H19.4V9.0001ZM17 6.6001H15.4V5.00012H17V6.6001ZM15.4 13.0001H17V14.3429C16.5171 14.2414 16.0245 14.1935 15.5312 14.2001C15.486 14.2001 15.444 14.2053 15.3999 14.2069V13.0001H15.4ZM17.8 13.0001H18.6V14.8353C18.36 14.7729 18.1472 14.6989 17.9316 14.6229L17.8 14.5769V13.0001ZM19.4 13.0001H21V14.9397C20.6903 14.982 20.3781 15.0021 20.0656 15.0001C19.8156 15.0001 19.5975 14.9893 19.4 14.9713V13.0001H19.4ZM17.8 2.20014C17.8 1.97924 17.9791 1.80015 18.2 1.80015C18.3077 1.8 18.4107 1.84429 18.4848 1.92255C18.5594 1.9955 18.601 2.09577 18.5999 2.20014V2.60013H17.7999V2.20014H17.8ZM21 3.40014V4.20015H15.4V3.40014H21ZM13.8 2.20014C13.8 1.97924 13.9791 1.80015 14.2 1.80015C14.3077 1.8 14.4108 1.84429 14.4848 1.92255C14.5594 1.9955 14.601 2.09577 14.6 2.20014V14.3221C14.3254 14.393 14.0577 14.4881 13.8 14.6065V2.20014H13.8ZM11.658 9.0001H13V10.6001H11.7932C11.7932 10.5549 11.8 10.5117 11.8 10.4657C11.8065 9.97345 11.7589 9.48197 11.658 9.0001ZM13 6.6001H11.0292C11.0108 6.40212 11 6.18291 11 5.93131C10.998 5.6199 11.0181 5.30869 11.06 5.00012H13V6.6001ZM13 7.40011V8.20012H11.4244C11.4084 8.15532 11.3928 8.10973 11.3772 8.06533C11.3016 7.85092 11.2276 7.63971 11.1656 7.40011H13ZM11.6776 11.4001H13V12.2001H11.3924C11.5109 11.9424 11.6063 11.6746 11.6776 11.4001ZM10.9784 13.0001H13V15.0205C12.0944 15.5177 11.68 15.6821 11 15.0001C10.32 14.3181 10.482 13.9045 10.9784 13.0001ZM13 4.20011H11.24C11.2832 4.06252 11.3296 3.9313 11.3764 3.80012C11.4232 3.66891 11.4676 3.54053 11.512 3.40014H13V4.20011ZM24.2 15.9241V23.0001C24.2 23.6628 23.6627 24.2001 23 24.2001H3.00001C2.33728 24.2001 1.80001 23.6628 1.80001 23.0001V3.00011C1.80001 2.33738 2.33728 1.80012 3.00001 1.80012H10.076C10.3213 1.80039 10.5529 1.91291 10.7048 2.10546C10.8567 2.29805 10.9121 2.54954 10.8552 2.78811C10.7911 3.04011 10.7136 3.28845 10.6228 3.5321C10.3254 4.29648 10.1817 5.11208 10.2 5.9321C10.1817 6.75211 10.3253 7.56771 10.6228 8.33209C10.8893 9.01108 11.0175 9.73649 11 10.4657C10.9606 11.2107 10.7225 11.9317 10.3104 12.5537C9.83044 13.4257 9.28361 14.4145 10.434 15.5657C11.5844 16.7168 12.5724 16.1713 13.4445 15.6897C14.066 15.2776 14.7866 15.0395 15.5312 15.0001C16.2607 14.9826 16.9863 15.1108 17.6656 15.3773C18.43 15.6749 19.2456 15.8186 20.0656 15.8001C20.8857 15.8186 21.7013 15.6747 22.4656 15.3768C22.71 15.2861 22.959 15.2085 23.2116 15.1444C23.4503 15.0877 23.7018 15.1433 23.8944 15.2952C24.087 15.4471 24.1996 15.6788 24.2 15.9241ZM23.8 11.4001C24.0209 11.4001 24.2 11.5792 24.2 11.8001C24.2003 11.9079 24.156 12.0112 24.0776 12.0853C24.0044 12.1594 23.9042 12.2008 23.8 12.2001H23.4V11.4001H23.8V11.4001ZM23.8 7.40011C24.0209 7.40011 24.2 7.5792 24.2 7.8001C24.2003 7.90797 24.156 8.01119 24.0776 8.08529C24.0044 8.15946 23.9042 8.20087 23.8 8.20009H23.4V7.40007H23.8V7.40011Z" stroke="#7F8B25" stroke-width="0.4" mask="url(#path-1-outside-1_64_922)"/>
<path d="M4.2 20.6C3.53727 20.6 3 21.1372 3 21.8C3 22.4627 3.53727 23 4.2 23C4.86273 23 5.4 22.4627 5.4 21.8C5.4 21.1372 4.86273 20.6 4.2 20.6ZM4.2 22.2C3.9791 22.2 3.80001 22.0209 3.80001 21.8C3.80001 21.5791 3.9791 21.4 4.2 21.4C4.4209 21.4 4.59998 21.5791 4.59998 21.8C4.59998 22.0209 4.4209 22.2 4.2 22.2Z" fill="#7F8B25"/>
<path d="M8.2 3C7.53727 3 7 3.53727 7 4.2C7 4.86273 7.53727 5.4 8.2 5.4C8.86273 5.4 9.4 4.86273 9.4 4.2C9.4 3.53727 8.86277 3 8.2 3ZM8.2 4.60002C7.9791 4.60002 7.80001 4.42094 7.80001 4.20004C7.80001 3.97914 7.9791 3.80005 8.2 3.80005C8.4209 3.80005 8.59998 3.97914 8.59998 4.20004C8.60002 4.42094 8.42094 4.60002 8.2 4.60002Z" fill="#7F8B25"/>
<path d="M4.59921 19.8001C4.82011 19.8001 4.99919 19.621 4.99919 19.4001C4.99919 19.1792 4.82011 19.0001 4.59921 19.0001C4.3783 19.0001 4.19922 19.1792 4.19922 19.4001C4.19922 19.621 4.3783 19.8001 4.59921 19.8001Z" fill="#7F8B25"/>
<path d="M7.39999 7.00005C7.62089 7.00005 7.79997 6.82097 7.79997 6.60006C7.79997 6.37915 7.62089 6.20007 7.39999 6.20007C7.17908 6.20007 7 6.37915 7 6.60006C7 6.82097 7.17908 7.00005 7.39999 7.00005Z" fill="#7F8B25"/>
<path d="M22.5992 17.4001C22.8201 17.4001 22.9992 17.221 22.9992 17.0001C22.9992 16.7792 22.8201 16.6001 22.5992 16.6001C22.3783 16.6001 22.1992 16.7792 22.1992 17.0001C22.1992 17.221 22.3783 17.4001 22.5992 17.4001Z" fill="#7F8B25"/>
<path fill-rule="evenodd" clip-rule="evenodd" d="M20.3523 20.6844C20.2242 20.7837 20.1687 20.9503 20.2116 21.1065C20.2544 21.2627 20.3872 21.3776 20.548 21.3976C20.7087 21.4175 20.8656 21.3386 20.9454 21.1977C21.0252 21.0568 21.0121 20.8816 20.9123 20.7541C20.7766 20.5807 20.5263 20.5496 20.3523 20.6844Z" fill="#7F8B25"/>
<path fill-rule="evenodd" clip-rule="evenodd" d="M19.5534 16.6844C19.4254 16.7837 19.3699 16.9503 19.4127 17.1065C19.4556 17.2627 19.5884 17.3776 19.7491 17.3976C19.9099 17.4175 20.0668 17.3386 20.1466 17.1977C20.2264 17.0568 20.2133 16.8816 20.1135 16.7541C19.9777 16.5807 19.7274 16.5496 19.5534 16.6844Z" fill="#7F8B25"/>
</svg>
