<svg width="24" height="26" viewBox="0 0 24 26" fill="none" xmlns="http://www.w3.org/2000/svg">
<mask id="path-1-outside-1_64_939" maskUnits="userSpaceOnUse" x="-0.507812" y="-1" width="25" height="28" fill="black">
<rect fill="white" x="-0.507812" y="-1" width="25" height="28"/>
<path d="M22.1311 3.27666H21.5077V1.37617C21.5077 0.617348 20.8903 0 20.1315 0H3.3886C2.62977 0 2.01243 0.617348 2.01243 1.37617V1.55624H0.873809C0.663016 1.55624 0.492188 1.72707 0.492188 1.93786V5.3787C0.492188 5.58949 0.663016 5.76032 0.873809 5.76032H2.01243V5.94044C2.01243 6.69927 2.62977 7.31661 3.3886 7.31661H5.88942V9.21634C5.88942 10.0478 6.56588 10.7243 7.39737 10.7243C8.22881 10.7243 8.90527 10.0478 8.90527 9.21634V7.31661H14.8249C15.0357 7.31661 15.2065 7.14578 15.2065 6.93499C15.2065 6.7242 15.0357 6.55337 14.8249 6.55337H8.90522V3.39706C8.90522 2.98645 9.23931 2.65241 9.64993 2.65241C10.0605 2.65241 10.3946 2.98645 10.3946 3.39706V4.25242C10.3946 5.08386 11.071 5.76032 11.9025 5.76032C12.734 5.76032 13.4104 5.08386 13.4104 4.25242V0.763242H20.1315C20.4695 0.763242 20.7445 1.03822 20.7445 1.37617V5.94044C20.7445 6.27844 20.4695 6.55342 20.1315 6.55342H16.3513C16.1405 6.55342 15.9697 6.72425 15.9697 6.93504C15.9697 7.14584 16.1405 7.31666 16.3513 7.31666H20.1315C20.8903 7.31666 21.5077 6.69937 21.5077 5.94049V4.0399H22.1311C22.4691 4.0399 22.7441 4.31488 22.7441 4.65283V7.58738C22.7441 7.88582 22.5307 8.13973 22.2368 8.19112L12.9649 9.81404C12.305 9.92951 11.826 10.4996 11.826 11.1696V12.499H10.7436C10.5328 12.499 10.362 12.6698 10.362 12.8806V14.314H10.2792C10.0684 14.314 9.89754 14.4848 9.89754 14.6956V23.69C9.89754 24.9637 10.9338 26 12.2076 26C13.4813 26 14.5176 24.9637 14.5176 23.69V20.6916C14.5176 20.4808 14.3468 20.31 14.136 20.31C13.9252 20.31 13.7544 20.4808 13.7544 20.6916V23.69C13.7544 24.5429 13.0605 25.2368 12.2075 25.2368C11.3546 25.2368 10.6607 24.5429 10.6607 23.69V15.0772H13.7544V19.1652C13.7544 19.376 13.9252 19.5468 14.136 19.5468C14.3468 19.5468 14.5176 19.376 14.5176 19.1652V14.6955C14.5176 14.4847 14.3468 14.3139 14.136 14.3139H14.0531V12.8806C14.0531 12.6698 13.8823 12.4989 13.6715 12.4989H12.5891V11.1695C12.5891 10.8711 12.8025 10.6172 13.0964 10.5658L22.3683 8.94288C23.0282 8.82741 23.5073 8.25734 23.5073 7.58733V4.65283C23.5074 3.89401 22.89 3.27666 22.1311 3.27666V3.27666ZM1.25543 4.99708V2.31943H2.01243V4.99708H1.25543ZM12.6472 4.25242C12.6472 4.66304 12.3132 4.99708 11.9026 4.99708C11.492 4.99708 11.1578 4.66304 11.1578 4.25242V3.39706C11.1578 2.56562 10.4814 1.88916 9.64993 1.88916C8.81843 1.88916 8.14198 2.56562 8.14198 3.39706V9.21629C8.14198 9.62691 7.80789 9.961 7.39727 9.961C6.98665 9.961 6.65261 9.62691 6.65261 9.21629V4.42152C6.65261 4.21073 6.48178 4.0399 6.27099 4.0399C6.0602 4.0399 5.88937 4.21073 5.88937 4.42152V6.55337H3.3886C3.05065 6.55337 2.77567 6.27839 2.77567 5.94039V1.37617C2.77567 1.03817 3.05065 0.763242 3.3886 0.763242H5.88942V2.89509C5.88942 3.10588 6.06025 3.27671 6.27104 3.27671C6.48184 3.27671 6.65266 3.10588 6.65266 2.89509V0.763191H12.6472V4.25242ZM13.29 14.314H11.1252V13.2622H13.29V14.314Z"/>
</mask>
<path d="M22.1311 3.27666H21.5077V1.37617C21.5077 0.617348 20.8903 0 20.1315 0H3.3886C2.62977 0 2.01243 0.617348 2.01243 1.37617V1.55624H0.873809C0.663016 1.55624 0.492188 1.72707 0.492188 1.93786V5.3787C0.492188 5.58949 0.663016 5.76032 0.873809 5.76032H2.01243V5.94044C2.01243 6.69927 2.62977 7.31661 3.3886 7.31661H5.88942V9.21634C5.88942 10.0478 6.56588 10.7243 7.39737 10.7243C8.22881 10.7243 8.90527 10.0478 8.90527 9.21634V7.31661H14.8249C15.0357 7.31661 15.2065 7.14578 15.2065 6.93499C15.2065 6.7242 15.0357 6.55337 14.8249 6.55337H8.90522V3.39706C8.90522 2.98645 9.23931 2.65241 9.64993 2.65241C10.0605 2.65241 10.3946 2.98645 10.3946 3.39706V4.25242C10.3946 5.08386 11.071 5.76032 11.9025 5.76032C12.734 5.76032 13.4104 5.08386 13.4104 4.25242V0.763242H20.1315C20.4695 0.763242 20.7445 1.03822 20.7445 1.37617V5.94044C20.7445 6.27844 20.4695 6.55342 20.1315 6.55342H16.3513C16.1405 6.55342 15.9697 6.72425 15.9697 6.93504C15.9697 7.14584 16.1405 7.31666 16.3513 7.31666H20.1315C20.8903 7.31666 21.5077 6.69937 21.5077 5.94049V4.0399H22.1311C22.4691 4.0399 22.7441 4.31488 22.7441 4.65283V7.58738C22.7441 7.88582 22.5307 8.13973 22.2368 8.19112L12.9649 9.81404C12.305 9.92951 11.826 10.4996 11.826 11.1696V12.499H10.7436C10.5328 12.499 10.362 12.6698 10.362 12.8806V14.314H10.2792C10.0684 14.314 9.89754 14.4848 9.89754 14.6956V23.69C9.89754 24.9637 10.9338 26 12.2076 26C13.4813 26 14.5176 24.9637 14.5176 23.69V20.6916C14.5176 20.4808 14.3468 20.31 14.136 20.31C13.9252 20.31 13.7544 20.4808 13.7544 20.6916V23.69C13.7544 24.5429 13.0605 25.2368 12.2075 25.2368C11.3546 25.2368 10.6607 24.5429 10.6607 23.69V15.0772H13.7544V19.1652C13.7544 19.376 13.9252 19.5468 14.136 19.5468C14.3468 19.5468 14.5176 19.376 14.5176 19.1652V14.6955C14.5176 14.4847 14.3468 14.3139 14.136 14.3139H14.0531V12.8806C14.0531 12.6698 13.8823 12.4989 13.6715 12.4989H12.5891V11.1695C12.5891 10.8711 12.8025 10.6172 13.0964 10.5658L22.3683 8.94288C23.0282 8.82741 23.5073 8.25734 23.5073 7.58733V4.65283C23.5074 3.89401 22.89 3.27666 22.1311 3.27666V3.27666ZM1.25543 4.99708V2.31943H2.01243V4.99708H1.25543ZM12.6472 4.25242C12.6472 4.66304 12.3132 4.99708 11.9026 4.99708C11.492 4.99708 11.1578 4.66304 11.1578 4.25242V3.39706C11.1578 2.56562 10.4814 1.88916 9.64993 1.88916C8.81843 1.88916 8.14198 2.56562 8.14198 3.39706V9.21629C8.14198 9.62691 7.80789 9.961 7.39727 9.961C6.98665 9.961 6.65261 9.62691 6.65261 9.21629V4.42152C6.65261 4.21073 6.48178 4.0399 6.27099 4.0399C6.0602 4.0399 5.88937 4.21073 5.88937 4.42152V6.55337H3.3886C3.05065 6.55337 2.77567 6.27839 2.77567 5.94039V1.37617C2.77567 1.03817 3.05065 0.763242 3.3886 0.763242H5.88942V2.89509C5.88942 3.10588 6.06025 3.27671 6.27104 3.27671C6.48184 3.27671 6.65266 3.10588 6.65266 2.89509V0.763191H12.6472V4.25242ZM13.29 14.314H11.1252V13.2622H13.29V14.314Z" fill="#7F8B25"/>
<path d="M22.1311 3.27666H21.5077V1.37617C21.5077 0.617348 20.8903 0 20.1315 0H3.3886C2.62977 0 2.01243 0.617348 2.01243 1.37617V1.55624H0.873809C0.663016 1.55624 0.492188 1.72707 0.492188 1.93786V5.3787C0.492188 5.58949 0.663016 5.76032 0.873809 5.76032H2.01243V5.94044C2.01243 6.69927 2.62977 7.31661 3.3886 7.31661H5.88942V9.21634C5.88942 10.0478 6.56588 10.7243 7.39737 10.7243C8.22881 10.7243 8.90527 10.0478 8.90527 9.21634V7.31661H14.8249C15.0357 7.31661 15.2065 7.14578 15.2065 6.93499C15.2065 6.7242 15.0357 6.55337 14.8249 6.55337H8.90522V3.39706C8.90522 2.98645 9.23931 2.65241 9.64993 2.65241C10.0605 2.65241 10.3946 2.98645 10.3946 3.39706V4.25242C10.3946 5.08386 11.071 5.76032 11.9025 5.76032C12.734 5.76032 13.4104 5.08386 13.4104 4.25242V0.763242H20.1315C20.4695 0.763242 20.7445 1.03822 20.7445 1.37617V5.94044C20.7445 6.27844 20.4695 6.55342 20.1315 6.55342H16.3513C16.1405 6.55342 15.9697 6.72425 15.9697 6.93504C15.9697 7.14584 16.1405 7.31666 16.3513 7.31666H20.1315C20.8903 7.31666 21.5077 6.69937 21.5077 5.94049V4.0399H22.1311C22.4691 4.0399 22.7441 4.31488 22.7441 4.65283V7.58738C22.7441 7.88582 22.5307 8.13973 22.2368 8.19112L12.9649 9.81404C12.305 9.92951 11.826 10.4996 11.826 11.1696V12.499H10.7436C10.5328 12.499 10.362 12.6698 10.362 12.8806V14.314H10.2792C10.0684 14.314 9.89754 14.4848 9.89754 14.6956V23.69C9.89754 24.9637 10.9338 26 12.2076 26C13.4813 26 14.5176 24.9637 14.5176 23.69V20.6916C14.5176 20.4808 14.3468 20.31 14.136 20.31C13.9252 20.31 13.7544 20.4808 13.7544 20.6916V23.69C13.7544 24.5429 13.0605 25.2368 12.2075 25.2368C11.3546 25.2368 10.6607 24.5429 10.6607 23.69V15.0772H13.7544V19.1652C13.7544 19.376 13.9252 19.5468 14.136 19.5468C14.3468 19.5468 14.5176 19.376 14.5176 19.1652V14.6955C14.5176 14.4847 14.3468 14.3139 14.136 14.3139H14.0531V12.8806C14.0531 12.6698 13.8823 12.4989 13.6715 12.4989H12.5891V11.1695C12.5891 10.8711 12.8025 10.6172 13.0964 10.5658L22.3683 8.94288C23.0282 8.82741 23.5073 8.25734 23.5073 7.58733V4.65283C23.5074 3.89401 22.89 3.27666 22.1311 3.27666V3.27666ZM1.25543 4.99708V2.31943H2.01243V4.99708H1.25543ZM12.6472 4.25242C12.6472 4.66304 12.3132 4.99708 11.9026 4.99708C11.492 4.99708 11.1578 4.66304 11.1578 4.25242V3.39706C11.1578 2.56562 10.4814 1.88916 9.64993 1.88916C8.81843 1.88916 8.14198 2.56562 8.14198 3.39706V9.21629C8.14198 9.62691 7.80789 9.961 7.39727 9.961C6.98665 9.961 6.65261 9.62691 6.65261 9.21629V4.42152C6.65261 4.21073 6.48178 4.0399 6.27099 4.0399C6.0602 4.0399 5.88937 4.21073 5.88937 4.42152V6.55337H3.3886C3.05065 6.55337 2.77567 6.27839 2.77567 5.94039V1.37617C2.77567 1.03817 3.05065 0.763242 3.3886 0.763242H5.88942V2.89509C5.88942 3.10588 6.06025 3.27671 6.27104 3.27671C6.48184 3.27671 6.65266 3.10588 6.65266 2.89509V0.763191H12.6472V4.25242ZM13.29 14.314H11.1252V13.2622H13.29V14.314Z" stroke="#7F8B25" stroke-width="0.4" mask="url(#path-1-outside-1_64_939)"/>
</svg>
