<svg width="186" height="58" viewBox="0 0 186 58" fill="none" xmlns="http://www.w3.org/2000/svg">
<path fill-rule="evenodd" clip-rule="evenodd" d="M67.2179 10.9889L70.8859 30.7709L74.6833 10.9889H90.5195V48.4175H102.559V57.1158H81.0655V23.5185L76.4911 46.1572H65.0482L60.8372 23.5185V46.1572H51.3557V10.9889H67.2179ZM97.7797 0H114.26V8.82267H102.559V10.9889H109.585C112.805 10.9889 114.364 12.4547 114.26 15.3849V41.7914C114.26 43.5711 113.68 44.8073 112.517 45.4982C111.774 45.9376 110.797 46.1572 109.585 46.1572H93.1036V4.42699C93.1036 1.47602 94.6617 0 97.7797 0ZM172.954 10.9889V16.4213L176.029 10.9889H186L176.648 28.5735L186 46.1572H176.029L172.954 40.787V46.1572H163.862V10.9889H172.954ZM156.782 10.9889C159.917 10.9889 161.484 12.475 161.484 15.4491V41.8566C161.484 43.6002 160.904 44.814 159.74 45.4982C158.995 45.9376 158.01 46.1572 156.782 46.1572H144.976C143.75 46.1572 142.764 45.9376 142.019 45.4982C140.856 44.814 140.275 43.6002 140.275 41.8566V15.4491C140.275 12.475 141.842 10.9889 144.976 10.9889H156.782ZM137.95 10.9889V46.1572H128.52V19.8764H126.171V52.7829C126.171 54.0797 125.62 55.1373 124.517 55.9543C123.587 56.7278 122.561 57.1158 121.442 57.1158H104.831V48.4175H116.844V15.4491C116.844 12.475 118.403 10.9889 121.519 10.9889H137.95ZM0 0.439354H41.7983V9.13687H25.2385V46.1572H15.81V9.13687H0V0.439354ZM44.2777 10.9889C47.412 10.9889 48.9803 12.475 48.9803 15.4491V48.4175H60.7853V57.1158H44.2777C43.2619 57.1158 42.2279 56.7278 41.1777 55.9543C40.0929 55.0328 39.5499 53.9758 39.5499 52.7829V32.9686H37.2514V46.1572H27.8216V15.4491C27.8216 12.475 29.389 10.9889 32.5242 10.9889H44.2777ZM39.5499 19.8764H37.2506V24.1779H39.5499V19.8764ZM149.729 37.4288H152.029V19.8764H149.729V37.4288ZM102.559 37.3643H104.831V19.7812H102.559V37.3643Z" fill="#C80A3D"/>
</svg>
