<svg width="25" height="23" viewBox="0 0 25 23" fill="none" xmlns="http://www.w3.org/2000/svg">
<path d="M9.1107 4.77044C8.59227 4.4555 8.22516 4.09713 8.03056 3.69981L8.03055 3.69979C7.82062 3.27091 7.82732 2.81374 8.05548 2.41793L9.1107 4.77044ZM9.1107 4.77044C8.664 5.5806 8.30058 6.6621 8.04792 7.93054L8.04791 7.93055C8.00081 8.16721 8.15443 8.39728 8.39128 8.44438L8.39132 8.44438C8.41995 8.45006 8.44858 8.45279 8.47694 8.45279C8.6811 8.45279 8.86364 8.30911 8.90508 8.10123L8.90508 8.1012C9.18285 6.70609 9.59234 5.58326 10.0842 4.84835L10.0842 4.84832C10.1546 4.7432 10.1759 4.61263 10.1427 4.49047L10.1427 4.49042C10.1095 4.36845 10.025 4.26672 9.91083 4.21167L9.91075 4.21163C9.82105 4.16849 9.73149 4.12123 9.64488 4.07124L9.64482 4.07122C9.10661 3.76104 8.89706 3.4825 8.81542 3.31552L8.81541 3.31548C8.73038 3.14175 8.73404 2.99049 8.81258 2.85417L9.1107 4.77044ZM21.8758 4.30175C21.9675 4.2577 22.0593 4.2091 22.1484 4.15768L21.8758 4.30175ZM21.8758 4.30175C21.7878 4.34421 21.7227 4.42265 21.6969 4.51671M21.8758 4.30175L21.6969 4.51671M23.4895 7.02996C23.5503 7.26351 23.4101 7.50196 23.1766 7.56271L23.1764 7.56276C22.943 7.62299 22.7047 7.48342 22.6439 7.24984L22.6439 7.24982C22.3802 6.23579 22.0478 5.4292 21.6589 4.84836L21.6589 4.84832C21.5886 4.7432 21.5672 4.61263 21.6004 4.49047L21.6005 4.49026C21.6339 4.36845 21.7183 4.26677 21.8323 4.2117L21.8325 4.21159C21.9219 4.1687 22.0114 4.12128 22.0985 4.07106L22.0985 4.07104C22.4791 3.85174 22.7389 3.62338 22.876 3.40982C23.011 3.19965 23.0226 3.01375 22.9308 2.85419L10.7189 2.20678C11.0223 2.38152 11.3029 2.58594 11.5436 2.80668C12.7273 2.42479 14.302 2.23545 15.8716 2.23545C17.4412 2.23545 19.0159 2.42479 20.1997 2.80667C20.4403 2.58591 20.721 2.3815 21.0242 2.20679C21.5945 1.87812 22.1224 1.72099 22.5911 1.75357L22.5911 1.75358C23.0675 1.78697 23.4597 2.02211 23.6877 2.41794C23.8718 2.73724 23.9328 3.14215 23.7694 3.56835C23.6136 3.97453 23.2581 4.39018 22.6329 4.77018C22.9709 5.38115 23.2579 6.13945 23.4895 7.02996ZM23.4895 7.02996C23.4895 7.02996 23.4895 7.02996 23.4895 7.02997L23.3927 7.05514L23.4895 7.02996ZM11.5801 3.71794L11.58 3.71797C11.4153 3.77825 11.2308 3.73434 11.1109 3.60648C11.1109 3.60648 11.1109 3.60648 11.1109 3.60648L11.5801 3.71794ZM11.5801 3.71794C12.6764 3.3159 14.2703 3.11248 15.8715 3.11248C17.4728 3.11248 19.0668 3.3159 20.1632 3.71795L20.1633 3.71795M11.5801 3.71794L20.1633 3.71795M20.1633 3.71795C20.3277 3.77823 20.5125 3.73459 20.6325 3.60648L20.1633 3.71795ZM9.32083 2.62278C9.07127 2.61145 8.90456 2.69459 8.81258 2.85416L9.32083 2.62278ZM9.32083 2.62278C9.57438 2.63429 9.90226 2.7445 10.2829 2.96371L9.32083 2.62278ZM21.6969 4.51671C21.6713 4.61094 21.6878 4.71166 21.742 4.79273C22.1393 5.38619 22.4754 6.20443 22.7407 7.22465C22.7875 7.40469 22.9712 7.51243 23.1515 7.46593L21.6969 4.51671ZM9.01419 1.76964C9.46497 1.69861 10.0347 1.81249 10.7189 2.20677L9.01419 1.76964ZM9.01419 1.76964C8.56125 1.84101 8.24008 2.09747 8.05549 2.41791L9.01419 1.76964ZM22.53 2.62516C22.7231 2.63882 22.8521 2.7177 22.9307 2.85414L20.6325 3.60641C20.8523 3.37204 21.1385 3.14931 21.4605 2.96369C21.9985 2.65383 22.3449 2.61247 22.53 2.62516Z" fill="#C80A3D" stroke="#C80A3D" stroke-width="0.2"/>
<path d="M23.7867 8.4282L23.7867 8.42827C24.1205 10.3845 24.1905 12.5835 23.9845 14.6214C23.8438 16.0123 23.5145 17.8967 22.7389 19.2668C23.3153 19.6393 23.6418 20.0431 23.7819 20.4366C23.9291 20.8502 23.8663 21.2417 23.6874 21.5522L23.6874 21.5522C23.4593 21.9479 23.0672 22.1831 22.5909 22.2165M23.7867 8.4282L22.4676 22.2208C22.5087 22.2208 22.5499 22.2195 22.5909 22.2165M23.7867 8.4282C23.746 8.1904 23.5205 8.03074 23.2826 8.07099L23.2824 8.07102M23.7867 8.4282L23.2824 8.07102M22.5909 22.2165C22.5908 22.2165 22.5908 22.2165 22.5907 22.2165L22.5837 22.1168L22.591 22.2165C22.591 22.2165 22.5909 22.2165 22.5909 22.2165ZM23.2824 8.07102C23.0447 8.11174 22.8847 8.33739 22.9254 8.57526L23.2824 8.07102ZM21.9291 19.8069L21.9288 19.8068C21.8174 19.7491 21.736 19.6463 21.7055 19.5243C21.675 19.4024 21.6984 19.2733 21.7702 19.1699C22.4287 18.2181 22.8916 16.5805 23.1018 14.6664C23.3116 12.7559 23.2682 10.5844 22.9254 8.57532L21.9291 19.8069ZM21.9291 19.8069C21.9873 19.8369 22.0442 19.8679 22.0981 19.8989M21.9291 19.8069L22.0981 19.8989M21.4101 21.0929L21.4601 21.0062C21.9983 21.3164 22.3442 21.358 22.5295 21.3449C22.7226 21.3313 22.8516 21.2524 22.9303 21.116L21.4101 21.0929ZM21.4101 21.0929L21.4601 21.0062C21.1496 20.8273 20.8711 20.6129 20.6545 20.3873L20.6545 20.3873C20.5367 20.2647 20.3586 20.2215 20.1977 20.2765L20.1977 20.2765M21.4101 21.0929L20.1977 20.2765M20.1977 20.2765C19.9792 20.3514 19.7368 20.4211 19.4772 20.4834C19.2426 20.5398 19.098 20.7755 19.1544 21.0102M20.1977 20.2765L19.681 21.3331M19.681 21.3331L19.6809 21.3332C19.4464 21.3891 19.2106 21.2449 19.1544 21.0102M19.681 21.3331C19.8701 21.2877 20.0518 21.2386 20.2241 21.1862M19.681 21.3331L20.2241 21.1862M19.1544 21.0102L19.2516 20.9869L19.1544 21.0103C19.1544 21.0102 19.1544 21.0102 19.1544 21.0102ZM22.0981 19.8989C22.4787 20.1183 22.7385 20.3467 22.8756 20.5603C23.0105 20.7705 23.0222 20.9564 22.9303 21.1159L22.0981 19.8989ZM20.2241 21.1862C20.4593 21.3983 20.7315 21.595 21.0238 21.7633C21.5449 22.0637 22.0305 22.221 22.4676 22.2208L20.2241 21.1862Z" fill="#C80A3D" stroke="#C80A3D" stroke-width="0.2"/>
<path d="M20.2634 10.6534V8.68101C20.2634 7.82539 19.5672 7.12927 18.7114 7.12927H13.0283C12.1727 7.12927 11.4766 7.82539 11.4766 8.68101V10.6534C11.4766 11.509 12.1727 12.2051 13.0283 12.2051H18.7116C19.5672 12.2051 20.2634 11.509 20.2634 10.6534ZM19.5895 10.6534C19.5895 11.1375 19.1956 11.5313 18.7114 11.5313H13.0283C12.5442 11.5313 12.1504 11.1375 12.1504 10.6534V8.68101C12.1504 8.19704 12.5442 7.8031 13.0283 7.8031H18.7116C19.1956 7.8031 19.5895 8.19704 19.5895 8.68101V10.6534Z" fill="#C80A3D"/>
<path d="M7.2332 1.48625L7.23321 1.48631C7.38636 2.44406 7.07598 3.43192 6.41707 4.13459L9.11798 11.5547C10.2848 11.5763 11.3866 12.0282 12.2338 12.836C13.0322 13.5969 13.5263 14.598 13.6459 15.683C15.1785 16.1259 16.2988 17.4622 16.4749 19.0434H16.935C17.8855 19.0434 18.6587 19.8166 18.6587 20.7671V21.6352C18.6587 21.9582 18.3959 22.2207 18.0729 22.2207H1.48572C1.16276 22.2207 0.9 21.9582 0.9 21.6352V20.7671C0.9 19.8166 1.67317 19.0434 2.62368 19.0436H2.86113C3.0086 18.1341 3.60882 17.3531 4.45068 16.9774C4.39461 16.646 4.3746 16.3083 4.39104 15.9691L4.39104 15.9691C4.40503 15.6814 4.44628 15.3939 4.51355 15.1146L4.51357 15.1145C4.57024 14.8799 4.80625 14.7359 5.04074 14.7923L5.04085 14.7923C5.27511 14.8489 5.41971 15.0848 5.36304 15.3194C5.30853 15.5454 5.27503 15.7784 5.26375 16.0114C5.24511 16.3972 5.28429 16.7799 5.38016 17.1493C5.44024 17.3805 5.30323 17.6172 5.07271 17.6802C4.26444 17.9015 3.69968 18.642 3.69968 19.4805C3.69968 19.7217 3.504 19.9174 3.26276 19.9174H2.6235C2.15511 19.9174 1.77383 20.2987 1.77383 20.7671V21.3471H17.7848V20.7671C17.7848 20.2987 17.4036 19.9174 16.935 19.9174H16.0623C15.8209 19.9174 15.6254 19.7217 15.6254 19.4805C15.6253 18.0153 14.5835 16.7452 13.1491 16.4607L13.1491 16.4607C12.9508 16.4214 12.8053 16.2512 12.7975 16.0491C12.7591 15.0654 12.345 14.1493 11.631 13.4684C9.91522 11.8328 7.12011 12.1603 5.83356 14.2058L5.83352 14.2058C5.70499 14.4099 5.43537 14.4714 5.23119 14.343L5.23117 14.343C5.02687 14.2144 4.9654 13.9448 5.09397 13.7404M7.2332 1.48625L5.17861 13.7937M7.2332 1.48625C7.19198 1.22938 7.03941 1.00601 6.81491 0.874035C6.59023 0.741882 6.32063 0.717063 6.07566 0.806248C6.07566 0.806249 6.07565 0.80625 6.07565 0.806251L1.88336 2.33219L1.88335 2.33219C1.63842 2.42137 1.44778 2.6136 1.36059 2.85931M7.2332 1.48625L1.91756 2.42616C1.70068 2.50512 1.53204 2.67516 1.45483 2.89275M5.09397 13.7404L5.17861 13.7937M5.09397 13.7404C5.09397 13.7404 5.09397 13.7404 5.09396 13.7404L5.17861 13.7937M5.09397 13.7404C5.44125 13.1883 5.88939 12.7251 6.40597 12.3692M5.17861 13.7937C5.5329 13.2304 5.99422 12.7619 6.52662 12.4083M6.40597 12.3692L6.43265 12.4425L6.52662 12.4083M6.40597 12.3692L3.76088 5.10125M6.40597 12.3692C6.42762 12.3543 6.4494 12.3395 6.47129 12.325L6.52662 12.4083M6.52662 12.4083L3.76088 5.10125M3.76088 5.10125C3.78178 5.10376 3.80272 5.10606 3.8237 5.10815L3.83359 5.00864L3.73962 5.04284L3.76088 5.10125ZM3.76088 5.10125C2.8046 4.98642 1.9321 4.42918 1.4338 3.59725L1.43376 3.5972C1.3002 3.37387 1.2734 3.10467 1.36059 2.85931M3.76088 5.10125L1.51958 3.54587C1.40131 3.34811 1.37762 3.10999 1.45483 2.89275M1.36059 2.85931L1.45483 2.89275M1.36059 2.85931C1.3606 2.85929 1.3606 2.85927 1.36061 2.85926L1.45483 2.89275M5.01735 14.8895C4.83643 14.846 4.65446 14.9571 4.61077 15.138L5.01735 14.8895ZM2.18576 3.15193L6.37098 1.62857C6.53913 2.69235 5.93135 3.7382 4.90489 4.11169L4.90489 4.11169C4.63929 4.20835 4.36288 4.2539 4.08362 4.24904C3.3103 4.23341 2.58314 3.81277 2.18576 3.15193ZM7.17932 11.9391L4.68108 5.07409L5.20385 4.93293C5.37503 4.87071 5.53907 4.79454 5.69498 4.7052L8.21391 11.6259C7.85569 11.6897 7.50878 11.7953 7.17932 11.9391Z" fill="#C80A3D" stroke="#C80A3D" stroke-width="0.2"/>
<path d="M11.7072 18.2188C11.8467 18.1245 12.0099 18.0747 12.1792 18.0747C12.6451 18.0747 13.0241 18.4537 13.0241 18.9196C13.0241 19.1056 13.175 19.2565 13.361 19.2565C13.5472 19.2565 13.6979 19.1056 13.6979 18.9196C13.6979 18.0821 13.0167 17.4009 12.1792 17.4009C11.8749 17.4009 11.5812 17.4905 11.3299 17.6604C11.1758 17.7646 11.1353 17.974 11.2393 18.1282C11.3436 18.2823 11.5529 18.3228 11.7072 18.2188Z" fill="#C80A3D"/>
<path d="M5.64855 18.9337C5.53607 19.0819 5.5652 19.2932 5.71365 19.4055C5.77437 19.4517 5.84579 19.4739 5.91668 19.4739C6.01863 19.4739 6.11935 19.428 6.18551 19.3404C6.3308 19.1488 6.55173 19.0389 6.79195 19.0389C6.97761 19.0389 7.15642 19.1065 7.29539 19.2293C7.43472 19.3527 7.64757 19.3395 7.77076 19.2002C7.89412 19.0609 7.88113 18.848 7.74163 18.7247C7.47947 18.4929 7.1422 18.3651 6.79195 18.3651C6.33905 18.3651 5.92229 18.5723 5.64855 18.9337Z" fill="#C80A3D"/>
<path d="M7.86612 15.5135C7.99422 15.5135 8.11653 15.4399 8.17303 15.3159C8.21111 15.2318 8.26533 15.1571 8.33394 15.0939C8.614 14.8358 9.05182 14.8538 9.30994 15.1339C9.43593 15.2706 9.64914 15.2794 9.78601 15.1534C9.92288 15.0272 9.93165 14.8142 9.80549 14.6773C9.29573 14.124 8.43081 14.0886 7.87735 14.5983C7.74206 14.7231 7.63502 14.8707 7.55957 15.0372C7.48253 15.2067 7.55764 15.4064 7.72697 15.4833C7.77224 15.5038 7.81945 15.5135 7.86612 15.5135Z" fill="#C80A3D"/>
</svg>
