<svg width="19" height="19" viewBox="0 0 19 19" fill="none" xmlns="http://www.w3.org/2000/svg">
<mask id="path-1-outside-1_64_898" maskUnits="userSpaceOnUse" x="-1" y="-1" width="21" height="21" fill="black">
<rect fill="white" x="-1" y="-1" width="21" height="21"/>
<path d="M18.7178 0H0.28218C0.126357 0 0 0.126357 0 0.28218V18.7178C0 18.8736 0.126357 19 0.28218 19H18.7178C18.8736 19 19 18.8736 19 18.7178V0.28218C19 0.126357 18.8736 0 18.7178 0ZM13.9772 0.564359C13.6347 0.644664 13.2918 0.733133 12.9489 0.830397C11.4083 1.26729 9.86297 1.87525 8.35514 2.63718C8.18395 2.52923 7.86051 2.31039 7.52485 2.00483C7.1519 1.66532 6.70236 1.15904 6.51162 0.564359H13.9772V0.564359ZM5.92499 0.564359C6.19931 1.68016 7.20163 2.52518 7.78306 2.93439C6.09069 3.83889 4.91046 4.69252 4.3982 5.08614C3.43388 3.13077 1.81457 1.38503 0.987295 0.564359H5.92499ZM0.564359 0.942875C1.37527 1.74885 3.03729 3.53474 3.95504 5.46536C2.62 6.7342 1.18527 7.18593 0.564359 7.33081V0.942875V0.942875ZM0.564359 7.91031C1.13885 7.79379 2.60987 7.38996 4.05717 6.13481C4.07361 6.45417 4.08686 6.89771 4.07903 7.44299C4.07676 7.59881 4.2013 7.72695 4.35712 7.72914C4.35853 7.72914 4.35987 7.72918 4.36128 7.72918C4.51525 7.72918 4.64112 7.60545 4.64335 7.45104C4.65626 6.55188 4.61448 5.92748 4.59062 5.65235C4.83313 5.46079 5.45274 4.98917 6.37324 4.4077C6.35357 4.71953 6.34748 5.13338 6.39209 5.59936C6.51184 6.84995 6.94862 7.91747 7.65878 8.70163C7.25696 9.46118 6.89704 10.36 6.68407 11.3821C5.63524 10.9325 4.80214 10.6709 4.40934 10.5575C4.50857 9.81532 4.5692 9.1351 4.60397 8.53363C4.61296 8.37807 4.49417 8.24466 4.33853 8.23565C4.18286 8.22641 4.04956 8.34545 4.04054 8.50109C3.97464 9.64157 3.81466 11.069 3.46672 12.6727C2.36082 12.7736 1.19641 13.5665 0.564434 14.0636V7.91031H0.564359ZM9.69148 12.9722C10.7696 11.7987 12.5933 11.7329 13.3239 11.7585C13.1761 12.9492 12.9472 14.2043 12.5955 15.3728C11.7022 14.4057 10.681 13.6107 9.69148 12.9722ZM10.8366 14.4973C8.2309 15.9858 4.31593 16.1102 3.08034 16.11C3.71387 14.3044 4.09862 12.6055 4.32773 11.1228C5.27491 11.4055 8.28693 12.4169 10.8366 14.4973ZM11.7883 11.3044C11.5113 10.6864 10.6204 8.90866 9.02448 7.59414C9.0908 7.50511 9.15618 7.42006 9.21986 7.33971C9.96884 6.39532 10.6576 5.85122 10.7673 5.76702C10.9247 5.68486 12.0498 5.10926 13.5184 4.6396C13.5667 5.4422 13.6583 7.51702 13.5006 9.88623C13.4728 10.3034 13.4362 10.7429 13.3884 11.1957C13.0354 11.1801 12.4443 11.1827 11.7883 11.3044ZM11.2267 11.437C10.3795 11.6803 9.70217 12.0933 9.20617 12.6696C8.52855 12.2613 7.87895 11.9271 7.3114 11.6627C7.27811 11.6472 7.24527 11.6322 7.21224 11.617C7.49684 10.1532 8.10539 8.94807 8.6984 8.05704C10.0902 9.21901 10.924 10.7926 11.2267 11.437ZM0.564359 18.4356V14.7966C0.726045 14.6555 1.09291 14.3489 1.55945 14.0432C2.21376 13.6145 2.81835 13.3484 3.33242 13.2597C2.94741 14.8641 2.37188 16.6236 1.51967 18.4356H0.564359V18.4356ZM2.14251 18.4356C2.415 17.8411 2.65826 17.2527 2.87575 16.6737C2.94359 16.6747 3.02694 16.6754 3.12479 16.6754C3.67138 16.6754 4.66261 16.6516 5.83808 16.5147C8.11408 16.2494 9.94691 15.7011 11.2913 14.8845C11.6768 15.2274 12.0474 15.5966 12.3939 15.9932C12.0728 16.9084 11.6666 17.7492 11.1531 18.4356H2.14251ZM11.8425 18.4356C12.4732 17.4818 12.9824 16.2405 13.3589 14.7356C13.4592 14.3347 13.55 13.9141 13.6318 13.4761C13.893 13.3639 14.5433 13.1137 15.3765 13.0013C15.3926 13.9388 15.5238 16.6941 16.4819 18.4356H11.8425V18.4356ZM18.4356 12.8296C18.22 12.7362 17.9977 12.6567 17.7709 12.5925C17.621 12.5502 17.465 12.6373 17.4226 12.7872C17.3802 12.9372 17.4673 13.0932 17.6173 13.1356C17.8997 13.2154 18.1742 13.3218 18.4356 13.4519V18.4357H17.1403C16.0907 16.854 15.9571 13.8503 15.9411 12.9506C16.2159 12.9385 16.5035 12.9446 16.7981 12.977C16.953 12.9941 17.0924 12.8822 17.1094 12.7273C17.1265 12.5724 17.0146 12.433 16.8598 12.416C15.5398 12.271 14.3737 12.5932 13.7448 12.8231C13.8887 11.9201 13.9957 10.9484 14.0642 9.91603C14.0702 9.82675 14.0757 9.73791 14.0809 9.64951C14.2754 9.47588 14.9599 8.84405 15.6939 7.9243C15.7422 7.86377 15.7894 7.80336 15.836 7.74302C16.1595 8.3102 16.9042 9.27723 18.4356 9.89714V12.8296V12.8296ZM14.0733 4.47264C15.0305 4.20312 16.09 4.00303 17.1035 4.01468C16.8091 5.39689 15.9525 6.69401 15.2596 7.56371C14.8345 8.09708 14.4212 8.53467 14.1208 8.83329C14.2009 6.76971 14.1123 5.07293 14.0733 4.47264ZM18.4356 9.28328C16.9601 8.61524 16.3754 7.59054 16.2102 7.23573C16.9839 6.13299 17.4747 5.06339 17.6737 4.04477C17.9338 4.07027 18.1886 4.11254 18.4356 4.17358V9.28328V9.28328ZM18.4356 3.59408C17.0524 3.28834 15.3324 3.46101 13.3154 4.10964C12.465 4.38314 11.7351 4.68729 11.229 4.91699L11.7237 3.90695C11.7923 3.76697 11.7344 3.59798 11.5945 3.5294C11.4546 3.46086 11.2855 3.51871 11.2169 3.65869L10.3911 5.34438C10.1954 5.49735 9.52631 6.04827 8.78995 6.97359C8.52558 7.30576 8.23579 7.70962 7.95354 8.1792C6.72782 6.68288 6.90758 4.56664 6.97582 4.03817C7.45234 3.75462 7.98842 3.45544 8.57761 3.15675C9.76927 2.55261 10.9845 2.04732 12.2015 1.64888L11.661 2.75211C11.5925 2.89208 11.6503 3.06108 11.7903 3.12966C11.8303 3.14921 11.8726 3.15849 11.9143 3.15849C12.0185 3.15849 12.1188 3.10041 12.1679 3.0004L12.9421 1.41999C12.9957 1.40437 13.0493 1.38845 13.1029 1.37327C14.8987 0.86398 16.6912 0.593379 18.4356 0.56692V3.59408V3.59408Z"/>
</mask>
<path d="M18.7178 0H0.28218C0.126357 0 0 0.126357 0 0.28218V18.7178C0 18.8736 0.126357 19 0.28218 19H18.7178C18.8736 19 19 18.8736 19 18.7178V0.28218C19 0.126357 18.8736 0 18.7178 0ZM13.9772 0.564359C13.6347 0.644664 13.2918 0.733133 12.9489 0.830397C11.4083 1.26729 9.86297 1.87525 8.35514 2.63718C8.18395 2.52923 7.86051 2.31039 7.52485 2.00483C7.1519 1.66532 6.70236 1.15904 6.51162 0.564359H13.9772V0.564359ZM5.92499 0.564359C6.19931 1.68016 7.20163 2.52518 7.78306 2.93439C6.09069 3.83889 4.91046 4.69252 4.3982 5.08614C3.43388 3.13077 1.81457 1.38503 0.987295 0.564359H5.92499ZM0.564359 0.942875C1.37527 1.74885 3.03729 3.53474 3.95504 5.46536C2.62 6.7342 1.18527 7.18593 0.564359 7.33081V0.942875V0.942875ZM0.564359 7.91031C1.13885 7.79379 2.60987 7.38996 4.05717 6.13481C4.07361 6.45417 4.08686 6.89771 4.07903 7.44299C4.07676 7.59881 4.2013 7.72695 4.35712 7.72914C4.35853 7.72914 4.35987 7.72918 4.36128 7.72918C4.51525 7.72918 4.64112 7.60545 4.64335 7.45104C4.65626 6.55188 4.61448 5.92748 4.59062 5.65235C4.83313 5.46079 5.45274 4.98917 6.37324 4.4077C6.35357 4.71953 6.34748 5.13338 6.39209 5.59936C6.51184 6.84995 6.94862 7.91747 7.65878 8.70163C7.25696 9.46118 6.89704 10.36 6.68407 11.3821C5.63524 10.9325 4.80214 10.6709 4.40934 10.5575C4.50857 9.81532 4.5692 9.1351 4.60397 8.53363C4.61296 8.37807 4.49417 8.24466 4.33853 8.23565C4.18286 8.22641 4.04956 8.34545 4.04054 8.50109C3.97464 9.64157 3.81466 11.069 3.46672 12.6727C2.36082 12.7736 1.19641 13.5665 0.564434 14.0636V7.91031H0.564359ZM9.69148 12.9722C10.7696 11.7987 12.5933 11.7329 13.3239 11.7585C13.1761 12.9492 12.9472 14.2043 12.5955 15.3728C11.7022 14.4057 10.681 13.6107 9.69148 12.9722ZM10.8366 14.4973C8.2309 15.9858 4.31593 16.1102 3.08034 16.11C3.71387 14.3044 4.09862 12.6055 4.32773 11.1228C5.27491 11.4055 8.28693 12.4169 10.8366 14.4973ZM11.7883 11.3044C11.5113 10.6864 10.6204 8.90866 9.02448 7.59414C9.0908 7.50511 9.15618 7.42006 9.21986 7.33971C9.96884 6.39532 10.6576 5.85122 10.7673 5.76702C10.9247 5.68486 12.0498 5.10926 13.5184 4.6396C13.5667 5.4422 13.6583 7.51702 13.5006 9.88623C13.4728 10.3034 13.4362 10.7429 13.3884 11.1957C13.0354 11.1801 12.4443 11.1827 11.7883 11.3044ZM11.2267 11.437C10.3795 11.6803 9.70217 12.0933 9.20617 12.6696C8.52855 12.2613 7.87895 11.9271 7.3114 11.6627C7.27811 11.6472 7.24527 11.6322 7.21224 11.617C7.49684 10.1532 8.10539 8.94807 8.6984 8.05704C10.0902 9.21901 10.924 10.7926 11.2267 11.437ZM0.564359 18.4356V14.7966C0.726045 14.6555 1.09291 14.3489 1.55945 14.0432C2.21376 13.6145 2.81835 13.3484 3.33242 13.2597C2.94741 14.8641 2.37188 16.6236 1.51967 18.4356H0.564359V18.4356ZM2.14251 18.4356C2.415 17.8411 2.65826 17.2527 2.87575 16.6737C2.94359 16.6747 3.02694 16.6754 3.12479 16.6754C3.67138 16.6754 4.66261 16.6516 5.83808 16.5147C8.11408 16.2494 9.94691 15.7011 11.2913 14.8845C11.6768 15.2274 12.0474 15.5966 12.3939 15.9932C12.0728 16.9084 11.6666 17.7492 11.1531 18.4356H2.14251ZM11.8425 18.4356C12.4732 17.4818 12.9824 16.2405 13.3589 14.7356C13.4592 14.3347 13.55 13.9141 13.6318 13.4761C13.893 13.3639 14.5433 13.1137 15.3765 13.0013C15.3926 13.9388 15.5238 16.6941 16.4819 18.4356H11.8425V18.4356ZM18.4356 12.8296C18.22 12.7362 17.9977 12.6567 17.7709 12.5925C17.621 12.5502 17.465 12.6373 17.4226 12.7872C17.3802 12.9372 17.4673 13.0932 17.6173 13.1356C17.8997 13.2154 18.1742 13.3218 18.4356 13.4519V18.4357H17.1403C16.0907 16.854 15.9571 13.8503 15.9411 12.9506C16.2159 12.9385 16.5035 12.9446 16.7981 12.977C16.953 12.9941 17.0924 12.8822 17.1094 12.7273C17.1265 12.5724 17.0146 12.433 16.8598 12.416C15.5398 12.271 14.3737 12.5932 13.7448 12.8231C13.8887 11.9201 13.9957 10.9484 14.0642 9.91603C14.0702 9.82675 14.0757 9.73791 14.0809 9.64951C14.2754 9.47588 14.9599 8.84405 15.6939 7.9243C15.7422 7.86377 15.7894 7.80336 15.836 7.74302C16.1595 8.3102 16.9042 9.27723 18.4356 9.89714V12.8296V12.8296ZM14.0733 4.47264C15.0305 4.20312 16.09 4.00303 17.1035 4.01468C16.8091 5.39689 15.9525 6.69401 15.2596 7.56371C14.8345 8.09708 14.4212 8.53467 14.1208 8.83329C14.2009 6.76971 14.1123 5.07293 14.0733 4.47264ZM18.4356 9.28328C16.9601 8.61524 16.3754 7.59054 16.2102 7.23573C16.9839 6.13299 17.4747 5.06339 17.6737 4.04477C17.9338 4.07027 18.1886 4.11254 18.4356 4.17358V9.28328V9.28328ZM18.4356 3.59408C17.0524 3.28834 15.3324 3.46101 13.3154 4.10964C12.465 4.38314 11.7351 4.68729 11.229 4.91699L11.7237 3.90695C11.7923 3.76697 11.7344 3.59798 11.5945 3.5294C11.4546 3.46086 11.2855 3.51871 11.2169 3.65869L10.3911 5.34438C10.1954 5.49735 9.52631 6.04827 8.78995 6.97359C8.52558 7.30576 8.23579 7.70962 7.95354 8.1792C6.72782 6.68288 6.90758 4.56664 6.97582 4.03817C7.45234 3.75462 7.98842 3.45544 8.57761 3.15675C9.76927 2.55261 10.9845 2.04732 12.2015 1.64888L11.661 2.75211C11.5925 2.89208 11.6503 3.06108 11.7903 3.12966C11.8303 3.14921 11.8726 3.15849 11.9143 3.15849C12.0185 3.15849 12.1188 3.10041 12.1679 3.0004L12.9421 1.41999C12.9957 1.40437 13.0493 1.38845 13.1029 1.37327C14.8987 0.86398 16.6912 0.593379 18.4356 0.56692V3.59408V3.59408Z" fill="#C80A3D"/>
<path d="M18.7178 0H0.28218C0.126357 0 0 0.126357 0 0.28218V18.7178C0 18.8736 0.126357 19 0.28218 19H18.7178C18.8736 19 19 18.8736 19 18.7178V0.28218C19 0.126357 18.8736 0 18.7178 0ZM13.9772 0.564359C13.6347 0.644664 13.2918 0.733133 12.9489 0.830397C11.4083 1.26729 9.86297 1.87525 8.35514 2.63718C8.18395 2.52923 7.86051 2.31039 7.52485 2.00483C7.1519 1.66532 6.70236 1.15904 6.51162 0.564359H13.9772V0.564359ZM5.92499 0.564359C6.19931 1.68016 7.20163 2.52518 7.78306 2.93439C6.09069 3.83889 4.91046 4.69252 4.3982 5.08614C3.43388 3.13077 1.81457 1.38503 0.987295 0.564359H5.92499ZM0.564359 0.942875C1.37527 1.74885 3.03729 3.53474 3.95504 5.46536C2.62 6.7342 1.18527 7.18593 0.564359 7.33081V0.942875V0.942875ZM0.564359 7.91031C1.13885 7.79379 2.60987 7.38996 4.05717 6.13481C4.07361 6.45417 4.08686 6.89771 4.07903 7.44299C4.07676 7.59881 4.2013 7.72695 4.35712 7.72914C4.35853 7.72914 4.35987 7.72918 4.36128 7.72918C4.51525 7.72918 4.64112 7.60545 4.64335 7.45104C4.65626 6.55188 4.61448 5.92748 4.59062 5.65235C4.83313 5.46079 5.45274 4.98917 6.37324 4.4077C6.35357 4.71953 6.34748 5.13338 6.39209 5.59936C6.51184 6.84995 6.94862 7.91747 7.65878 8.70163C7.25696 9.46118 6.89704 10.36 6.68407 11.3821C5.63524 10.9325 4.80214 10.6709 4.40934 10.5575C4.50857 9.81532 4.5692 9.1351 4.60397 8.53363C4.61296 8.37807 4.49417 8.24466 4.33853 8.23565C4.18286 8.22641 4.04956 8.34545 4.04054 8.50109C3.97464 9.64157 3.81466 11.069 3.46672 12.6727C2.36082 12.7736 1.19641 13.5665 0.564434 14.0636V7.91031H0.564359ZM9.69148 12.9722C10.7696 11.7987 12.5933 11.7329 13.3239 11.7585C13.1761 12.9492 12.9472 14.2043 12.5955 15.3728C11.7022 14.4057 10.681 13.6107 9.69148 12.9722ZM10.8366 14.4973C8.2309 15.9858 4.31593 16.1102 3.08034 16.11C3.71387 14.3044 4.09862 12.6055 4.32773 11.1228C5.27491 11.4055 8.28693 12.4169 10.8366 14.4973ZM11.7883 11.3044C11.5113 10.6864 10.6204 8.90866 9.02448 7.59414C9.0908 7.50511 9.15618 7.42006 9.21986 7.33971C9.96884 6.39532 10.6576 5.85122 10.7673 5.76702C10.9247 5.68486 12.0498 5.10926 13.5184 4.6396C13.5667 5.4422 13.6583 7.51702 13.5006 9.88623C13.4728 10.3034 13.4362 10.7429 13.3884 11.1957C13.0354 11.1801 12.4443 11.1827 11.7883 11.3044ZM11.2267 11.437C10.3795 11.6803 9.70217 12.0933 9.20617 12.6696C8.52855 12.2613 7.87895 11.9271 7.3114 11.6627C7.27811 11.6472 7.24527 11.6322 7.21224 11.617C7.49684 10.1532 8.10539 8.94807 8.6984 8.05704C10.0902 9.21901 10.924 10.7926 11.2267 11.437ZM0.564359 18.4356V14.7966C0.726045 14.6555 1.09291 14.3489 1.55945 14.0432C2.21376 13.6145 2.81835 13.3484 3.33242 13.2597C2.94741 14.8641 2.37188 16.6236 1.51967 18.4356H0.564359V18.4356ZM2.14251 18.4356C2.415 17.8411 2.65826 17.2527 2.87575 16.6737C2.94359 16.6747 3.02694 16.6754 3.12479 16.6754C3.67138 16.6754 4.66261 16.6516 5.83808 16.5147C8.11408 16.2494 9.94691 15.7011 11.2913 14.8845C11.6768 15.2274 12.0474 15.5966 12.3939 15.9932C12.0728 16.9084 11.6666 17.7492 11.1531 18.4356H2.14251ZM11.8425 18.4356C12.4732 17.4818 12.9824 16.2405 13.3589 14.7356C13.4592 14.3347 13.55 13.9141 13.6318 13.4761C13.893 13.3639 14.5433 13.1137 15.3765 13.0013C15.3926 13.9388 15.5238 16.6941 16.4819 18.4356H11.8425V18.4356ZM18.4356 12.8296C18.22 12.7362 17.9977 12.6567 17.7709 12.5925C17.621 12.5502 17.465 12.6373 17.4226 12.7872C17.3802 12.9372 17.4673 13.0932 17.6173 13.1356C17.8997 13.2154 18.1742 13.3218 18.4356 13.4519V18.4357H17.1403C16.0907 16.854 15.9571 13.8503 15.9411 12.9506C16.2159 12.9385 16.5035 12.9446 16.7981 12.977C16.953 12.9941 17.0924 12.8822 17.1094 12.7273C17.1265 12.5724 17.0146 12.433 16.8598 12.416C15.5398 12.271 14.3737 12.5932 13.7448 12.8231C13.8887 11.9201 13.9957 10.9484 14.0642 9.91603C14.0702 9.82675 14.0757 9.73791 14.0809 9.64951C14.2754 9.47588 14.9599 8.84405 15.6939 7.9243C15.7422 7.86377 15.7894 7.80336 15.836 7.74302C16.1595 8.3102 16.9042 9.27723 18.4356 9.89714V12.8296V12.8296ZM14.0733 4.47264C15.0305 4.20312 16.09 4.00303 17.1035 4.01468C16.8091 5.39689 15.9525 6.69401 15.2596 7.56371C14.8345 8.09708 14.4212 8.53467 14.1208 8.83329C14.2009 6.76971 14.1123 5.07293 14.0733 4.47264ZM18.4356 9.28328C16.9601 8.61524 16.3754 7.59054 16.2102 7.23573C16.9839 6.13299 17.4747 5.06339 17.6737 4.04477C17.9338 4.07027 18.1886 4.11254 18.4356 4.17358V9.28328V9.28328ZM18.4356 3.59408C17.0524 3.28834 15.3324 3.46101 13.3154 4.10964C12.465 4.38314 11.7351 4.68729 11.229 4.91699L11.7237 3.90695C11.7923 3.76697 11.7344 3.59798 11.5945 3.5294C11.4546 3.46086 11.2855 3.51871 11.2169 3.65869L10.3911 5.34438C10.1954 5.49735 9.52631 6.04827 8.78995 6.97359C8.52558 7.30576 8.23579 7.70962 7.95354 8.1792C6.72782 6.68288 6.90758 4.56664 6.97582 4.03817C7.45234 3.75462 7.98842 3.45544 8.57761 3.15675C9.76927 2.55261 10.9845 2.04732 12.2015 1.64888L11.661 2.75211C11.5925 2.89208 11.6503 3.06108 11.7903 3.12966C11.8303 3.14921 11.8726 3.15849 11.9143 3.15849C12.0185 3.15849 12.1188 3.10041 12.1679 3.0004L12.9421 1.41999C12.9957 1.40437 13.0493 1.38845 13.1029 1.37327C14.8987 0.86398 16.6912 0.593379 18.4356 0.56692V3.59408V3.59408Z" stroke="#C80A3D" stroke-width="0.4" mask="url(#path-1-outside-1_64_898)"/>
</svg>
