<svg width="26" height="16" viewBox="0 0 26 16" fill="none" xmlns="http://www.w3.org/2000/svg">
<path d="M0 0.918433H-0.1V1.01843V14.9812V15.0812H0H26H26.1V14.9812V1.01843V0.918433H26H0ZM2.76686 7.07535L3.13179 7.2561L3.1318 7.2561L8.54191 9.9363L8.63764 9.76087L3.97052 6.96918L6.74637 5.44959L7.06448 5.27545L7.15035 5.22844L7.10517 5.14158L6.92385 4.79302L5.42974 1.92074H12.0451L11.6867 3.96409L11.6867 3.96412L11.6663 4.08018L11.6589 4.12204L11.684 4.15639L11.731 4.22087L11.7311 4.22105L13.4284 6.56027L13.5987 6.45664L12.3729 4.01717L13.1045 1.92103H19.3468L20.0607 2.29683L17.3974 4.95634L17.1971 5.15634L17.092 5.26127L17.2287 5.31918L17.473 5.42262L17.473 5.42263L20.8698 6.86201L20.9569 6.68222L18.0994 5.11732L21.2468 2.54938L21.2469 2.54932L21.6607 2.2111L21.7658 2.12518L21.6525 2.05028L21.4568 1.92074H25.0968V14.0789H0.902308V1.92074H3.98284L5.83552 4.88502L3.11251 6.66902L3.11247 6.66904L2.75647 6.90207L2.61024 6.99778L2.76686 7.07535Z" fill="#C80A3D" stroke="#C80A3D" stroke-width="0.2"/>
</svg>
