<svg width="23" height="21" viewBox="0 0 23 21" fill="none" xmlns="http://www.w3.org/2000/svg">
<path d="M2.74023 5.7832H4.08789V7.13086H2.74023V5.7832Z" fill="#C80A3D"/>
<path d="M4.08789 8.47852H5.43555V9.82617H4.08789V8.47852Z" fill="#C80A3D"/>
<path d="M17.5645 8.47852H18.9121V9.82617H17.5645V8.47852Z" fill="#C80A3D"/>
<path d="M18.9121 5.7832H20.2598V7.13086H18.9121V5.7832Z" fill="#C80A3D"/>
<path d="M2.74023 16.5645H6.7832V17.9121H2.74023V16.5645Z" fill="#C80A3D"/>
<path d="M17.5645 16.5645H20.2598V17.9121H17.5645V16.5645Z" fill="#C80A3D"/>
<path d="M12.1738 0.392578V5.38847L14.64 7.85469L11.117 12.2585L11.5465 8.82266L9.47852 7.44405V2.13496L7.73613 0.392578H0V20.6074H23V0.392578H12.1738ZM21.6523 1.74023V3.08789H13.5215V1.74023H21.6523ZM13.5215 4.83028V4.43555H21.6523V11.1738H13.7106L16.4459 7.75469L13.5215 4.83028ZM10.1059 9.48198L9.8944 11.1738H1.34766V4.43555H8.13086V8.16532L10.1059 9.48198ZM7.17793 1.74023L8.13086 2.69316V3.08789H1.34766V1.74023H7.17793ZM1.34766 19.2598V15.2168H4.08789V13.8691H1.34766V12.5215H9.72595L9.18769 16.8274L12.6324 12.5215H21.6523V13.8691H18.9121V15.2168H21.6523V19.2598H1.34766Z" fill="#C80A3D"/>
<path d="M12.1738 13.8691H16.2168V15.2168H12.1738V13.8691Z" fill="#C80A3D"/>
<path d="M10.8262 16.5645H16.2168V17.9121H10.8262V16.5645Z" fill="#C80A3D"/>
<path d="M5.43555 13.8691H8.13086V15.2168H5.43555V13.8691Z" fill="#C80A3D"/>
</svg>
