<svg width="20" height="22" viewBox="0 0 20 22" fill="none" xmlns="http://www.w3.org/2000/svg">
<path d="M19.6219 0.187529C19.5019 0.0141496 19.2749 -0.048284 19.083 0.0395441L4.7924 6.58519C4.60648 6.67035 4.50494 6.87355 4.54856 7.0734C4.59213 7.27321 4.76903 7.41569 4.9736 7.41569H9.43728L1.09563 13.3467C0.941373 13.4564 0.87576 13.6532 0.933338 13.8335C0.990916 14.0138 1.15845 14.1362 1.34773 14.1362H5.44776L0.382307 21.3142C0.262983 21.4833 0.279354 21.713 0.421365 21.8635C0.506014 21.9533 0.621342 22 0.737873 22C0.816893 22 0.896557 21.9785 0.967584 21.9343L16.5262 12.2489C16.7301 12.122 16.7925 11.8537 16.6656 11.6497C16.5917 11.5312 16.4701 11.4608 16.3412 11.4473C16.338 11.4469 16.3345 11.4468 16.3311 11.4465C16.3217 11.4457 16.3124 11.4451 16.303 11.445C16.3008 11.4449 16.299 11.4446 16.2969 11.4446L12.013 11.4386L18.7675 5.89382C18.9095 5.77721 18.9629 5.58389 18.901 5.4109C18.839 5.23795 18.6752 5.12258 18.4915 5.12258C18.4914 5.12258 18.4913 5.12258 18.4912 5.12258L15.1499 5.12455L19.5704 0.744017C19.7202 0.59556 19.7419 0.361036 19.6219 0.187529ZM5.8521 17.8689L2.33214 20.0601L5.8521 15.0721V17.8689ZM10.3647 11.8708C10.3647 11.871 10.3647 11.8712 10.3647 11.8714V15.0597L6.72209 17.3273V13.7013C6.72209 13.6948 6.7214 13.6885 6.72114 13.6822C6.72093 13.6768 6.72075 13.6716 6.72032 13.6662C6.7174 13.6297 6.71001 13.5947 6.69867 13.5613C6.69742 13.5576 6.69596 13.5539 6.69459 13.5501C6.68904 13.5353 6.68281 13.5207 6.67577 13.5066C6.67486 13.5048 6.67431 13.5029 6.67336 13.5011C6.67297 13.5004 6.67246 13.4998 6.67211 13.499C6.66369 13.483 6.65428 13.4676 6.64397 13.4528C6.64165 13.4495 6.63911 13.4464 6.63671 13.4431C6.62833 13.4318 6.61939 13.4209 6.60994 13.4104C6.60672 13.4068 6.60358 13.4032 6.60027 13.3998C6.58824 13.3873 6.57565 13.3753 6.5622 13.3644C6.56039 13.363 6.55855 13.3617 6.55674 13.3603C6.54454 13.3506 6.53178 13.3417 6.51854 13.3333C6.51481 13.331 6.51102 13.3287 6.5072 13.3265C6.49336 13.3184 6.47914 13.3109 6.46445 13.3043C6.46299 13.3037 6.46152 13.3028 6.46002 13.3022C6.44348 13.295 6.42633 13.289 6.4088 13.2838C6.40536 13.2829 6.40188 13.2821 6.3984 13.2812C6.38435 13.2774 6.37004 13.2744 6.35543 13.2721C6.35084 13.2714 6.34624 13.2706 6.3416 13.27C6.32368 13.2677 6.30559 13.2662 6.28703 13.2662H2.71018L7.89728 9.57801V12.1215C7.89728 12.3618 8.09206 12.5566 8.3323 12.5566C8.57254 12.5566 8.76731 12.3618 8.76731 12.1215V8.95943L10.3648 7.82359V11.8708H10.3647ZM14.7779 12.3125L11.2347 14.5181V12.3076L14.7779 12.3125ZM17.2752 5.99334L14.5275 8.24898V5.99497L17.2752 5.99334ZM13.7863 5.25122C13.7861 5.2514 13.7859 5.25165 13.7858 5.25183C13.7721 5.2654 13.7597 5.28014 13.7479 5.2954C13.7452 5.29892 13.7425 5.30244 13.74 5.30605C13.7288 5.32152 13.7183 5.33755 13.7092 5.35448C13.7089 5.35504 13.7087 5.35564 13.7084 5.35624C13.6997 5.37265 13.6922 5.3898 13.6857 5.40737C13.6844 5.41094 13.683 5.41446 13.6818 5.41807C13.6696 5.45344 13.6618 5.49078 13.6591 5.52958C13.6587 5.53465 13.6585 5.53972 13.6583 5.54479C13.6581 5.54994 13.6575 5.55501 13.6575 5.56021V8.96321L11.2348 10.9521V6.98532C11.2348 6.98514 11.2348 6.98493 11.2348 6.98476V6.98072C11.2348 6.97883 11.2345 6.97702 11.2345 6.97513C11.2344 6.96413 11.2338 6.95309 11.2329 6.94205C11.2325 6.93749 11.232 6.93294 11.2314 6.92842C11.2304 6.91992 11.229 6.91141 11.2275 6.90294C11.2266 6.89774 11.2257 6.8925 11.2246 6.88739C11.2229 6.87965 11.2207 6.87192 11.2186 6.86419C11.2172 6.85903 11.2159 6.85383 11.2143 6.8488C11.2143 6.84867 11.2143 6.84855 11.2143 6.84846C11.2106 6.83686 11.2063 6.82543 11.2017 6.8143C11.1997 6.80949 11.1974 6.8048 11.1952 6.80012C11.1919 6.79286 11.1886 6.78568 11.1849 6.77868C11.1825 6.77412 11.1799 6.76961 11.1773 6.76514C11.1733 6.75805 11.1691 6.75105 11.1646 6.74422C11.162 6.74026 11.1595 6.73635 11.1568 6.73253C11.1515 6.72497 11.146 6.71766 11.1403 6.71053C11.138 6.70765 11.1358 6.70473 11.1335 6.70198C11.117 6.68217 11.0988 6.66399 11.0792 6.64758C11.076 6.64492 11.0727 6.64251 11.0695 6.63993C11.0627 6.63456 11.0559 6.62941 11.0488 6.62446C11.0447 6.62158 11.0406 6.61883 11.0363 6.61613C11.0297 6.61183 11.0229 6.60775 11.016 6.60375C11.0116 6.60117 11.0071 6.5986 11.0026 6.59619C10.9946 6.59194 10.9863 6.58807 10.9779 6.58433C10.9732 6.58214 10.9683 6.58003 10.9635 6.57801C10.9536 6.57398 10.9435 6.57028 10.9332 6.56693C10.9283 6.56538 10.9233 6.56405 10.9183 6.56263C10.9106 6.56044 10.9028 6.55838 10.8949 6.55662C10.8898 6.5555 10.8846 6.55442 10.8794 6.55344C10.8708 6.55189 10.8622 6.55056 10.8535 6.54948C10.849 6.54892 10.8446 6.54828 10.84 6.54785C10.8267 6.54665 10.8132 6.54579 10.7997 6.54579H6.96782L17.2174 1.85102L13.7863 5.25122Z" fill="#C80A3D"/>
</svg>
