<svg width="19" height="25" viewBox="0 0 19 25" fill="none" xmlns="http://www.w3.org/2000/svg">
<path d="M18.3229 22.0612C18.3229 23.6859 17.008 25 15.3797 25H3.61891C1.99447 25 0.675781 23.6833 0.675781 22.0617V2.9383C0.675781 1.31384 1.99065 0 3.61891 0H15.3797C17.0037 0 18.3229 1.31809 18.3229 2.9388V22.0612ZM10.8871 23.5294H15.3797C16.196 23.5294 16.8523 22.8735 16.8523 22.0612V17.3341L13.5871 15.4294L10.8871 23.5294ZM11.9944 15.5571L7.21556 17.3177L9.73076 22.3481L11.9944 15.5571ZM5.63693 17.4488L2.14637 15.5693V22.0617C2.14637 22.8706 2.80616 23.5294 3.61891 23.5294H8.67724L5.63693 17.4488ZM9.56501 7.27512L2.14637 10.4138V13.8991L5.83415 15.8848L9.56501 7.27512ZM11.8739 6.43468L13.8102 13.857L16.8523 15.6316V5.32841L11.8739 6.43468ZM10.7967 8.13136L7.54817 15.628L12.296 13.8788L10.7967 8.13136ZM16.8523 3.82192V2.9388C16.8523 2.13053 16.1918 1.47059 15.3797 1.47059H9.5861L11.3708 5.04002L16.8523 3.82192ZM9.96186 5.51044L7.94194 1.47059H3.61891C2.80257 1.47059 2.14637 2.12628 2.14637 2.9383V8.81698L9.96186 5.51044Z" fill="#C80A3D"/>
</svg>
