<svg width="25" height="25" viewBox="0 0 25 25" fill="none" xmlns="http://www.w3.org/2000/svg">
<mask id="path-1-outside-1_64_802" maskUnits="userSpaceOnUse" x="2.75" y="2.53833" width="22" height="22" fill="black">
<rect fill="white" x="2.75" y="2.53833" width="22" height="22"/>
<path d="M9.9044 24.3244C9.17639 24.3242 8.46236 24.1245 7.83987 23.747C7.21739 23.3695 6.71027 22.8286 6.3736 22.1831C6.03692 21.5376 5.88358 20.8122 5.93023 20.0857C5.97688 19.3592 6.22173 18.6593 6.63818 18.0622L7.50068 16.8244C7.60133 16.68 7.66828 16.5149 7.69658 16.3413C7.72488 16.1676 7.71382 15.9898 7.6642 15.821C7.61459 15.6521 7.52769 15.4966 7.40992 15.3659C7.29215 15.2351 7.14653 15.1325 6.98379 15.0656L5.03953 14.2663C4.75544 14.1489 4.5008 13.9702 4.29382 13.743C4.08683 13.5158 3.93263 13.2456 3.84224 12.9518C3.75184 12.6581 3.7275 12.3479 3.77094 12.0436C3.81437 11.7394 3.92453 11.4484 4.09351 11.1917C4.2625 10.9349 4.48614 10.7187 4.74844 10.5585C5.01074 10.3982 5.30521 10.298 5.61078 10.2648C5.91636 10.2316 6.22548 10.2664 6.51605 10.3667C6.80661 10.4669 7.07143 10.6301 7.29156 10.8446L9.08007 12.5916C9.28964 12.7944 9.56511 12.9151 9.85626 12.9318C10.1474 12.9485 10.4349 12.86 10.6662 12.6825C10.7992 12.5794 10.9092 12.4497 10.9893 12.3017C11.0693 12.1537 11.1176 11.9907 11.131 11.823C11.1445 11.6553 11.1228 11.4866 11.0674 11.3277C11.0119 11.1689 10.924 11.0233 10.8091 10.9004L10.4297 10.495C10.1314 10.1753 9.9534 9.76184 9.92621 9.32539C9.89902 8.88895 10.0243 8.45661 10.2807 8.10235C10.5371 7.7481 10.9086 7.49392 11.3316 7.38331C11.7547 7.2727 12.2031 7.31254 12.6 7.49599L13.5818 7.94971C13.7533 8.02912 13.9414 8.06603 14.1302 8.0573C14.319 8.04857 14.5029 7.99446 14.6664 7.89956C14.8298 7.80465 14.968 7.67175 15.0692 7.51211C15.1704 7.35248 15.2316 7.1708 15.2476 6.98248L15.3639 5.62099C15.3944 5.26103 15.5102 4.91352 15.7017 4.60722C15.8933 4.30091 16.155 4.04462 16.4652 3.85955C16.7755 3.67448 17.1253 3.56595 17.4858 3.54295C17.8464 3.51994 18.2072 3.58312 18.5384 3.72726C18.8697 3.8714 19.1618 4.09235 19.3907 4.37182C19.6196 4.6513 19.7787 4.98127 19.8547 5.33443C19.9308 5.68758 19.9216 6.05377 19.828 6.40269C19.7345 6.75161 19.5591 7.07323 19.3166 7.34092L18.0311 8.75984C17.8254 8.98816 17.7175 9.28806 17.7305 9.59509C17.7436 9.90213 17.8766 10.1918 18.1009 10.4018C18.3253 10.6118 18.6231 10.7254 18.9303 10.7182C19.2375 10.711 19.5297 10.5835 19.7439 10.3632L19.9885 10.1105C20.2015 9.89063 20.4594 9.71922 20.7447 9.60796C21.0299 9.49669 21.3357 9.4482 21.6414 9.46576C21.9471 9.48333 22.2453 9.56655 22.5159 9.70975C22.7865 9.85296 23.0231 10.0528 23.2095 10.2956C23.396 10.5385 23.5279 10.8187 23.5963 11.1171C23.6647 11.4155 23.668 11.7251 23.606 12.025C23.544 12.3248 23.4181 12.6077 23.237 12.8545C23.0558 13.1013 22.8236 13.3061 22.5561 13.4551L22.3733 13.5565C22.1166 13.6993 21.8952 13.8979 21.7255 14.1376C21.5558 14.3774 21.4421 14.6522 21.3927 14.9418C21.3434 15.2314 21.3597 15.5283 21.4404 15.8108C21.5211 16.0932 21.6642 16.3539 21.8591 16.5737L23.2389 18.1278C23.5994 18.5344 23.8349 19.0365 23.9169 19.5737C23.9989 20.111 23.9239 20.6605 23.7011 21.1561C23.4782 21.6518 23.1169 22.0726 22.6607 22.3678C22.2044 22.663 21.6725 22.8202 21.1291 22.8203C20.7424 22.8221 20.3595 22.7435 20.0048 22.5895C19.65 22.4356 19.3311 22.2097 19.0682 21.9261L17.7747 20.5426C17.544 20.2959 17.26 20.1052 16.9443 19.9852C16.6286 19.8652 16.2897 19.819 15.9534 19.8501C15.6171 19.8812 15.2924 19.9889 15.0041 20.1649C14.7158 20.3408 14.4716 20.5804 14.2902 20.8653L13.2639 22.4771C12.9044 23.0427 12.4081 23.5084 11.8209 23.8313C11.2337 24.1542 10.5745 24.3238 9.9044 24.3244ZM5.83751 10.9257C5.77048 10.9257 5.70353 10.9304 5.63717 10.9399C5.33061 10.9833 5.04687 11.1264 4.82972 11.3471C4.61258 11.5678 4.4741 11.8539 4.43567 12.1611C4.39724 12.4683 4.46099 12.7796 4.61708 13.047C4.77316 13.3144 5.01292 13.523 5.29933 13.6406L7.24359 14.4399C7.49993 14.5453 7.72932 14.707 7.91483 14.9129C8.10033 15.1188 8.23722 15.3638 8.31537 15.6297C8.39352 15.8956 8.41095 16.1757 8.36637 16.4492C8.32178 16.7228 8.21632 16.9828 8.05778 17.2102L7.19359 18.4487C6.93835 18.8095 6.75802 19.2179 6.66327 19.6496C6.56852 20.0813 6.56125 20.5277 6.64191 20.9622C6.72257 21.3968 6.88952 21.8108 7.13288 22.1798C7.37625 22.5487 7.69109 22.8652 8.05882 23.1104C8.42655 23.3556 8.8397 23.5246 9.27386 23.6075C9.70802 23.6903 10.1544 23.6853 10.5866 23.5927C11.0188 23.5001 11.428 23.3219 11.7901 23.0685C12.1523 22.815 12.4599 22.4916 12.6949 22.1173L13.7213 20.5068C13.958 20.1349 14.2767 19.8221 14.6529 19.5923C15.0292 19.3626 15.453 19.2219 15.892 19.1812C16.3309 19.1404 16.7734 19.2006 17.1855 19.3572C17.5976 19.5138 17.9684 19.7626 18.2696 20.0845L19.5615 21.4676C19.7613 21.6833 20.0038 21.8552 20.2735 21.9723C20.5432 22.0894 20.8343 22.1493 21.1284 22.148C21.5415 22.148 21.9459 22.0287 22.2928 21.8044C22.6398 21.5801 22.9146 21.2604 23.0842 20.8837C23.2539 20.507 23.3112 20.0893 23.2492 19.6809C23.1872 19.2724 23.0086 18.8905 22.7348 18.5811L21.3551 17.0271C21.0931 16.7316 20.9008 16.3811 20.7923 16.0015C20.6838 15.6218 20.6619 15.2226 20.7283 14.8333C20.7946 14.4441 20.9475 14.0746 21.1756 13.7523C21.4037 13.43 21.7012 13.163 22.0463 12.971L22.2291 12.8696C22.4119 12.768 22.5707 12.6281 22.6946 12.4596C22.8185 12.291 22.9046 12.0977 22.9471 11.8929C22.9895 11.6881 22.9873 11.4765 22.9406 11.2726C22.8939 11.0686 22.8037 10.8772 22.6763 10.7113C22.549 10.5453 22.3873 10.4088 22.2024 10.311C22.0174 10.2132 21.8136 10.1564 21.6047 10.1445C21.3959 10.1326 21.1869 10.1659 20.9921 10.242C20.7972 10.3182 20.6211 10.4355 20.4757 10.5859L20.2311 10.8386C19.8936 11.1863 19.4331 11.3876 18.9486 11.3992C18.4642 11.4108 17.9945 11.2318 17.6408 10.9006C17.287 10.5695 17.0774 10.1127 17.057 9.62854C17.0366 9.14439 17.2071 8.67159 17.5318 8.31187L18.8172 6.89295C18.9877 6.70474 19.1108 6.47866 19.1765 6.23341C19.2423 5.98816 19.2486 5.73078 19.1952 5.48257C19.1417 5.23437 19.0299 5.00246 18.869 4.80604C18.7081 4.60961 18.5027 4.45432 18.2699 4.353C18.0371 4.25167 17.7835 4.20724 17.5301 4.22337C17.2767 4.23949 17.0308 4.31572 16.8127 4.44573C16.5947 4.57575 16.4107 4.75583 16.276 4.97106C16.1413 5.1863 16.0598 5.43051 16.0382 5.68349L15.922 7.04498C15.8967 7.3415 15.8003 7.62755 15.641 7.87891C15.4817 8.13027 15.2641 8.33953 15.0068 8.48896C14.7494 8.63839 14.4598 8.72359 14.1625 8.73734C13.8653 8.75109 13.569 8.69299 13.299 8.56795L12.3166 8.10815C12.0616 7.98936 11.7733 7.96308 11.5011 8.03383C11.2288 8.10457 10.9898 8.26793 10.8249 8.49582C10.6601 8.7237 10.5798 9.00189 10.5978 9.28257C10.6158 9.56325 10.731 9.82889 10.9237 10.0338L11.303 10.4392C11.6359 10.7998 11.8151 11.2759 11.8026 11.7665C11.79 12.2571 11.5867 12.7234 11.2358 13.0665C10.885 13.4095 10.4141 13.6023 9.92342 13.6037C9.43269 13.6052 8.96072 13.4153 8.60778 13.0744L6.81926 11.3274C6.55743 11.0698 6.2048 10.9256 5.83751 10.9257Z"/>
</mask>
<path d="M9.9044 24.3244C9.17639 24.3242 8.46236 24.1245 7.83987 23.747C7.21739 23.3695 6.71027 22.8286 6.3736 22.1831C6.03692 21.5376 5.88358 20.8122 5.93023 20.0857C5.97688 19.3592 6.22173 18.6593 6.63818 18.0622L7.50068 16.8244C7.60133 16.68 7.66828 16.5149 7.69658 16.3413C7.72488 16.1676 7.71382 15.9898 7.6642 15.821C7.61459 15.6521 7.52769 15.4966 7.40992 15.3659C7.29215 15.2351 7.14653 15.1325 6.98379 15.0656L5.03953 14.2663C4.75544 14.1489 4.5008 13.9702 4.29382 13.743C4.08683 13.5158 3.93263 13.2456 3.84224 12.9518C3.75184 12.6581 3.7275 12.3479 3.77094 12.0436C3.81437 11.7394 3.92453 11.4484 4.09351 11.1917C4.2625 10.9349 4.48614 10.7187 4.74844 10.5585C5.01074 10.3982 5.30521 10.298 5.61078 10.2648C5.91636 10.2316 6.22548 10.2664 6.51605 10.3667C6.80661 10.4669 7.07143 10.6301 7.29156 10.8446L9.08007 12.5916C9.28964 12.7944 9.56511 12.9151 9.85626 12.9318C10.1474 12.9485 10.4349 12.86 10.6662 12.6825C10.7992 12.5794 10.9092 12.4497 10.9893 12.3017C11.0693 12.1537 11.1176 11.9907 11.131 11.823C11.1445 11.6553 11.1228 11.4866 11.0674 11.3277C11.0119 11.1689 10.924 11.0233 10.8091 10.9004L10.4297 10.495C10.1314 10.1753 9.9534 9.76184 9.92621 9.32539C9.89902 8.88895 10.0243 8.45661 10.2807 8.10235C10.5371 7.7481 10.9086 7.49392 11.3316 7.38331C11.7547 7.2727 12.2031 7.31254 12.6 7.49599L13.5818 7.94971C13.7533 8.02912 13.9414 8.06603 14.1302 8.0573C14.319 8.04857 14.5029 7.99446 14.6664 7.89956C14.8298 7.80465 14.968 7.67175 15.0692 7.51211C15.1704 7.35248 15.2316 7.1708 15.2476 6.98248L15.3639 5.62099C15.3944 5.26103 15.5102 4.91352 15.7017 4.60722C15.8933 4.30091 16.155 4.04462 16.4652 3.85955C16.7755 3.67448 17.1253 3.56595 17.4858 3.54295C17.8464 3.51994 18.2072 3.58312 18.5384 3.72726C18.8697 3.8714 19.1618 4.09235 19.3907 4.37182C19.6196 4.6513 19.7787 4.98127 19.8547 5.33443C19.9308 5.68758 19.9216 6.05377 19.828 6.40269C19.7345 6.75161 19.5591 7.07323 19.3166 7.34092L18.0311 8.75984C17.8254 8.98816 17.7175 9.28806 17.7305 9.59509C17.7436 9.90213 17.8766 10.1918 18.1009 10.4018C18.3253 10.6118 18.6231 10.7254 18.9303 10.7182C19.2375 10.711 19.5297 10.5835 19.7439 10.3632L19.9885 10.1105C20.2015 9.89063 20.4594 9.71922 20.7447 9.60796C21.0299 9.49669 21.3357 9.4482 21.6414 9.46576C21.9471 9.48333 22.2453 9.56655 22.5159 9.70975C22.7865 9.85296 23.0231 10.0528 23.2095 10.2956C23.396 10.5385 23.5279 10.8187 23.5963 11.1171C23.6647 11.4155 23.668 11.7251 23.606 12.025C23.544 12.3248 23.4181 12.6077 23.237 12.8545C23.0558 13.1013 22.8236 13.3061 22.5561 13.4551L22.3733 13.5565C22.1166 13.6993 21.8952 13.8979 21.7255 14.1376C21.5558 14.3774 21.4421 14.6522 21.3927 14.9418C21.3434 15.2314 21.3597 15.5283 21.4404 15.8108C21.5211 16.0932 21.6642 16.3539 21.8591 16.5737L23.2389 18.1278C23.5994 18.5344 23.8349 19.0365 23.9169 19.5737C23.9989 20.111 23.9239 20.6605 23.7011 21.1561C23.4782 21.6518 23.1169 22.0726 22.6607 22.3678C22.2044 22.663 21.6725 22.8202 21.1291 22.8203C20.7424 22.8221 20.3595 22.7435 20.0048 22.5895C19.65 22.4356 19.3311 22.2097 19.0682 21.9261L17.7747 20.5426C17.544 20.2959 17.26 20.1052 16.9443 19.9852C16.6286 19.8652 16.2897 19.819 15.9534 19.8501C15.6171 19.8812 15.2924 19.9889 15.0041 20.1649C14.7158 20.3408 14.4716 20.5804 14.2902 20.8653L13.2639 22.4771C12.9044 23.0427 12.4081 23.5084 11.8209 23.8313C11.2337 24.1542 10.5745 24.3238 9.9044 24.3244ZM5.83751 10.9257C5.77048 10.9257 5.70353 10.9304 5.63717 10.9399C5.33061 10.9833 5.04687 11.1264 4.82972 11.3471C4.61258 11.5678 4.4741 11.8539 4.43567 12.1611C4.39724 12.4683 4.46099 12.7796 4.61708 13.047C4.77316 13.3144 5.01292 13.523 5.29933 13.6406L7.24359 14.4399C7.49993 14.5453 7.72932 14.707 7.91483 14.9129C8.10033 15.1188 8.23722 15.3638 8.31537 15.6297C8.39352 15.8956 8.41095 16.1757 8.36637 16.4492C8.32178 16.7228 8.21632 16.9828 8.05778 17.2102L7.19359 18.4487C6.93835 18.8095 6.75802 19.2179 6.66327 19.6496C6.56852 20.0813 6.56125 20.5277 6.64191 20.9622C6.72257 21.3968 6.88952 21.8108 7.13288 22.1798C7.37625 22.5487 7.69109 22.8652 8.05882 23.1104C8.42655 23.3556 8.8397 23.5246 9.27386 23.6075C9.70802 23.6903 10.1544 23.6853 10.5866 23.5927C11.0188 23.5001 11.428 23.3219 11.7901 23.0685C12.1523 22.815 12.4599 22.4916 12.6949 22.1173L13.7213 20.5068C13.958 20.1349 14.2767 19.8221 14.6529 19.5923C15.0292 19.3626 15.453 19.2219 15.892 19.1812C16.3309 19.1404 16.7734 19.2006 17.1855 19.3572C17.5976 19.5138 17.9684 19.7626 18.2696 20.0845L19.5615 21.4676C19.7613 21.6833 20.0038 21.8552 20.2735 21.9723C20.5432 22.0894 20.8343 22.1493 21.1284 22.148C21.5415 22.148 21.9459 22.0287 22.2928 21.8044C22.6398 21.5801 22.9146 21.2604 23.0842 20.8837C23.2539 20.507 23.3112 20.0893 23.2492 19.6809C23.1872 19.2724 23.0086 18.8905 22.7348 18.5811L21.3551 17.0271C21.0931 16.7316 20.9008 16.3811 20.7923 16.0015C20.6838 15.6218 20.6619 15.2226 20.7283 14.8333C20.7946 14.4441 20.9475 14.0746 21.1756 13.7523C21.4037 13.43 21.7012 13.163 22.0463 12.971L22.2291 12.8696C22.4119 12.768 22.5707 12.6281 22.6946 12.4596C22.8185 12.291 22.9046 12.0977 22.9471 11.8929C22.9895 11.6881 22.9873 11.4765 22.9406 11.2726C22.8939 11.0686 22.8037 10.8772 22.6763 10.7113C22.549 10.5453 22.3873 10.4088 22.2024 10.311C22.0174 10.2132 21.8136 10.1564 21.6047 10.1445C21.3959 10.1326 21.1869 10.1659 20.9921 10.242C20.7972 10.3182 20.6211 10.4355 20.4757 10.5859L20.2311 10.8386C19.8936 11.1863 19.4331 11.3876 18.9486 11.3992C18.4642 11.4108 17.9945 11.2318 17.6408 10.9006C17.287 10.5695 17.0774 10.1127 17.057 9.62854C17.0366 9.14439 17.2071 8.67159 17.5318 8.31187L18.8172 6.89295C18.9877 6.70474 19.1108 6.47866 19.1765 6.23341C19.2423 5.98816 19.2486 5.73078 19.1952 5.48257C19.1417 5.23437 19.0299 5.00246 18.869 4.80604C18.7081 4.60961 18.5027 4.45432 18.2699 4.353C18.0371 4.25167 17.7835 4.20724 17.5301 4.22337C17.2767 4.23949 17.0308 4.31572 16.8127 4.44573C16.5947 4.57575 16.4107 4.75583 16.276 4.97106C16.1413 5.1863 16.0598 5.43051 16.0382 5.68349L15.922 7.04498C15.8967 7.3415 15.8003 7.62755 15.641 7.87891C15.4817 8.13027 15.2641 8.33953 15.0068 8.48896C14.7494 8.63839 14.4598 8.72359 14.1625 8.73734C13.8653 8.75109 13.569 8.69299 13.299 8.56795L12.3166 8.10815C12.0616 7.98936 11.7733 7.96308 11.5011 8.03383C11.2288 8.10457 10.9898 8.26793 10.8249 8.49582C10.6601 8.7237 10.5798 9.00189 10.5978 9.28257C10.6158 9.56325 10.731 9.82889 10.9237 10.0338L11.303 10.4392C11.6359 10.7998 11.8151 11.2759 11.8026 11.7665C11.79 12.2571 11.5867 12.7234 11.2358 13.0665C10.885 13.4095 10.4141 13.6023 9.92342 13.6037C9.43269 13.6052 8.96072 13.4153 8.60778 13.0744L6.81926 11.3274C6.55743 11.0698 6.2048 10.9256 5.83751 10.9257Z" fill="#C80A3D"/>
<path d="M9.9044 24.3244C9.17639 24.3242 8.46236 24.1245 7.83987 23.747C7.21739 23.3695 6.71027 22.8286 6.3736 22.1831C6.03692 21.5376 5.88358 20.8122 5.93023 20.0857C5.97688 19.3592 6.22173 18.6593 6.63818 18.0622L7.50068 16.8244C7.60133 16.68 7.66828 16.5149 7.69658 16.3413C7.72488 16.1676 7.71382 15.9898 7.6642 15.821C7.61459 15.6521 7.52769 15.4966 7.40992 15.3659C7.29215 15.2351 7.14653 15.1325 6.98379 15.0656L5.03953 14.2663C4.75544 14.1489 4.5008 13.9702 4.29382 13.743C4.08683 13.5158 3.93263 13.2456 3.84224 12.9518C3.75184 12.6581 3.7275 12.3479 3.77094 12.0436C3.81437 11.7394 3.92453 11.4484 4.09351 11.1917C4.2625 10.9349 4.48614 10.7187 4.74844 10.5585C5.01074 10.3982 5.30521 10.298 5.61078 10.2648C5.91636 10.2316 6.22548 10.2664 6.51605 10.3667C6.80661 10.4669 7.07143 10.6301 7.29156 10.8446L9.08007 12.5916C9.28964 12.7944 9.56511 12.9151 9.85626 12.9318C10.1474 12.9485 10.4349 12.86 10.6662 12.6825C10.7992 12.5794 10.9092 12.4497 10.9893 12.3017C11.0693 12.1537 11.1176 11.9907 11.131 11.823C11.1445 11.6553 11.1228 11.4866 11.0674 11.3277C11.0119 11.1689 10.924 11.0233 10.8091 10.9004L10.4297 10.495C10.1314 10.1753 9.9534 9.76184 9.92621 9.32539C9.89902 8.88895 10.0243 8.45661 10.2807 8.10235C10.5371 7.7481 10.9086 7.49392 11.3316 7.38331C11.7547 7.2727 12.2031 7.31254 12.6 7.49599L13.5818 7.94971C13.7533 8.02912 13.9414 8.06603 14.1302 8.0573C14.319 8.04857 14.5029 7.99446 14.6664 7.89956C14.8298 7.80465 14.968 7.67175 15.0692 7.51211C15.1704 7.35248 15.2316 7.1708 15.2476 6.98248L15.3639 5.62099C15.3944 5.26103 15.5102 4.91352 15.7017 4.60722C15.8933 4.30091 16.155 4.04462 16.4652 3.85955C16.7755 3.67448 17.1253 3.56595 17.4858 3.54295C17.8464 3.51994 18.2072 3.58312 18.5384 3.72726C18.8697 3.8714 19.1618 4.09235 19.3907 4.37182C19.6196 4.6513 19.7787 4.98127 19.8547 5.33443C19.9308 5.68758 19.9216 6.05377 19.828 6.40269C19.7345 6.75161 19.5591 7.07323 19.3166 7.34092L18.0311 8.75984C17.8254 8.98816 17.7175 9.28806 17.7305 9.59509C17.7436 9.90213 17.8766 10.1918 18.1009 10.4018C18.3253 10.6118 18.6231 10.7254 18.9303 10.7182C19.2375 10.711 19.5297 10.5835 19.7439 10.3632L19.9885 10.1105C20.2015 9.89063 20.4594 9.71922 20.7447 9.60796C21.0299 9.49669 21.3357 9.4482 21.6414 9.46576C21.9471 9.48333 22.2453 9.56655 22.5159 9.70975C22.7865 9.85296 23.0231 10.0528 23.2095 10.2956C23.396 10.5385 23.5279 10.8187 23.5963 11.1171C23.6647 11.4155 23.668 11.7251 23.606 12.025C23.544 12.3248 23.4181 12.6077 23.237 12.8545C23.0558 13.1013 22.8236 13.3061 22.5561 13.4551L22.3733 13.5565C22.1166 13.6993 21.8952 13.8979 21.7255 14.1376C21.5558 14.3774 21.4421 14.6522 21.3927 14.9418C21.3434 15.2314 21.3597 15.5283 21.4404 15.8108C21.5211 16.0932 21.6642 16.3539 21.8591 16.5737L23.2389 18.1278C23.5994 18.5344 23.8349 19.0365 23.9169 19.5737C23.9989 20.111 23.9239 20.6605 23.7011 21.1561C23.4782 21.6518 23.1169 22.0726 22.6607 22.3678C22.2044 22.663 21.6725 22.8202 21.1291 22.8203C20.7424 22.8221 20.3595 22.7435 20.0048 22.5895C19.65 22.4356 19.3311 22.2097 19.0682 21.9261L17.7747 20.5426C17.544 20.2959 17.26 20.1052 16.9443 19.9852C16.6286 19.8652 16.2897 19.819 15.9534 19.8501C15.6171 19.8812 15.2924 19.9889 15.0041 20.1649C14.7158 20.3408 14.4716 20.5804 14.2902 20.8653L13.2639 22.4771C12.9044 23.0427 12.4081 23.5084 11.8209 23.8313C11.2337 24.1542 10.5745 24.3238 9.9044 24.3244ZM5.83751 10.9257C5.77048 10.9257 5.70353 10.9304 5.63717 10.9399C5.33061 10.9833 5.04687 11.1264 4.82972 11.3471C4.61258 11.5678 4.4741 11.8539 4.43567 12.1611C4.39724 12.4683 4.46099 12.7796 4.61708 13.047C4.77316 13.3144 5.01292 13.523 5.29933 13.6406L7.24359 14.4399C7.49993 14.5453 7.72932 14.707 7.91483 14.9129C8.10033 15.1188 8.23722 15.3638 8.31537 15.6297C8.39352 15.8956 8.41095 16.1757 8.36637 16.4492C8.32178 16.7228 8.21632 16.9828 8.05778 17.2102L7.19359 18.4487C6.93835 18.8095 6.75802 19.2179 6.66327 19.6496C6.56852 20.0813 6.56125 20.5277 6.64191 20.9622C6.72257 21.3968 6.88952 21.8108 7.13288 22.1798C7.37625 22.5487 7.69109 22.8652 8.05882 23.1104C8.42655 23.3556 8.8397 23.5246 9.27386 23.6075C9.70802 23.6903 10.1544 23.6853 10.5866 23.5927C11.0188 23.5001 11.428 23.3219 11.7901 23.0685C12.1523 22.815 12.4599 22.4916 12.6949 22.1173L13.7213 20.5068C13.958 20.1349 14.2767 19.8221 14.6529 19.5923C15.0292 19.3626 15.453 19.2219 15.892 19.1812C16.3309 19.1404 16.7734 19.2006 17.1855 19.3572C17.5976 19.5138 17.9684 19.7626 18.2696 20.0845L19.5615 21.4676C19.7613 21.6833 20.0038 21.8552 20.2735 21.9723C20.5432 22.0894 20.8343 22.1493 21.1284 22.148C21.5415 22.148 21.9459 22.0287 22.2928 21.8044C22.6398 21.5801 22.9146 21.2604 23.0842 20.8837C23.2539 20.507 23.3112 20.0893 23.2492 19.6809C23.1872 19.2724 23.0086 18.8905 22.7348 18.5811L21.3551 17.0271C21.0931 16.7316 20.9008 16.3811 20.7923 16.0015C20.6838 15.6218 20.6619 15.2226 20.7283 14.8333C20.7946 14.4441 20.9475 14.0746 21.1756 13.7523C21.4037 13.43 21.7012 13.163 22.0463 12.971L22.2291 12.8696C22.4119 12.768 22.5707 12.6281 22.6946 12.4596C22.8185 12.291 22.9046 12.0977 22.9471 11.8929C22.9895 11.6881 22.9873 11.4765 22.9406 11.2726C22.8939 11.0686 22.8037 10.8772 22.6763 10.7113C22.549 10.5453 22.3873 10.4088 22.2024 10.311C22.0174 10.2132 21.8136 10.1564 21.6047 10.1445C21.3959 10.1326 21.1869 10.1659 20.9921 10.242C20.7972 10.3182 20.6211 10.4355 20.4757 10.5859L20.2311 10.8386C19.8936 11.1863 19.4331 11.3876 18.9486 11.3992C18.4642 11.4108 17.9945 11.2318 17.6408 10.9006C17.287 10.5695 17.0774 10.1127 17.057 9.62854C17.0366 9.14439 17.2071 8.67159 17.5318 8.31187L18.8172 6.89295C18.9877 6.70474 19.1108 6.47866 19.1765 6.23341C19.2423 5.98816 19.2486 5.73078 19.1952 5.48257C19.1417 5.23437 19.0299 5.00246 18.869 4.80604C18.7081 4.60961 18.5027 4.45432 18.2699 4.353C18.0371 4.25167 17.7835 4.20724 17.5301 4.22337C17.2767 4.23949 17.0308 4.31572 16.8127 4.44573C16.5947 4.57575 16.4107 4.75583 16.276 4.97106C16.1413 5.1863 16.0598 5.43051 16.0382 5.68349L15.922 7.04498C15.8967 7.3415 15.8003 7.62755 15.641 7.87891C15.4817 8.13027 15.2641 8.33953 15.0068 8.48896C14.7494 8.63839 14.4598 8.72359 14.1625 8.73734C13.8653 8.75109 13.569 8.69299 13.299 8.56795L12.3166 8.10815C12.0616 7.98936 11.7733 7.96308 11.5011 8.03383C11.2288 8.10457 10.9898 8.26793 10.8249 8.49582C10.6601 8.7237 10.5798 9.00189 10.5978 9.28257C10.6158 9.56325 10.731 9.82889 10.9237 10.0338L11.303 10.4392C11.6359 10.7998 11.8151 11.2759 11.8026 11.7665C11.79 12.2571 11.5867 12.7234 11.2358 13.0665C10.885 13.4095 10.4141 13.6023 9.92342 13.6037C9.43269 13.6052 8.96072 13.4153 8.60778 13.0744L6.81926 11.3274C6.55743 11.0698 6.2048 10.9256 5.83751 10.9257Z" stroke="#C80A3D" stroke-width="0.4" mask="url(#path-1-outside-1_64_802)"/>
<path d="M21.066 6.29369L21.0661 6.2935L21.0661 6.2935L21.2754 5.75517C21.2755 5.75514 21.2755 5.75511 21.2755 5.75508C21.4922 5.19458 21.919 4.7407 22.4651 4.48992C22.7595 4.354 23.0945 4.33451 23.4028 4.43536C23.4028 4.43537 23.4028 4.43537 23.4029 4.43538L23.5541 4.48466L21.066 6.29369ZM21.066 6.29369C20.9684 6.54612 20.9449 6.82115 20.9982 7.08649C21.0514 7.35173 21.1793 7.59626 21.3667 7.79139C21.4976 7.92918 21.6552 8.03892 21.8298 8.11393C22.0045 8.18897 22.1927 8.22769 22.3828 8.22772L21.066 6.29369ZM21.9241 7.25475L21.9963 7.18558C21.9247 7.1108 21.8759 7.01712 21.8557 6.91556C21.8355 6.81401 21.8447 6.70881 21.8822 6.6123C21.8822 6.61229 21.8822 6.61228 21.8822 6.61227L22.0916 6.07413L22.0917 6.07391C22.2265 5.7252 22.492 5.44283 22.8317 5.28684L22.832 5.2867C22.8857 5.26185 22.9441 5.24899 23.0032 5.249H23.0032H23.0035V5.24901L23.0044 5.249C23.0476 5.2486 23.0905 5.25507 23.1316 5.26816C23.1317 5.26819 23.1318 5.26822 23.1319 5.26825L23.2822 5.31734C23.2822 5.31735 23.2822 5.31736 23.2822 5.31736C23.3357 5.33489 23.3847 5.36389 23.4258 5.40232C23.4668 5.44077 23.499 5.48774 23.5201 5.53994C23.5411 5.59214 23.5505 5.64831 23.5475 5.70451C23.5446 5.76071 23.5294 5.81559 23.503 5.8653L22.8656 7.06318L22.8655 7.06334C22.8254 7.13904 22.7679 7.20415 22.6978 7.25334C22.6276 7.30252 22.5468 7.33438 22.462 7.34629C22.3772 7.3582 22.2907 7.34983 22.2097 7.32187C22.1288 7.2939 22.0556 7.24714 21.9962 7.18541L21.9241 7.25475ZM21.9241 7.25475C21.8393 7.16622 21.7816 7.05532 21.7576 6.93509C21.7337 6.81486 21.7446 6.69029 21.789 6.57603L22.9539 7.11015C22.9063 7.19982 22.8383 7.27695 22.7552 7.33521C22.6721 7.39347 22.5764 7.43121 22.4759 7.44532C22.3754 7.45943 22.273 7.44951 22.1771 7.41639C22.0812 7.38326 21.9945 7.32787 21.9241 7.25475Z" fill="#C80A3D" stroke="#C80A3D" stroke-width="0.2"/>
<path d="M4.37884 6.08143L4.37979 6.08182C4.73593 6.22669 5.1153 6.30607 5.49964 6.31615C5.69632 6.32533 5.89284 6.29488 6.07753 6.22662C6.26257 6.15824 6.43194 6.05331 6.57555 5.91807L6.57558 5.91811L6.57771 5.91598C7.05671 5.43698 7.09162 4.6458 6.7396 3.72477L6.73965 3.72475L6.73839 3.72175C6.33894 2.77061 5.74989 1.91083 5.00719 1.19488C4.76014 0.932833 4.4462 0.743221 4.09925 0.646532C3.75149 0.54962 3.38385 0.549759 3.03616 0.646933L3.03616 0.646931L3.03559 0.647097C2.62333 0.764996 2.24792 0.986003 1.94479 1.28926C1.64166 1.59251 1.42081 1.96801 1.30307 2.38031L1.30307 2.38031L1.30292 2.38087C1.20587 2.7284 1.2058 3.09587 1.30271 3.44343C1.3994 3.79019 1.58894 4.10395 1.85086 4.35086C2.56679 5.09394 3.42706 5.68285 4.37884 6.08143ZM2.47174 3.73383L2.4719 3.73367L2.46701 3.72921C2.31527 3.59059 2.20508 3.41249 2.14877 3.21483C2.09251 3.01735 2.09225 2.80811 2.14802 2.61049C2.22609 2.34561 2.3693 2.10452 2.56457 1.90926C2.75971 1.71411 3.00062 1.57096 3.2653 1.49285C3.36549 1.46574 3.46878 1.45179 3.57256 1.45135C3.72535 1.45296 3.8762 1.48568 4.01592 1.54753C4.15585 1.60946 4.28167 1.6993 4.38568 1.81155L4.38555 1.81167L4.3898 1.81574C5.0463 2.44553 5.56793 3.20218 5.92302 4.03975C6.03947 4.34446 6.09731 4.61502 6.09987 4.83339C6.10245 5.05378 6.04897 5.20748 5.95926 5.29719C5.86942 5.38704 5.71425 5.44146 5.49235 5.43995C5.27263 5.43846 5.00072 5.38181 4.69595 5.26597C3.85815 4.91168 3.10135 4.39036 2.47174 3.73383Z" fill="#C80A3D" stroke="#C80A3D" stroke-width="0.2"/>
<path d="M11.6282 5.48494L11.6282 5.48506L11.633 5.48515C11.9279 5.49055 12.2165 5.39994 12.4553 5.22696L12.4553 5.22697L12.4562 5.22635C12.8421 4.94069 13.0275 4.48316 13.0248 3.979C13.022 3.47554 12.8325 2.92027 12.463 2.42061C12.1486 1.9807 11.7109 1.64385 11.2051 1.45263C10.974 1.3572 10.7228 1.32093 10.4741 1.3471C10.225 1.37333 9.9863 1.46145 9.77987 1.60344L9.77983 1.6034L9.77705 1.60545C9.39448 1.88856 9.21105 2.35188 9.21251 2.85889C9.21397 3.36544 9.39907 3.92326 9.76269 4.41528C9.97176 4.72326 10.2482 4.97962 10.571 5.16493C10.8945 5.35058 11.256 5.46003 11.6282 5.48494ZM10.5941 2.21959L10.5948 2.2196C10.7019 2.22162 10.808 2.24104 10.9088 2.27711C11.2495 2.41084 11.5439 2.64085 11.7561 2.93908L11.7561 2.93909L11.7571 2.94051C11.9858 3.25017 12.1156 3.59073 12.1426 3.88376C12.1698 4.17964 12.0919 4.4067 11.9338 4.5237C11.7755 4.64086 11.5338 4.64989 11.2572 4.53844C10.9835 4.4281 10.6947 4.20562 10.4662 3.89696C10.2378 3.58832 10.1096 3.24709 10.0843 2.953C10.0587 2.65641 10.1378 2.428 10.2957 2.31065C10.3827 2.24883 10.4874 2.21687 10.5941 2.21959Z" fill="#C80A3D" stroke="#C80A3D" stroke-width="0.2"/>
</svg>
