<svg width="25" height="25" viewBox="0 0 25 25" fill="none" xmlns="http://www.w3.org/2000/svg">
<g clip-path="url(#clip0_64_1524)">
<path d="M24.9512 12.5C24.9512 14.9674 24.2188 17.3668 22.8333 19.4391C22.645 19.7208 22.3356 19.8731 22.0205 19.8731C21.834 19.8731 21.6454 19.8198 21.4787 19.7083C21.0302 19.4086 20.9099 18.8021 21.2095 18.3537C22.3797 16.6037 22.9981 14.5796 22.9981 12.5C22.9981 11.6064 22.8863 10.7189 22.6658 9.86252C22.5313 9.34029 22.8458 8.80776 23.3681 8.67329C23.8907 8.53901 24.4228 8.85334 24.5573 9.37558C24.8186 10.391 24.9512 11.4422 24.9512 12.5ZM17.907 21.5281C16.2666 22.5216 14.3801 23.0469 12.4512 23.0469C6.63567 23.0469 1.9043 18.3155 1.9043 12.5C1.9043 6.6845 6.63567 1.95313 12.4512 1.95313C14.6044 1.95313 16.6748 2.59743 18.4389 3.81642C18.8826 4.12293 19.4908 4.01173 19.7975 3.56808C20.104 3.12443 19.993 2.51618 19.5492 2.20947C17.4572 0.764084 15.0028 0 12.4512 0C9.11236 0 5.97325 1.30024 3.61233 3.66116C1.25141 6.02207 -0.0488281 9.16119 -0.0488281 12.5C-0.0488281 15.8388 1.25141 18.9779 3.61233 21.3389C5.97325 23.6998 9.11236 25 12.4512 25C14.7369 25 16.9735 24.3771 18.919 23.1985C19.3804 22.9191 19.5278 22.3187 19.2484 21.8573C18.9688 21.3959 18.3683 21.2486 17.907 21.5281ZM12.5454 15.3317C12.3907 15.3378 12.2463 15.2828 12.1342 15.176L7.01962 10.3266C6.62823 9.95541 6.01006 9.97181 5.63908 10.3632C5.26791 10.7546 5.28431 11.3728 5.6757 11.7437L10.7893 16.5924C11.2616 17.0414 11.8725 17.2852 12.5198 17.2852C12.5546 17.2852 12.5893 17.2844 12.624 17.2831C13.3097 17.2554 13.9395 16.9586 14.3972 16.4473C14.4089 16.4345 14.4199 16.4213 14.4308 16.4078L24.7356 3.59039C25.0736 3.17001 25.0069 2.55528 24.5865 2.21748C24.1663 1.8795 23.5514 1.94626 23.2134 2.36664L12.9288 15.159C12.8277 15.2645 12.6923 15.3257 12.5454 15.3317Z" fill="#7F8B25"/>
</g>
<defs>
<clipPath id="clip0_64_1524">
<rect width="25" height="25" fill="white"/>
</clipPath>
</defs>
</svg>
