<svg width="23" height="23" viewBox="0 0 23 23" fill="none" xmlns="http://www.w3.org/2000/svg">
<path fill-rule="evenodd" clip-rule="evenodd" d="M2.15625 5.03125V17.9688C1.36275 17.9688 0.71875 18.6127 0.71875 19.4062V20.8438C0.71875 21.6373 1.36275 22.2812 2.15625 22.2812H3.59375C4.38725 22.2812 5.03125 21.6373 5.03125 20.8438H17.9688C17.9688 21.6373 18.6127 22.2812 19.4062 22.2812H20.8438C21.6373 22.2812 22.2812 21.6373 22.2812 20.8438V19.4062C22.2812 18.6127 21.6373 17.9688 20.8438 17.9688V5.03125C21.6373 5.03125 22.2812 4.38725 22.2812 3.59375V2.15625C22.2812 1.36275 21.6373 0.71875 20.8438 0.71875H19.4062C18.6127 0.71875 17.9688 1.36275 17.9688 2.15625H5.03125C5.03125 1.36275 4.38725 0.71875 3.59375 0.71875H2.15625C1.36275 0.71875 0.71875 1.36275 0.71875 2.15625V3.59375C0.71875 4.38725 1.36275 5.03125 2.15625 5.03125ZM3.59375 19.4062V20.8438H2.15625V19.4062H3.59375ZM20.8438 19.4062V20.8438H19.4062V19.4062H20.8438ZM17.9688 3.59375H5.03125C5.03125 4.38725 4.38725 5.03125 3.59375 5.03125V17.9688C4.38725 17.9688 5.03125 18.6127 5.03125 19.4062H17.9688C17.9688 18.6127 18.6127 17.9688 19.4062 17.9688V5.03125C18.6127 5.03125 17.9688 4.38725 17.9688 3.59375ZM17.9688 7.1875C17.9688 5.99725 17.0028 5.03125 15.8125 5.03125H7.1875C5.99725 5.03125 5.03125 5.99725 5.03125 7.1875V15.8125C5.03125 17.0028 5.99725 17.9688 7.1875 17.9688H15.8125C17.0028 17.9688 17.9688 17.0028 17.9688 15.8125V7.1875ZM16.5312 7.1875V15.8125C16.5312 16.2093 16.2093 16.5312 15.8125 16.5312H7.1875C6.79075 16.5312 6.46875 16.2093 6.46875 15.8125V7.1875C6.46875 6.79075 6.79075 6.46875 7.1875 6.46875H15.8125C16.2093 6.46875 16.5312 6.79075 16.5312 7.1875ZM3.59375 2.15625V3.59375H2.15625V2.15625H3.59375ZM20.8438 2.15625V3.59375H19.4062V2.15625H20.8438Z" fill="#C80A3D"/>
</svg>
