<svg width="23" height="23" viewBox="0 0 23 23" fill="none" xmlns="http://www.w3.org/2000/svg">
<g clip-path="url(#clip0_64_1619)">
<path d="M11.5 9.43311C12.4907 9.43311 13.2969 8.62714 13.2969 7.63623C13.2969 7.3216 13.2141 7.01136 13.057 6.73867L11.889 4.71631C11.8087 4.57733 11.6604 4.4917 11.5 4.4917C11.3396 4.4917 11.1913 4.57733 11.111 4.71631L9.94283 6.7392C9.78595 7.01136 9.70312 7.3216 9.70312 7.63623C9.70312 8.62714 10.5093 9.43311 11.5 9.43311ZM10.7211 7.18806L11.5 5.83918L12.2788 7.18754C12.357 7.32353 12.3984 7.47865 12.3984 7.63623C12.3984 8.13177 11.9954 8.53467 11.5 8.53467C11.0046 8.53467 10.6016 8.13177 10.6016 7.63623C10.6016 7.47865 10.643 7.32353 10.7211 7.18806Z" fill="#C80A3D"/>
<path d="M11.5 11.2305C13.8531 11.2305 15.7676 9.31602 15.7676 6.96289C15.7676 4.60976 13.8531 2.69531 11.5 2.69531C9.14687 2.69531 7.23242 4.60976 7.23242 6.96289C7.23242 9.31602 9.14687 11.2305 11.5 11.2305ZM11.5 3.59375C13.3578 3.59375 14.8691 5.10513 14.8691 6.96289C14.8691 8.82066 13.3578 10.332 11.5 10.332C9.64223 10.332 8.13086 8.82066 8.13086 6.96289C8.13086 5.10513 9.64223 3.59375 11.5 3.59375Z" fill="#C80A3D"/>
<path d="M11.9492 22.5503C11.9492 22.7984 11.7481 22.9995 11.5 22.9995C11.2519 22.9995 11.0508 22.7984 11.0508 22.5503C11.0508 22.3023 11.2519 22.1011 11.5 22.1011C11.7481 22.1011 11.9492 22.3023 11.9492 22.5503Z" fill="#C80A3D"/>
<path d="M22.5508 14.1948C22.3027 14.1948 22.1016 14.3961 22.1016 14.644C22.1016 15.1395 21.6985 15.5424 21.2031 15.5424H18.373C17.8777 15.5424 17.4746 15.1395 17.4746 14.644C17.4746 14.3961 17.2735 14.1948 17.0254 14.1948C16.7773 14.1948 16.5762 14.3961 16.5762 14.644C16.5762 15.1395 16.1731 15.5424 15.6777 15.5424H14.1027L17.0517 11.161C17.9751 9.94318 18.4629 8.49181 18.4629 6.96289C18.4629 3.12347 15.3394 0 11.5 0C7.66058 0 4.53711 3.12347 4.53711 6.96289C4.53711 8.50199 5.03107 9.96143 5.96584 11.1843L8.93629 15.5426H7.32227C6.8269 15.5426 6.42383 15.1395 6.42383 14.6442C6.42383 14.3961 6.22273 14.195 5.97461 14.195C5.72649 14.195 5.52539 14.3961 5.52539 14.6442C5.52539 15.1395 5.12232 15.5426 4.62695 15.5426H1.79688C1.30151 15.5426 0.898438 15.1395 0.898438 14.6442C0.898438 14.3961 0.697342 14.195 0.449219 14.195C0.201096 14.195 0 14.3961 0 14.6442V22.5504C0 22.7984 0.201096 22.9996 0.449219 22.9996H9.47852C9.72664 22.9996 9.92773 22.7984 9.92773 22.5504C9.92773 22.3023 9.72664 22.1012 9.47852 22.1012H0.898438V19.6133C1.16288 19.7667 1.46979 19.8551 1.79688 19.8551H4.62695C5.16321 19.8551 5.64507 19.6186 5.97461 19.2448C6.30415 19.6186 6.78601 19.8551 7.32227 19.8551H10.1523C10.6781 19.8551 11.1652 19.623 11.4989 19.2469C11.8322 19.6258 12.3181 19.8551 12.8477 19.8551H15.6777C16.214 19.8551 16.6958 19.6186 17.0254 19.2448C17.3549 19.6186 17.8368 19.8551 18.373 19.8551H21.2031C21.5302 19.8551 21.8371 19.7667 22.1016 19.6133V22.1012H13.5215C13.2734 22.1012 13.0723 22.3023 13.0723 22.5504C13.0723 22.7984 13.2734 22.9996 13.5215 22.9996H22.5508C22.7989 22.9996 23 22.7984 23 22.5504V14.6442C23 14.3961 22.7989 14.1948 22.5508 14.1948ZM6.68634 10.6475C5.8681 9.58082 5.43555 8.30669 5.43555 6.96289C5.43555 3.61902 8.15613 0.898438 11.5 0.898438C14.8439 0.898438 17.5645 3.61902 17.5645 6.96289C17.5645 8.29809 17.1372 9.5652 16.3288 10.6274C16.3235 10.6342 16.3184 10.6414 16.3135 10.6486C8.86137 21.7204 16.4697 10.4224 11.6041 17.6215C11.5383 17.6059 11.4868 17.6067 11.4356 17.6141C10.6772 16.5014 6.69143 10.6542 6.68634 10.6475ZM10.1523 18.9565H7.32227C6.8269 18.9565 6.42383 18.5536 6.42383 18.0581C6.42383 17.8101 6.22273 17.6088 5.97461 17.6088C5.72649 17.6088 5.52539 17.8101 5.52539 18.0581C5.52539 18.5536 5.12232 18.9565 4.62695 18.9565H1.79688C1.30151 18.9565 0.898438 18.5536 0.898438 18.0581V16.1992C1.16288 16.3526 1.46979 16.4409 1.79688 16.4409H4.62695C5.16303 16.4409 5.64507 16.2049 5.97461 15.8315C6.30415 16.2049 6.78619 16.4409 7.32227 16.4409H9.54871L10.9418 18.485C10.7879 18.7696 10.4859 18.9565 10.1523 18.9565ZM21.2031 18.9565H18.373C17.8777 18.9565 17.4746 18.5536 17.4746 18.0581C17.4746 17.8101 17.2735 17.6088 17.0254 17.6088C16.7773 17.6088 16.5762 17.8101 16.5762 18.0581C16.5762 18.5536 16.1731 18.9565 15.6777 18.9565H12.8477C12.5267 18.9565 12.2381 18.7882 12.078 18.5217L13.4962 16.4409H15.6777C16.2138 16.4409 16.6958 16.2049 17.0254 15.8315C17.3549 16.2049 17.837 16.4409 18.373 16.4409H21.2031C21.5302 16.4409 21.8371 16.3531 22.1016 16.1998V18.0581C22.1016 18.5536 21.6985 18.9565 21.2031 18.9565Z" fill="#C80A3D"/>
</g>
<defs>
<clipPath id="clip0_64_1619">
<rect width="23" height="23" fill="white"/>
</clipPath>
</defs>
</svg>
