<svg width="19" height="19" viewBox="0 0 19 19" fill="none" xmlns="http://www.w3.org/2000/svg">
<path d="M18.125 8.78125H13.0938C11.5168 8.78125 10.2188 10.0793 10.2188 11.6562C10.2188 13.2332 11.5168 14.5312 13.0938 14.5312H15.9688V16.6875C15.9688 17.0821 15.6446 17.4062 15.25 17.4062H3.75C2.56694 17.4062 1.59375 16.4331 1.59375 15.25V4.46875C1.59375 3.28569 2.56694 2.3125 3.75 2.3125H5.1875C5.58209 2.3125 5.90625 1.98834 5.90625 1.59375C5.90625 1.19916 5.58209 0.875 5.1875 0.875H3.75C1.77847 0.875 0.15625 2.49722 0.15625 4.46875V15.25C0.15625 17.2215 1.77847 18.8438 3.75 18.8438H15.25C16.4331 18.8438 17.4062 17.8706 17.4062 16.6875V14.5312H18.125C18.5196 14.5312 18.8438 14.2071 18.8438 13.8125V9.5C18.8438 9.10541 18.5196 8.78125 18.125 8.78125ZM17.4062 13.0938H13.0938C12.3053 13.0938 11.6562 12.4447 11.6562 11.6562C11.6562 10.8678 12.3053 10.2188 13.0938 10.2188H17.4062V13.0938Z" fill="#C80A3D"/>
<path d="M3.49126 3.8004C2.68914 4.15043 2.95436 5.18758 3.75001 5.18758H15.25C15.6446 5.18758 15.9688 5.51174 15.9688 5.90633V6.62508C15.9688 7.01968 16.2929 7.34383 16.6875 7.34383C17.0821 7.34383 17.4063 7.01968 17.4063 6.62508V5.90633C17.4055 5.33493 17.1784 4.78652 16.7738 4.38258C16.3698 3.97793 15.8214 3.7508 15.25 3.75008H15.02L13.7622 0.609147C13.6163 0.246178 13.1994 0.0650527 12.835 0.206646L3.49126 3.8004ZM13.4675 3.75008H7.62408L12.6913 1.80227L13.4675 3.75008Z" fill="#C80A3D"/>
</svg>
