<svg width="22" height="22" viewBox="0 0 22 22" fill="none" xmlns="http://www.w3.org/2000/svg">
<path d="M20.7109 5.02734H1.33203C0.620125 5.02734 0.0429688 5.6045 0.0429688 6.31641C0.0429688 7.02831 0.620125 7.60547 1.33203 7.60547H20.7109C21.4228 7.60547 22 7.02831 22 6.31641C22 5.6045 21.4228 5.02734 20.7109 5.02734Z" fill="#C80A3D"/>
<path d="M21.1406 0H0.859375C0.384742 0 0 0.384742 0 0.859375C0 1.33401 0.384742 1.71875 0.859375 1.71875H21.1406C21.6153 1.71875 22 1.33401 22 0.859375C22 0.384742 21.6153 0 21.1406 0Z" fill="#C80A3D"/>
<path d="M19.8516 17.7031H2.19141C1.00487 17.7031 0.0429688 18.665 0.0429688 19.8516C0.0429688 21.0381 1.00487 22 2.19141 22H19.8516C21.0381 22 22 21.0381 22 19.8516C22 18.665 21.0381 17.7031 19.8516 17.7031Z" fill="#C80A3D"/>
<path d="M20.2812 10.9141H1.76172C0.812496 10.9141 0.0429688 11.6836 0.0429688 12.6328C0.0429688 13.582 0.812496 14.3516 1.76172 14.3516H20.2812C21.2305 14.3516 22 13.582 22 12.6328C22 11.6836 21.2305 10.9141 20.2812 10.9141Z" fill="#C80A3D"/>
</svg>
