<svg width="23" height="23" viewBox="0 0 23 23" fill="none" xmlns="http://www.w3.org/2000/svg">
<g clip-path="url(#clip0_64_1654)">
<path d="M16.2275 12.4159L14.8354 11.0238L18.5145 7.34462L18.991 7.82106C19.2995 8.12958 19.8187 8.0688 20.0452 7.69128L22.904 2.92675C23.0631 2.66162 23.0213 2.32224 22.8026 2.10365L20.8968 0.197843C20.6782 -0.0207911 20.3388 -0.0625234 20.0737 0.0964995L15.3091 2.95523C14.9331 3.18082 14.8699 3.70003 15.1794 4.00945L15.6558 4.48589L11.9767 8.16502L10.5845 6.7729C11.0746 4.94198 10.5748 2.95123 9.18879 1.56521C7.45512 -0.168404 4.85986 -0.442786 2.83026 0.650474C2.64275 0.751503 2.51405 0.935188 2.4831 1.14592C2.4522 1.35664 2.52272 1.56957 2.67335 1.72019L5.20208 4.24893C5.46482 4.51167 5.46482 4.93915 5.20208 5.20181C4.93933 5.46455 4.5119 5.4646 4.24915 5.20181L1.72042 2.67303C1.5698 2.52241 1.35683 2.45183 1.14614 2.48279C0.935416 2.51369 0.751731 2.64244 0.650702 2.82994C-0.438424 4.85196 -0.174015 7.44893 1.56553 9.18843C2.94845 10.5713 4.93816 11.0754 6.77321 10.5842L7.21228 11.0233L0.988333 17.2473C-0.32904 18.5647 -0.329849 20.6939 0.988333 22.0121C2.30198 23.3257 4.4394 23.3258 5.75309 22.0121L11.977 15.788L12.4161 16.2272C11.9261 18.0581 12.4259 20.0488 13.8119 21.4348C15.5456 23.1685 18.1408 23.4429 20.1704 22.3496C20.3579 22.2486 20.4866 22.0649 20.5176 21.8542C20.5485 21.6435 20.478 21.4305 20.3273 21.2799L17.7986 18.7512C17.5359 18.4884 17.5359 18.061 17.7986 17.7983C18.0614 17.5356 18.4888 17.5356 18.7515 17.7983L21.2803 20.327C21.4308 20.4777 21.6438 20.5481 21.8545 20.5173C22.0653 20.4864 22.249 20.3576 22.35 20.1701C23.4391 18.1481 23.1747 15.5511 21.4352 13.8116C20.0523 12.4288 18.0626 11.9247 16.2275 12.4159ZM20.3159 1.52276L21.4777 2.68453L19.3337 6.25787L16.7425 3.66679L20.3159 1.52276ZM16.6087 5.43881L17.5616 6.39169L13.8825 10.0708L12.9296 9.11795L16.6087 5.43881ZM4.80016 21.0593C4.01197 21.8475 2.72945 21.8475 1.94121 21.0593C1.15037 20.2684 1.14987 18.9916 1.94121 18.2003L8.16511 11.9762L11.0241 14.8352L4.80016 21.0593ZM21.5144 18.6554L19.7045 16.8454C18.9164 16.0574 17.6339 16.0573 16.8457 16.8454C16.0576 17.6335 16.0576 18.916 16.8457 19.7042L18.6557 21.5141C17.2805 21.8895 15.8025 21.5196 14.7649 20.482C13.6667 19.3838 13.2938 17.7282 13.8149 16.2642C13.9021 16.0191 13.8405 15.7457 13.6566 15.5618L7.43864 9.34386C7.25509 9.16031 6.98187 9.09809 6.73624 9.18551C5.27215 9.70665 3.61661 9.3337 2.51841 8.23555C1.48081 7.19795 1.11088 5.71993 1.48634 4.34479L3.29627 6.15473C4.08438 6.94284 5.36681 6.94279 6.155 6.15473C6.94311 5.36662 6.94311 4.0842 6.155 3.296L4.34506 1.48606C5.72016 1.11052 7.19826 1.48054 8.23586 2.51814C9.33406 3.61634 9.70696 5.27193 9.18582 6.73597C9.09858 6.98107 9.16022 7.25446 9.34417 7.43837L15.5621 13.6563C15.746 13.8402 16.0194 13.9018 16.2644 13.8146C17.7284 13.2935 19.3841 13.6664 20.4823 14.7646C21.5199 15.8023 21.8899 17.2802 21.5144 18.6554Z" fill="#C80A3D"/>
<path d="M8.76108 14.3743C8.49793 14.1112 8.07135 14.1112 7.8082 14.3743L3.69077 18.4919C3.42766 18.7551 3.42766 19.1816 3.69077 19.4448C3.95396 19.7079 4.3805 19.7079 4.64365 19.4448L8.76104 15.3272C9.02414 15.0641 9.02414 14.6374 8.76108 14.3743Z" fill="#C80A3D"/>
</g>
<defs>
<clipPath id="clip0_64_1654">
<rect width="23" height="23" fill="white"/>
</clipPath>
</defs>
</svg>
