<svg width="23" height="23" viewBox="0 0 23 23" fill="none" xmlns="http://www.w3.org/2000/svg">
<g clip-path="url(#clip0_64_1673)">
<path d="M22.5818 17.1809C22.5809 17.1794 22.5801 17.1779 22.5793 17.1764L14.453 2.5858C13.1734 0.251399 9.82653 0.251399 8.54702 2.58549L0.420487 17.1764C0.419634 17.1779 0.418825 17.1794 0.418016 17.1809C-0.809202 19.4242 0.812385 22.1648 3.37252 22.1648H19.6272C22.1842 22.1649 23.8105 19.4271 22.5818 17.1809ZM19.6273 20.8179H3.37257C1.83768 20.8179 0.86418 19.1755 1.59888 17.8293L9.72478 3.23937C9.72563 3.23789 9.72644 3.23641 9.72725 3.23488C10.4946 1.83211 12.5052 1.83224 13.2727 3.23488C13.2735 3.23636 13.2743 3.23784 13.2751 3.23937L21.401 17.8293C22.1362 19.1764 21.1611 20.8179 19.6273 20.8179Z" fill="#C80A3D"/>
<path d="M19.9461 18.2304L8.05469 10.6003C7.72586 10.3895 7.2872 10.5018 7.10006 10.8439L2.92588 18.474C2.68087 18.9217 3.00534 19.4708 3.51673 19.4708H19.483C19.4993 19.4708 19.5157 19.4702 19.5318 19.469C19.5484 19.4702 19.5651 19.4709 19.5817 19.4709C20.2506 19.4709 20.5118 18.5934 19.9461 18.2304ZM4.65294 18.1237L7.9352 12.1242L17.2854 18.1237H4.65294Z" fill="#C80A3D"/>
</g>
<defs>
<clipPath id="clip0_64_1673">
<rect width="23" height="23" fill="white"/>
</clipPath>
</defs>
</svg>
