<svg width="23" height="23" viewBox="0 0 23 23" fill="none" xmlns="http://www.w3.org/2000/svg">
<path d="M6.73307 11.4614C6.70513 11.2378 6.56731 11.043 6.36579 10.9422L4.04297 9.7808V6.1543C4.04297 5.78216 3.74127 5.48047 3.36914 5.48047H0.673828C0.301695 5.48047 0 5.78216 0 6.1543V22.3262C0 22.6983 0.301695 23 0.673828 23H7.41211C7.81717 23 8.13099 22.6446 8.08073 22.2426L6.73307 11.4614ZM1.34766 21.6523V6.82812H2.69531V10.1973C2.69531 10.4525 2.83951 10.6858 3.0678 10.8L5.44053 11.9864L6.6488 21.6523H1.34766Z" fill="#C80A3D"/>
<path d="M22.3262 5.48047H19.6309C19.2587 5.48047 18.957 5.78216 18.957 6.1543V9.7808L16.6342 10.9422C16.4327 11.043 16.2949 11.2378 16.2669 11.4613L14.9193 22.2426C14.869 22.6445 15.1828 23 15.5879 23H22.3262C22.6983 23 23 22.6983 23 22.3262V6.1543C23 5.78216 22.6983 5.48047 22.3262 5.48047ZM21.6524 21.6523H16.3512L17.5594 11.9863L19.9322 10.7999C20.1605 10.6858 20.3047 10.4525 20.3047 10.1973V6.82812H21.6524V21.6523Z" fill="#C80A3D"/>
<path d="M11.5 14.9141C10.3854 14.9141 9.47852 15.8209 9.47852 16.9355C9.47852 18.0502 10.3854 18.957 11.5 18.957C12.6146 18.957 13.5215 18.0502 13.5215 16.9355C13.5215 15.8209 12.6146 14.9141 11.5 14.9141ZM11.5 17.6094C11.1285 17.6094 10.8262 17.3071 10.8262 16.9355C10.8262 16.564 11.1285 16.2617 11.5 16.2617C11.8715 16.2617 12.1738 16.564 12.1738 16.9355C12.1738 17.3071 11.8715 17.6094 11.5 17.6094Z" fill="#C80A3D"/>
<path d="M9.47852 10.1973C9.47852 9.82513 9.17682 9.52344 8.80469 9.52344C8.43255 9.52344 8.13086 9.82513 8.13086 10.1973V14.2402C8.13086 14.6124 8.43255 14.9141 8.80469 14.9141C9.17682 14.9141 9.47852 14.6124 9.47852 14.2402V10.1973Z" fill="#C80A3D"/>
<path d="M11.5 8.17578C11.1279 8.17578 10.8262 8.47748 10.8262 8.84961V12.8926C10.8262 13.2647 11.1279 13.5664 11.5 13.5664C11.8721 13.5664 12.1738 13.2647 12.1738 12.8926V8.84961C12.1738 8.47748 11.8721 8.17578 11.5 8.17578Z" fill="#C80A3D"/>
<path d="M14.1953 9.52344C13.8232 9.52344 13.5215 9.82513 13.5215 10.1973V14.2402C13.5215 14.6124 13.8232 14.9141 14.1953 14.9141C14.5674 14.9141 14.8691 14.6124 14.8691 14.2402V10.1973C14.8691 9.82513 14.5674 9.52344 14.1953 9.52344Z" fill="#C80A3D"/>
<path d="M11.0234 6.5408C11.2834 6.80099 11.7123 6.80526 11.9766 6.5408L13.3241 5.19324C13.5872 4.93009 13.5872 4.50346 13.3241 4.24031C13.061 3.97716 12.6343 3.97716 12.3712 4.24031L12.1738 4.4377V0.673828C12.1738 0.301695 11.8721 0 11.5 0C11.1279 0 10.8262 0.301695 10.8262 0.673828V4.4377L10.6288 4.24031C10.3657 3.97716 9.939 3.97716 9.67585 4.24031C9.4127 4.50346 9.4127 4.93009 9.67585 5.19324L11.0234 6.5408Z" fill="#C80A3D"/>
</svg>
