<svg width="23" height="23" viewBox="0 0 23 23" fill="none" xmlns="http://www.w3.org/2000/svg">
<path d="M21.2774 19.6014L21.6064 17.0719C22.0887 13.3651 22.0887 9.60601 21.6064 5.89921L21.2873 3.44627C21.3172 3.31923 21.4505 2.85213 22.0328 1.37646C22.1755 1.01502 22.0919 0.602188 21.8199 0.324752C21.548 0.0474509 21.1372 -0.0442791 20.7731 0.0912046C18.8772 0.796519 18.089 0.999161 17.9203 1.00801H8.4579C8.28545 0.998981 7.47699 0.790185 5.52924 0.0629489C5.17827 -0.0681325 4.78961 0.00872846 4.51491 0.263434C4.24022 0.51823 4.13429 0.900109 4.23869 1.26016C4.64316 2.65515 4.73121 3.07854 4.75012 3.19057L4.39767 5.8993C4.16794 7.66549 4.04737 9.60997 4.044 11.5284C3.35571 11.0201 2.50817 10.7277 1.58998 10.7277H0.917186L0.898499 23H14.0752V22.3262C14.0752 22.2038 14.0691 22.0829 14.059 21.9631H18.59C18.6996 21.996 19.1458 22.1519 20.6708 22.8567C20.8042 22.9185 20.9456 22.9485 21.0856 22.9485C21.3317 22.9485 21.5736 22.8556 21.7612 22.6781C22.0558 22.3994 22.1494 21.976 21.9999 21.5991C21.4371 20.1803 21.307 19.7261 21.2774 19.6014ZM2.24812 21.6523L2.26263 12.1561C3.31497 12.4146 4.13492 13.2721 4.35333 14.4159C4.45121 14.9287 4.95074 15.2737 5.46617 15.1854C5.6287 15.1575 5.79536 15.1433 5.96152 15.1433C7.56522 15.1433 8.86992 16.448 8.86992 18.0517C8.86992 18.153 8.86462 18.2553 8.85407 18.356C8.8259 18.6261 8.91413 18.8968 9.0961 19.0985C9.27916 19.3014 9.54119 19.4177 9.81458 19.4177H9.81552H9.82118C11.1921 19.4187 12.344 20.3731 12.6486 21.6523H2.24812V21.6523ZM20.4232 21.263C18.9771 20.6155 18.8046 20.6154 18.6498 20.6154H13.7153C13.1065 19.2349 11.7852 18.2361 10.2175 18.0889C10.2176 18.0765 10.2177 18.0641 10.2177 18.0517C10.2177 15.7049 8.3084 13.7957 5.96161 13.7957C5.83947 13.7957 5.71715 13.8009 5.59536 13.8114C5.54788 13.6387 5.49061 13.4712 5.4243 13.3094C5.33073 10.8981 5.43998 8.33388 5.73408 6.07315L6.09498 3.2991C6.1134 3.15738 6.13236 3.01143 5.72928 1.57236C7.8958 2.3557 8.29556 2.35566 8.45476 2.35566H17.9235C18.0777 2.35566 18.4614 2.35566 20.4887 1.62991C19.895 3.18994 19.9183 3.36882 19.9408 3.54258L20.27 6.07306C20.7373 9.6645 20.7373 13.3066 20.27 16.898L19.9309 19.5049C19.909 19.6737 19.8864 19.8474 20.4232 21.263Z" fill="#C80A3D"/>
<path d="M8.8689 11.9492H17.2692V6.69336H8.8689V11.9492ZM10.2165 8.04101H15.9216V10.6015H10.2165V8.04101Z" fill="#C80A3D"/>
<path d="M6.94728 19.4363C6.59483 19.4363 6.25715 19.7462 6.27346 20.1101C6.28981 20.4752 6.56954 20.7839 6.94728 20.7839C7.29974 20.7839 7.63742 20.474 7.62111 20.1101C7.60476 19.745 7.32503 19.4363 6.94728 19.4363Z" fill="#C80A3D"/>
<path d="M3.90755 16.5762C3.55509 16.5762 3.21742 16.8861 3.23372 17.25C3.25007 17.6151 3.5298 17.9238 3.90755 17.9238C4.26001 17.9238 4.59769 17.6139 4.58138 17.25C4.56503 16.8849 4.2853 16.5762 3.90755 16.5762Z" fill="#C80A3D"/>
<path d="M11.1375 13.3118H15.0007V14.6594H11.1375V13.3118Z" fill="#C80A3D"/>
</svg>
