<svg width="23" height="23" viewBox="0 0 23 23" fill="none" xmlns="http://www.w3.org/2000/svg">
<path d="M0 0V23H23V0C22.0307 0 0.439246 0 0 0ZM1.34766 1.34766H1.6901C6.11602 1.34766 9.92621 4.77982 10.3643 9.16137C10.7044 12.5622 12.7664 15.5595 15.8288 17.0906C17.8936 18.1231 19.6973 19.6966 21.0625 21.6523H1.34766V1.34766ZM19.0587 17.5645H21.6523V20.1837C20.8866 19.2042 20.0149 18.3248 19.0587 17.5645ZM16.2617 9.47852V12.1738H12.6426C12.2084 11.3422 11.909 10.434 11.7632 9.47852H16.2617ZM21.6523 9.47852V12.1738H17.6094V9.47852H21.6523ZM21.6523 16.2168H20.3047V13.5215H21.6523V16.2168ZM18.957 13.5215V16.2168H17.056C16.8504 16.1013 16.6423 15.9906 16.4315 15.8852C15.2751 15.307 14.2879 14.4962 13.5165 13.5215H18.957ZM21.6523 8.13086H20.3047V5.43555H21.6523V8.13086ZM18.957 8.13086H14.9141V5.43555H18.957V8.13086ZM12.2188 4.08789V1.34766H16.2617V4.08789H12.2188ZM13.5664 5.43555V8.13086H11.5737C11.3909 7.1884 11.0718 6.28179 10.63 5.43555H13.5664ZM21.6523 4.08789H17.6094V1.34766H21.6523V4.08789ZM10.8711 1.34766V4.08789H9.78336C8.94808 2.96664 7.89462 2.03595 6.70275 1.34766H10.8711Z" fill="#C80A3D"/>
</svg>
