<svg width="23" height="23" viewBox="0 0 23 23" fill="none" xmlns="http://www.w3.org/2000/svg">
<path d="M10.3185 1.79688C10.1999 1.79688 10.0845 1.8449 10.0009 1.9285C9.91739 2.01205 9.86932 2.12795 9.86932 2.24609C9.86932 2.36424 9.91739 2.48014 10.0009 2.56365C10.0845 2.6472 10.2004 2.69531 10.3185 2.69531C10.4367 2.69531 10.5526 2.64725 10.6361 2.56365C10.7197 2.48014 10.7678 2.36424 10.7678 2.24609C10.7678 2.12795 10.7197 2.01205 10.6361 1.9285C10.5526 1.8449 10.4367 1.79688 10.3185 1.79688Z" fill="#C80A3D"/>
<path d="M8.33386 2.58887C8.21572 2.58887 8.09982 2.63693 8.01626 2.72049C7.93271 2.80404 7.88464 2.91994 7.88464 3.03854C7.88464 3.15668 7.93271 3.27258 8.01626 3.35573C8.09982 3.43969 8.21572 3.48775 8.33386 3.48775C8.45201 3.48775 8.5679 3.43969 8.65146 3.35573C8.73501 3.27258 8.78308 3.15668 8.78308 3.03854C8.78308 2.91994 8.73501 2.80404 8.65146 2.72049C8.5679 2.63693 8.45201 2.58887 8.33386 2.58887Z" fill="#C80A3D"/>
<path d="M12.3027 2.58887C12.1846 2.58887 12.0687 2.63693 11.9851 2.72049C11.9016 2.80449 11.8535 2.91994 11.8535 3.03854C11.8535 3.15668 11.9016 3.27213 11.9851 3.35573C12.0687 3.43969 12.1846 3.48775 12.3027 3.48775C12.4209 3.48775 12.5368 3.43969 12.6203 3.35573C12.7043 3.27217 12.752 3.15668 12.752 3.03854C12.752 2.91994 12.7044 2.80449 12.6203 2.72049C12.5368 2.63693 12.4209 2.58887 12.3027 2.58887Z" fill="#C80A3D"/>
<path d="M22.9475 22.3499L20.4072 17.2692C19.8011 16.0571 18.6025 15.2893 17.2566 15.241L17.4743 13.225C17.8051 12.9403 18.1171 12.6312 18.4067 12.2984C19.8417 10.6487 20.6319 8.53462 20.6319 6.34557C20.6319 6.09747 20.4308 5.89636 20.1827 5.89636H18.4943V5.08776C18.4943 4.8397 18.2931 4.63854 18.045 4.63854H17.6023C16.916 3.30329 15.9258 2.1748 14.7248 1.36311C13.4053 0.471365 11.8816 0 10.3184 0C8.75525 0 7.23159 0.471365 5.9121 1.36315C4.71111 2.17485 3.72094 3.30333 3.03463 4.63859H2.59188C2.34377 4.63859 2.14266 4.83975 2.14266 5.08781V5.8964L0.454224 5.89645C0.20612 5.89645 0.00500488 6.09761 0.00500488 6.34566C0.00500488 8.52779 0.790913 10.6368 2.2179 12.2842C2.51084 12.6223 2.827 12.9362 3.16265 13.225L4.00058 20.9871C4.12448 22.1346 5.08827 23 6.2425 23H22.5457C22.7014 23 22.846 22.9194 22.9278 22.787C23.0097 22.6546 23.0171 22.4891 22.9475 22.3499ZM13.1496 14.3662C12.9209 13.8748 12.4226 13.5331 11.8458 13.5331H8.79109C8.21421 13.5331 7.71593 13.8748 7.48724 14.3664C6.19066 14.1096 5.00858 13.5419 4.015 12.7498L3.50792 8.05265H8.2784C8.52651 8.05265 8.72762 7.85149 8.72762 7.60343C8.72762 7.35533 8.52651 7.15421 8.2784 7.15421H3.04109V5.53703H17.5958V7.15421H12.3214C12.0733 7.15421 11.8722 7.35533 11.8722 7.60343C11.8722 7.85149 12.0733 8.05265 12.3214 8.05265H17.129L16.6217 12.752C15.6283 13.5429 14.4464 14.1096 13.1496 14.3662ZM12.3848 14.9707C12.3848 15.2679 12.143 15.5097 11.8458 15.5097H8.79109C8.49385 15.5097 8.25203 15.2679 8.25203 14.9706C8.25203 14.6734 8.49385 14.4316 8.79109 14.4316H11.8458C12.143 14.4316 12.3848 14.6734 12.3848 14.9707ZM19.7209 6.79488C19.6153 8.69355 18.8442 10.4478 17.6277 11.8033L18.0326 8.05265H18.045C18.2931 8.05265 18.4942 7.85149 18.4942 7.60343V6.79484L19.7209 6.79488ZM10.3184 0.898438C12.8757 0.898438 15.2169 2.31438 16.5782 4.63859H4.05871C5.41993 2.31438 7.76122 0.898438 10.3184 0.898438ZM0.915976 6.79484H2.14266V7.60343C2.14266 7.85149 2.34377 8.05265 2.59188 8.05265H2.60427L3.0088 11.7999C1.7929 10.444 1.02181 8.69018 0.915976 6.79484ZM4.89381 20.8906L4.14581 13.9616C5.12659 14.5976 6.22556 15.0416 7.38306 15.2609C7.51769 15.9149 8.09786 16.4081 8.79109 16.4081H11.8458C12.539 16.4081 13.119 15.9149 13.2538 15.261C14.4114 15.0417 15.5102 14.5976 16.4911 13.9615L16.3444 15.3202C15.2669 15.5503 14.3433 16.2538 13.8356 17.2692L11.4195 22.1016H6.2425C5.54814 22.1016 4.96833 21.581 4.89381 20.8906ZM12.424 22.1016L14.6392 17.671C15.1196 16.7104 16.0475 16.1369 17.1214 16.1369C18.1954 16.1369 19.1233 16.7104 19.6036 17.671L21.8189 22.1016H12.424Z" fill="#C80A3D"/>
<path d="M17.4921 17.7891C17.3735 17.7891 17.2581 17.8371 17.1745 17.9207C17.091 18.0042 17.0429 18.1201 17.0429 18.2383C17.0429 18.3564 17.091 18.4723 17.1745 18.5558C17.2581 18.6394 17.3735 18.6875 17.4921 18.6875C17.6103 18.6875 17.7262 18.6394 17.8097 18.5558C17.8933 18.4723 17.9413 18.3564 17.9413 18.2383C17.9413 18.1201 17.8933 18.0042 17.8097 17.9207C17.7262 17.8371 17.6103 17.7891 17.4921 17.7891Z" fill="#C80A3D"/>
<path d="M18.8173 19.6758C18.6992 19.6758 18.5833 19.7238 18.4997 19.8074C18.4162 19.891 18.3681 20.0069 18.3681 20.125C18.3681 20.2431 18.4162 20.359 18.4997 20.4426C18.5833 20.5261 18.6992 20.5742 18.8173 20.5742C18.9355 20.5742 19.0514 20.5262 19.1349 20.4426C19.2185 20.359 19.2665 20.2431 19.2665 20.125C19.2665 20.0069 19.2185 19.891 19.1349 19.8074C19.0514 19.7238 18.9355 19.6758 18.8173 19.6758Z" fill="#C80A3D"/>
<path d="M16.2716 19.6758C16.1535 19.6758 16.0376 19.7238 15.954 19.8074C15.8705 19.891 15.8224 20.0069 15.8224 20.125C15.8224 20.2431 15.8705 20.359 15.954 20.4426C16.038 20.5261 16.1535 20.5742 16.2716 20.5742C16.3897 20.5742 16.5056 20.5262 16.5892 20.4426C16.6728 20.359 16.7208 20.2431 16.7208 20.125C16.7208 20.0069 16.6728 19.891 16.5892 19.8074C16.5056 19.7238 16.3897 19.6758 16.2716 19.6758Z" fill="#C80A3D"/>
<path d="M10.2997 7.13574C10.1815 7.13574 10.0661 7.1834 9.98251 7.26691C9.89851 7.35092 9.85089 7.46641 9.85089 7.58496C9.85089 7.70311 9.89851 7.819 9.98251 7.90256C10.0661 7.98611 10.1815 8.03418 10.2997 8.03418C10.4183 8.03418 10.5337 7.98616 10.6177 7.90256C10.7013 7.81855 10.7493 7.70311 10.7493 7.58496C10.7493 7.46682 10.7013 7.35092 10.6177 7.26691C10.5337 7.18336 10.4183 7.13574 10.2997 7.13574Z" fill="#C80A3D"/>
</svg>
