<svg width="26" height="26" viewBox="0 0 26 26" fill="none" xmlns="http://www.w3.org/2000/svg">
<path d="M23.9375 5.5H17.9941C18.3881 4.97688 18.625 4.32875 18.625 3.625C18.625 1.90188 17.2231 0.5 15.5 0.5C14.4772 0.5 13.5706 0.99625 13 1.75813C12.4297 0.99625 11.5228 0.5 10.5 0.5C8.77687 0.5 7.375 1.90188 7.375 3.625C7.375 4.32875 7.61187 4.97688 8.00593 5.5H2.0625C1.02844 5.5 0.1875 6.34094 0.1875 7.375V9.875C0.1875 10.6897 0.710312 11.3825 1.4375 11.6406V23.625C1.4375 24.6591 2.27844 25.5 3.3125 25.5H22.6875C23.7216 25.5 24.5625 24.6591 24.5625 23.625V11.6406C25.2897 11.3825 25.8125 10.6897 25.8125 9.875V7.375C25.8125 6.34094 24.9715 5.5 23.9375 5.5ZM11.125 10.5V6.75H14.875V10.5H11.125ZM14.875 11.75V24.25H11.125V11.75H14.875ZM15.5 1.75C16.5341 1.75 17.375 2.59094 17.375 3.625C17.375 4.65906 16.5341 5.5 15.5 5.5H13.625V3.625C13.625 2.59094 14.4659 1.75 15.5 1.75ZM8.625 3.625C8.625 2.59094 9.46593 1.75 10.5 1.75C11.5341 1.75 12.375 2.59094 12.375 3.625V5.5H10.5C9.46593 5.5 8.625 4.65906 8.625 3.625ZM1.4375 7.375C1.4375 7.03031 1.71781 6.75 2.0625 6.75H9.875V10.5H2.0625C1.71781 10.5 1.4375 10.2197 1.4375 9.875V7.375ZM2.6875 23.625V11.75H9.875V24.25H3.3125C2.96781 24.25 2.6875 23.9697 2.6875 23.625ZM22.6875 24.25H16.125V11.75H23.3125V23.625C23.3125 23.9697 23.0322 24.25 22.6875 24.25ZM24.5625 9.875C24.5625 10.2197 24.2822 10.5 23.9375 10.5H16.125V6.75H23.9375C24.2822 6.75 24.5625 7.03031 24.5625 7.375V9.875Z" fill="#7F8B25"/>
</svg>
