<svg width="30" height="26" viewBox="0 0 30 26" fill="none" xmlns="http://www.w3.org/2000/svg">
<path d="M13.8572 17.5713H9.28578C9.13423 17.5713 8.98889 17.6315 8.88172 17.7387C8.77456 17.8458 8.71436 17.9912 8.71436 18.1427C8.71436 18.2942 8.77456 18.4396 8.88172 18.5468C8.98889 18.6539 9.13423 18.7141 9.28578 18.7141H13.8572C14.0088 18.7141 14.1541 18.6539 14.2613 18.5468C14.3684 18.4396 14.4286 18.2942 14.4286 18.1427C14.4286 17.9912 14.3684 17.8458 14.2613 17.7387C14.1541 17.6315 14.0088 17.5713 13.8572 17.5713Z" fill="#7F8B25"/>
<path d="M22.4286 11.857V2.04333C22.428 1.61522 22.2577 1.20483 21.955 0.902116C21.6523 0.599402 21.2419 0.429071 20.8138 0.428467H2.32921C1.90111 0.429071 1.49072 0.599402 1.188 0.902116C0.885291 1.20483 0.71496 1.61522 0.714355 2.04333V20.5279C0.71496 20.956 0.885291 21.3664 1.188 21.6691C1.49072 21.9718 1.90111 22.1422 2.32921 22.1428H16.5006C17.1027 23.1856 17.9688 24.0515 19.0117 24.6533C20.0546 25.2552 21.2376 25.5718 22.4417 25.5713C23.6458 25.5709 24.8286 25.2534 25.8711 24.6507C26.9135 24.048 27.7789 23.1815 28.3802 22.1382C28.9814 21.095 29.2974 19.9118 29.2962 18.7077C29.2951 17.5035 28.9769 16.3209 28.3736 15.2788C27.7704 14.2367 26.9034 13.3718 25.8598 12.7712C24.8161 12.1705 23.6328 11.8552 22.4286 11.857ZM21.2858 2.04333V5.57133H15.5715V1.57133H20.8138C20.939 1.57133 21.059 1.62105 21.1475 1.70957C21.2361 1.79809 21.2858 1.91814 21.2858 2.04333ZM8.71436 1.57133H14.4286V8.64676L11.8275 7.34619C11.748 7.30637 11.6604 7.28564 11.5715 7.28564C11.4826 7.28564 11.395 7.30637 11.3155 7.34619L8.71436 8.64676V1.57133ZM2.32921 1.57133H7.5715V5.57133H1.85721V2.04333C1.85721 1.91814 1.90694 1.79809 1.99546 1.70957C2.08398 1.62105 2.20403 1.57133 2.32921 1.57133ZM2.32921 20.9999C2.20412 20.9996 2.08424 20.9498 1.99579 20.8613C1.90734 20.7729 1.85751 20.653 1.85721 20.5279V6.71419H7.5715V9.57133C7.5715 9.66878 7.59643 9.7646 7.6439 9.8497C7.69137 9.9348 7.75982 10.0063 7.84273 10.0575C7.92565 10.1087 8.02028 10.1379 8.11763 10.1422C8.21498 10.1465 8.31181 10.1258 8.39893 10.0822L11.5715 8.4959L14.7441 10.0822C14.8235 10.122 14.9112 10.1428 15.0001 10.1428C15.1516 10.1428 15.297 10.0826 15.4041 9.9754C15.5113 9.86823 15.5715 9.72289 15.5715 9.57133V6.71419H21.2858V11.9599C20.2989 12.1231 19.3598 12.5012 18.5352 13.0674C17.7105 13.6336 17.0202 14.374 16.5133 15.2364C16.0063 16.0987 15.695 17.0619 15.6014 18.0579C15.5078 19.0538 15.6341 20.0582 15.9715 20.9999H2.32921ZM22.4286 24.4285C21.2985 24.4285 20.1937 24.0934 19.254 23.4655C18.3143 22.8376 17.5818 21.9451 17.1493 20.901C16.7168 19.8568 16.6037 18.7079 16.8242 17.5994C17.0446 16.4909 17.5889 15.4727 18.388 14.6736C19.1872 13.8744 20.2054 13.3302 21.3138 13.1097C22.4223 12.8892 23.5713 13.0024 24.6154 13.4349C25.6596 13.8674 26.552 14.5998 27.1799 15.5395C27.8078 16.4792 28.1429 17.584 28.1429 18.7142C28.1411 20.2292 27.5385 21.6816 26.4673 22.7528C25.396 23.8241 23.9436 24.4267 22.4286 24.4285Z" fill="#7F8B25"/>
<path d="M24.6287 16.5955L21.6047 19.6206L20.2333 18.2492C20.1255 18.1451 19.9812 18.0875 19.8314 18.0888C19.6815 18.0901 19.5382 18.1502 19.4323 18.2561C19.3263 18.3621 19.2662 18.5054 19.2649 18.6552C19.2636 18.8051 19.3212 18.9494 19.4253 19.0572L21.2047 20.8377C21.3119 20.9449 21.4572 21.005 21.6087 21.005C21.7602 21.005 21.9056 20.9449 22.0127 20.8377L25.4413 17.4092C25.5486 17.302 25.6089 17.1566 25.609 17.005C25.6091 16.8534 25.549 16.7079 25.4418 16.6006C25.3347 16.4933 25.1893 16.433 25.0377 16.4329C24.886 16.4328 24.7406 16.4929 24.6333 16.6L24.6287 16.5955Z" fill="#7F8B25"/>
</svg>
