<svg width="27" height="27" viewBox="0 0 27 27" fill="none" xmlns="http://www.w3.org/2000/svg">
<path d="M24.7562 3.24497L24.1597 2.64844L21.9267 4.88142L21.3812 4.33594L20.7847 4.93247L21.9267 6.07448L24.7562 3.24497Z" fill="#7F8B25"/>
<path d="M7.49856 5.73117L6.82356 5.22534L4.58425 8.21095L4.08432 7.71103L3.48779 8.30756L4.67537 9.49556L7.49856 5.73117Z" fill="#7F8B25"/>
<path d="M23.1924 17.7124V7.98439C25.0879 7.77387 26.5674 6.16357 26.5674 4.2124C26.5674 2.11864 24.8639 0.415527 22.7705 0.415527C20.8198 0.415527 19.209 1.89504 18.9985 3.79053H17.2861V3.36865C17.2861 2.20554 16.3399 1.25928 15.1768 1.25928H12.9898C12.8151 0.76948 12.351 0.415527 11.8018 0.415527H5.89551C5.34623 0.415527 4.88217 0.76948 4.70751 1.25928H2.52051C1.3574 1.25928 0.411133 2.20554 0.411133 3.36865V21.9312C0.411133 23.0943 1.3574 24.0405 2.52051 24.0405H13.0674C13.0674 24.7383 13.6352 25.3062 14.333 25.3062H14.8148C15.0034 26.0322 15.6585 26.5718 16.4424 26.5718C17.2262 26.5718 17.8814 26.0322 18.07 25.3062H21.5648C21.7534 26.0322 22.4085 26.5718 23.1924 26.5718C23.9762 26.5718 24.6314 26.0322 24.82 25.3062H25.3018C25.9995 25.3062 26.5674 24.7383 26.5674 24.0405V19.6813L25.0908 17.7124H23.1924ZM22.7705 1.25928C24.399 1.25928 25.7236 2.58439 25.7236 4.2124C25.7236 5.84042 24.399 7.16553 22.7705 7.16553C21.1421 7.16553 19.8174 5.84042 19.8174 4.2124C19.8174 2.58439 21.1421 1.25928 22.7705 1.25928ZM17.2861 4.63428H18.9985C19.1939 6.39139 20.592 7.78906 22.3486 7.98439V17.7124H21.5049V16.0249H17.2861V4.63428ZM18.9736 18.5562V16.8687H20.6611V22.7749H13.9111V16.8687H15.5986V18.5562H18.9736ZM18.1299 16.8687V17.7124H16.4424V16.8687H18.1299ZM13.0674 2.10303H15.1768C15.8745 2.10303 16.4424 2.67087 16.4424 3.36865V16.0249H15.5986V3.79053C15.5986 3.3252 15.2202 2.94678 14.7549 2.94678H13.0674V2.10303ZM5.47363 1.68115C5.47363 1.44828 5.66306 1.25928 5.89551 1.25928H11.8018C12.0342 1.25928 12.2236 1.44828 12.2236 1.68115V3.36865C12.2236 3.60153 12.0342 3.79053 11.8018 3.79053H5.89551C5.66306 3.79053 5.47363 3.60153 5.47363 3.36865V1.68115ZM13.0674 22.7749V23.1968H2.52051C1.82273 23.1968 1.25488 22.6289 1.25488 21.9312V3.36865C1.25488 2.67087 1.82273 2.10303 2.52051 2.10303H4.62988V2.94678H2.94238C2.47706 2.94678 2.09863 3.3252 2.09863 3.79053V21.5093C2.09863 21.9746 2.47706 22.353 2.94238 22.353H13.0674V22.7749ZM13.0674 16.0249V21.5093H2.94238V3.79053H4.70751C4.88217 4.28032 5.34623 4.63428 5.89551 4.63428H11.8018C12.351 4.63428 12.8151 4.28032 12.9898 3.79053H14.7549V16.0249H13.0674ZM14.8148 24.4624H14.333C14.1006 24.4624 13.9111 24.2734 13.9111 24.0405V23.6187H15.3379C15.0861 23.8389 14.9013 24.1295 14.8148 24.4624ZM16.4424 25.728C15.9771 25.728 15.5986 25.3496 15.5986 24.8843C15.5986 24.4189 15.9771 24.0405 16.4424 24.0405C16.9077 24.0405 17.2861 24.4189 17.2861 24.8843C17.2861 25.3496 16.9077 25.728 16.4424 25.728ZM21.5648 24.4624H18.07C17.9835 24.1291 17.7987 23.8384 17.5469 23.6187H22.0879C21.8361 23.8389 21.6513 24.1295 21.5648 24.4624ZM23.1924 25.728C22.7271 25.728 22.3486 25.3496 22.3486 24.8843C22.3486 24.4189 22.7271 24.0405 23.1924 24.0405C23.6577 24.0405 24.0361 24.4189 24.0361 24.8843C24.0361 25.3496 23.6577 25.728 23.1924 25.728ZM25.7236 24.0405C25.7236 24.2734 25.5342 24.4624 25.3018 24.4624H24.82C24.7335 24.1291 24.5487 23.8384 24.2969 23.6187H25.7236V24.0405ZM25.7236 22.7749H21.5049V18.5562H24.669L25.7236 19.9623V22.7749Z" fill="#7F8B25"/>
<path d="M8.42676 5.47803H13.9111V6.32178H8.42676V5.47803Z" fill="#7F8B25"/>
<path d="M13.0674 7.16553H13.9111V8.00928H13.0674V7.16553Z" fill="#7F8B25"/>
<path d="M8.42676 7.16553H12.2236V8.00928H8.42676V7.16553Z" fill="#7F8B25"/>
<path d="M8.42676 8.85303H13.9111V9.69678H8.42676V8.85303Z" fill="#7F8B25"/>
<path d="M7.49856 10.7937L6.82356 10.2878L4.58425 13.2735L4.08432 12.7735L3.48779 13.3701L4.67537 14.5581L7.49856 10.7937Z" fill="#7F8B25"/>
<path d="M8.42676 10.5405H13.9111V11.3843H8.42676V10.5405Z" fill="#7F8B25"/>
<path d="M13.0674 12.228H13.9111V13.0718H13.0674V12.228Z" fill="#7F8B25"/>
<path d="M8.42676 12.228H12.2236V13.0718H8.42676V12.228Z" fill="#7F8B25"/>
<path d="M8.42676 13.9155H13.9111V14.7593H8.42676V13.9155Z" fill="#7F8B25"/>
<path d="M3.78613 20.6655H8.84863V16.4468H3.78613V20.6655ZM4.62988 17.2905H8.00488V19.8218H4.62988V17.2905Z" fill="#7F8B25"/>
<path d="M9.69238 16.4468H12.2236V17.2905H9.69238V16.4468Z" fill="#7F8B25"/>
<path d="M9.69238 18.1343H12.2236V18.978H9.69238V18.1343Z" fill="#7F8B25"/>
<path d="M9.69238 19.8218H12.2236V20.6655H9.69238V19.8218Z" fill="#7F8B25"/>
</svg>
