<svg width="27" height="27" viewBox="0 0 27 27" fill="none" xmlns="http://www.w3.org/2000/svg">
<path d="M16.8045 0C11.1831 0 6.60986 4.56078 6.60986 10.1668C6.60986 15.7728 11.1831 20.3336 16.8045 20.3336C22.4259 20.3336 26.9992 15.7728 26.9992 10.1668C26.9991 4.56078 22.4258 0 16.8045 0ZM16.8045 18.7504C12.0561 18.7504 8.19306 14.8998 8.19306 10.1668C8.19306 5.43375 12.0561 1.5832 16.8045 1.5832C21.5529 1.5832 25.416 5.4338 25.416 10.1668C25.416 14.8998 21.5528 18.7504 16.8045 18.7504Z" fill="#7F8B25"/>
<path d="M17.5959 5.04346H16.0127V10.9584H21.9405V9.3752H17.5959V5.04346Z" fill="#7F8B25"/>
<path d="M0.759277 19.1306L4.9929 14.9089L6.11064 16.0299L1.87702 20.2515L0.759277 19.1306Z" fill="#7F8B25"/>
<path d="M0 13.9004L3.89743 10.014L5.01517 11.1349L1.11774 15.0213L0 13.9004Z" fill="#7F8B25"/>
<path d="M12.0098 25.876L15.9072 21.9895L17.025 23.1104L13.1275 26.9969L12.0098 25.876Z" fill="#7F8B25"/>
<path d="M1.89209 23.9883L6.83977 19.0546L7.95751 20.1755L3.00983 25.1092L1.89209 23.9883Z" fill="#7F8B25"/>
<path d="M6.76416 25.1184L10.9978 20.8967L12.1155 22.0176L7.8819 26.2393L6.76416 25.1184Z" fill="#7F8B25"/>
</svg>
