<svg width="23" height="23" viewBox="0 0 23 23" fill="none" xmlns="http://www.w3.org/2000/svg">
<path d="M22.5838 0H0.416156C0.186291 0 0 0.186336 0 0.416156V6.66816C0 6.89798 0.186336 7.08431 0.416156 7.08431C0.645976 7.08431 0.832312 6.89798 0.832312 6.66816V4.51797L3.08928 6.77494L0.832312 9.0319V8.02767C0.832312 7.79785 0.645976 7.61152 0.416156 7.61152C0.186336 7.61152 0 7.79785 0 8.02767V22.5839C0 22.8137 0.186336 23 0.416156 23H22.5838C22.8136 23 22.9999 22.8137 22.9999 22.5839V0.416156C23 0.186336 22.8137 0 22.5838 0ZM21.4996 0.832312L19.3221 3.00977L17.1444 0.832312H21.4996ZM15.226 0.832312L13.0486 3.00977L10.8706 0.832312H15.226ZM13.703 4.84155C13.8655 5.00407 14.129 5.00407 14.2915 4.84155C14.454 4.67902 14.454 4.41555 14.2915 4.25302L13.637 3.59851L16.1851 1.05041L21.9099 6.77494L19.3616 9.32322L15.2347 5.19629C15.0722 5.03377 14.8087 5.03377 14.6462 5.19629C14.4837 5.35882 14.4837 5.62229 14.6462 5.78481L15.6364 6.77498L13.0882 9.32327L7.3635 3.59851L9.9116 1.05041L13.703 4.84155ZM12.4997 9.91174L6.77493 15.6365L4.22674 13.0883L9.95145 7.36355L12.4997 9.91174ZM8.95257 0.832312L6.77511 3.00977L4.5973 0.832312H8.95257ZM0.832312 0.832312H2.67905L0.832312 2.67905V0.832312ZM1.09016 3.59829L3.63809 1.05036L9.36288 6.77494L6.8146 9.32318L1.09016 3.59829ZM0.832312 10.2086C0.833256 10.2077 0.834244 10.2069 0.835142 10.206L3.6778 7.36341L6.2259 9.91174L0.832312 15.3056V10.2086ZM0.832312 17.1445L3.08941 19.4016L0.832312 21.6582V17.1445ZM1.49999 22.1677L3.67802 19.9901L5.85556 22.1677H1.49999ZM1.09016 16.2252L3.63827 13.6768L9.36288 19.4014L6.8146 21.9497L1.09016 16.2252ZM7.77377 22.1677L9.95145 19.99L12.1291 22.1677H7.77377ZM7.36346 16.225L9.91174 13.6768L15.6364 19.4015L13.0883 21.9498L7.36346 16.225ZM14.0473 22.1677L16.225 19.99L18.4026 22.1677H14.0473ZM13.637 16.225L14.4824 15.3796C14.645 15.2171 14.645 14.9536 14.4824 14.7911C14.3199 14.6285 14.0564 14.6285 13.8939 14.7911L13.0485 15.6365L10.5002 13.0882L16.2249 7.3635L18.7732 9.91179L14.7262 13.9588C14.5637 14.1213 14.5637 14.3847 14.7262 14.5473C14.8888 14.7098 15.1523 14.7098 15.3148 14.5473L16.1853 13.6768L21.9099 19.4016L19.3617 21.9497L13.637 16.225ZM22.1676 22.1677H20.3208L22.1676 20.3209V22.1677ZM22.1676 18.482L19.9107 16.2252L22.1676 13.9677V18.482ZM22.1643 12.7939L19.3222 15.6367L16.7738 13.0883L22.1676 7.69444V12.7909H22.1676C22.1666 12.7919 22.1654 12.7929 22.1643 12.7939ZM22.1677 5.85525L19.9107 3.59829L22.1677 1.34132V5.85525Z" fill="#7F8B25"/>
</svg>
