<svg width="24" height="24" viewBox="0 0 24 24" fill="none" xmlns="http://www.w3.org/2000/svg">
<path d="M22.2077 5.00016H16.6605C17.0283 4.51191 17.2493 3.907 17.2493 3.25016C17.2493 1.64191 15.9409 0.333496 14.3327 0.333496C13.3781 0.333496 12.5319 0.796663 11.9993 1.50775C11.4671 0.796663 10.6206 0.333496 9.66601 0.333496C8.05777 0.333496 6.74935 1.64191 6.74935 3.25016C6.74935 3.907 6.97043 4.51191 7.33822 5.00016H1.79102C0.825891 5.00016 0.0410156 5.78504 0.0410156 6.75016V9.0835C0.0410156 9.84387 0.528974 10.4905 1.20768 10.7314V21.9168C1.20768 22.882 1.99256 23.6668 2.95768 23.6668H21.041C22.0061 23.6668 22.791 22.882 22.791 21.9168V10.7314C23.4697 10.4905 23.9577 9.84387 23.9577 9.0835V6.75016C23.9577 5.78504 23.1728 5.00016 22.2077 5.00016ZM10.2493 9.66683V6.16683H13.7493V9.66683H10.2493ZM13.7493 10.8335V22.5002H10.2493V10.8335H13.7493ZM14.3327 1.50016C15.2978 1.50016 16.0827 2.28504 16.0827 3.25016C16.0827 4.21529 15.2978 5.00016 14.3327 5.00016H12.5827V3.25016C12.5827 2.28504 13.3676 1.50016 14.3327 1.50016ZM7.91601 3.25016C7.91601 2.28504 8.70089 1.50016 9.66601 1.50016C10.6311 1.50016 11.416 2.28504 11.416 3.25016V5.00016H9.66601C8.70089 5.00016 7.91601 4.21529 7.91601 3.25016ZM1.20768 6.75016C1.20768 6.42845 1.46931 6.16683 1.79102 6.16683H9.08268V9.66683H1.79102C1.46931 9.66683 1.20768 9.4052 1.20768 9.0835V6.75016ZM2.37435 21.9168V10.8335H9.08268V22.5002H2.95768C2.63597 22.5002 2.37435 22.2385 2.37435 21.9168ZM21.041 22.5002H14.916V10.8335H21.6243V21.9168C21.6243 22.2385 21.3627 22.5002 21.041 22.5002ZM22.791 9.0835C22.791 9.4052 22.5294 9.66683 22.2077 9.66683H14.916V6.16683H22.2077C22.5294 6.16683 22.791 6.42845 22.791 6.75016V9.0835Z" fill="#7F8B25"/>
</svg>
