<svg width="29" height="25" viewBox="0 0 29 25" fill="none" xmlns="http://www.w3.org/2000/svg">
<path d="M13.3923 16.9282H8.96373C8.81691 16.9282 8.67611 16.9865 8.57229 17.0904C8.46848 17.1942 8.41016 17.335 8.41016 17.4818C8.41016 17.6286 8.46848 17.7694 8.57229 17.8732C8.67611 17.977 8.81691 18.0353 8.96373 18.0353H13.3923C13.5391 18.0353 13.6799 17.977 13.7837 17.8732C13.8875 17.7694 13.9459 17.6286 13.9459 17.4818C13.9459 17.335 13.8875 17.1942 13.7837 17.0904C13.6799 16.9865 13.5391 16.9282 13.3923 16.9282Z" fill="#7F8B25"/>
<path d="M21.6959 11.3927V1.88568C21.6953 1.47096 21.5303 1.07339 21.237 0.780136C20.9438 0.486883 20.5462 0.321875 20.1315 0.321289H2.22455C1.80983 0.321875 1.41226 0.486883 1.119 0.780136C0.82575 1.07339 0.660742 1.47096 0.660156 1.88568V19.7926C0.660742 20.2073 0.82575 20.6049 1.119 20.8982C1.41226 21.1914 1.80983 21.3564 2.22455 21.357H15.9531C16.5364 22.3672 17.3754 23.206 18.3857 23.7891C19.396 24.3722 20.542 24.6789 21.7085 24.6784C22.875 24.678 24.0208 24.3704 25.0307 23.7866C26.0406 23.2027 26.8789 22.3633 27.4614 21.3526C28.0439 20.342 28.35 19.1957 28.3489 18.0292C28.3477 16.8628 28.0395 15.7171 27.4551 14.7076C26.8707 13.698 26.0307 12.8602 25.0198 12.2783C24.0088 11.6964 22.8624 11.3909 21.6959 11.3927ZM15.053 1.42843H20.1315C20.2527 1.42873 20.3688 1.47699 20.4545 1.56268C20.5402 1.64837 20.5884 1.7645 20.5887 1.88568V5.30344H15.053V1.42843ZM8.41016 1.42843H13.9459V8.28276L11.426 7.02283C11.349 6.98426 11.2641 6.96417 11.178 6.96417C11.0919 6.96417 11.007 6.98426 10.93 7.02283L8.41016 8.28276V1.42843ZM1.7673 1.88568C1.76759 1.7645 1.81586 1.64837 1.90155 1.56268C1.98724 1.47699 2.10337 1.42873 2.22455 1.42843H7.30302V5.30344H1.7673V1.88568ZM15.4405 20.2499H2.22455C2.10337 20.2496 1.98724 20.2013 1.90155 20.1156C1.81586 20.0299 1.76759 19.9138 1.7673 19.7926V6.41058H7.30302V9.17844C7.30302 9.27284 7.32716 9.36567 7.37315 9.44811C7.41914 9.53055 7.48545 9.59986 7.56577 9.64945C7.6461 9.69904 7.73777 9.72727 7.83207 9.73145C7.92638 9.73563 8.02019 9.71562 8.10459 9.67333L11.178 8.13662L14.2514 9.67333C14.3285 9.71161 14.4134 9.73168 14.4994 9.73201C14.6023 9.73193 14.7032 9.70318 14.7906 9.64897C14.8708 9.59938 14.937 9.53013 14.9829 9.44778C15.0288 9.36543 15.053 9.27272 15.053 9.17844V6.41058H20.5887V11.4924C19.6326 11.6505 18.723 12.0167 17.9241 12.5652C17.1251 13.1137 16.4565 13.831 15.9654 14.6664C15.4743 15.5019 15.1727 16.435 15.082 17.3998C14.9913 18.3646 15.1137 19.3376 15.4405 20.2499ZM21.6959 23.5713C20.601 23.5713 19.5307 23.2466 18.6204 22.6384C17.7101 22.0301 17.0005 21.1655 16.5815 20.154C16.1626 19.1425 16.0529 18.0294 16.2665 16.9556C16.4801 15.8818 17.0074 14.8954 17.7815 14.1212C18.5557 13.3471 19.5421 12.8198 20.6159 12.6062C21.6897 12.3926 22.8028 12.5023 23.8143 12.9213C24.8258 13.3402 25.6904 14.0498 26.2987 14.9601C26.9069 15.8705 27.2316 16.9407 27.2316 18.0356C27.2298 19.5032 26.646 20.9102 25.6083 21.948C24.5705 22.9858 23.1635 23.5695 21.6959 23.5713Z" fill="#7F8B25"/>
<path d="M24.0711 15.7981L20.7729 19.0985L19.3192 17.6437C19.2678 17.5922 19.2067 17.5514 19.1394 17.5235C19.0722 17.4957 19.0001 17.4814 18.9273 17.4814C18.8545 17.4814 18.7825 17.4957 18.7152 17.5235C18.648 17.5514 18.5869 17.5922 18.5354 17.6437C18.4839 17.6952 18.4431 17.7563 18.4152 17.8235C18.3874 17.8908 18.373 17.9628 18.373 18.0356C18.373 18.1084 18.3874 18.1805 18.4152 18.2477C18.4431 18.315 18.4839 18.3761 18.5354 18.4276L20.381 20.2732C20.4324 20.3247 20.4935 20.3656 20.5608 20.3935C20.628 20.4214 20.7001 20.4358 20.7729 20.4358C20.8457 20.4358 20.9178 20.4214 20.9851 20.3935C21.0523 20.3656 21.1134 20.3247 21.1648 20.2732L24.8549 16.5819C24.9064 16.5305 24.9472 16.4694 24.9751 16.4021C25.0029 16.3349 25.0173 16.2628 25.0173 16.19C25.0173 16.1172 25.0029 16.0452 24.9751 15.9779C24.9472 15.9107 24.9064 15.8496 24.8549 15.7981C24.8035 15.7466 24.7424 15.7058 24.6751 15.6779C24.6079 15.6501 24.5358 15.6357 24.463 15.6357C24.3902 15.6357 24.3182 15.6501 24.2509 15.6779C24.1837 15.7058 24.1226 15.7466 24.0711 15.7981Z" fill="#7F8B25"/>
</svg>
