<svg width="30" height="24" viewBox="0 0 30 24" fill="none" xmlns="http://www.w3.org/2000/svg">
<path d="M27.5933 9.39436L26.7455 7.69871C26.4457 7.09918 25.8433 6.72682 25.1732 6.72682H20.2726V2.62543C20.2726 1.65623 19.4841 0.867676 18.5149 0.867676H1.75775C0.788496 0.867676 0 1.65617 0 2.62543V17.8592C0 18.8284 0.788496 19.6169 1.75775 19.6169H3.51551C3.51551 20.5166 3.85564 21.3381 4.41352 21.9606H0.585938C0.262324 21.9606 0 22.2229 0 22.5465C0 22.87 0.262324 23.1324 0.585938 23.1324H29.4129C29.7365 23.1324 29.9988 22.87 29.9988 22.5465C29.9988 22.2229 29.7365 21.9606 29.4129 21.9606H27.9289C28.4869 21.3381 28.827 20.5166 28.827 19.6169C28.827 19.5835 28.8254 19.5503 28.8244 19.517C29.5077 19.2758 29.9988 18.6239 29.9988 17.8592V14.6202C29.9988 13.9365 30.1342 14.5748 27.5933 9.39436ZM26.7071 10.2423L28.4648 13.7578H22.6163V10.2423H26.7071ZM1.17182 14.9296H2.34363V16.1014H1.17182V14.9296ZM7.03096 21.9606C5.73867 21.9606 4.68732 20.9091 4.68732 19.6169C4.68732 19.4573 4.70314 19.3002 4.73479 19.1475C4.95516 18.0615 5.92084 17.2732 7.03096 17.2732C8.14107 17.2732 9.10682 18.0614 9.32713 19.1475C9.3273 19.1483 9.32748 19.1491 9.32766 19.1499C9.35883 19.3002 9.37459 19.4573 9.37459 19.6169C9.37459 20.9092 8.32324 21.9606 7.03096 21.9606ZM7.03096 16.1014C5.52973 16.1014 4.20486 17.0631 3.71643 18.445H1.75775C1.43467 18.445 1.17182 18.1822 1.17182 17.8591V17.2732H2.92957C3.25318 17.2732 3.51551 17.0108 3.51551 16.6872V14.3436C3.51551 14.02 3.25318 13.7577 2.92957 13.7577H1.17182V2.62543C1.17182 2.30234 1.43467 2.03949 1.75775 2.03949H18.5149C18.8379 2.03949 19.1008 2.30234 19.1008 2.62543C19.1008 3.06131 19.1008 17.04 19.1008 18.4451H10.3452C9.85588 17.0624 8.53154 16.1014 7.03096 16.1014ZM9.6484 21.9606C10.2063 21.3381 10.5464 20.5166 10.5464 19.6169C10.9963 19.6169 21.6044 19.6169 21.7959 19.6169C21.7959 20.5166 22.1361 21.3381 22.6939 21.9606H9.6484ZM25.3114 21.9606C24.0192 21.9606 22.9678 20.9091 22.9678 19.6169C22.9678 19.4573 22.9836 19.3002 23.0153 19.1475C23.2356 18.0615 24.2013 17.2732 25.3114 17.2732C26.4216 17.2732 27.3873 18.0614 27.6076 19.1475C27.6078 19.1483 27.608 19.1491 27.6081 19.1499C27.6393 19.3002 27.6551 19.4573 27.6551 19.6169C27.6551 20.9092 26.6037 21.9606 25.3114 21.9606ZM28.827 17.8592C28.827 18.054 28.7309 18.2265 28.5841 18.3331C28.0644 17.0107 26.7712 16.1015 25.3114 16.1015C23.8102 16.1015 22.4854 17.0632 21.9969 18.4451H20.2726V7.89863H25.1732C25.3965 7.89863 25.5973 8.02285 25.6973 8.22272L26.1212 9.07045H22.0304C21.7068 9.07045 21.4444 9.33283 21.4444 9.65639V14.3437C21.4444 14.6673 21.7068 14.9297 22.0304 14.9297H28.827V17.8592Z" fill="#7F8B25"/>
</svg>
