<svg width="30" height="30" viewBox="0 0 30 30" fill="none" xmlns="http://www.w3.org/2000/svg">
<path d="M11.5543 7.14887C11.8976 7.49223 12.4541 7.49206 12.7973 7.14887L15 4.9461L17.2028 7.14887C17.5461 7.49217 18.1026 7.49206 18.4458 7.14887C18.789 6.80563 18.789 6.24917 18.4458 5.90592L16.243 3.70315L18.4458 1.50038C18.789 1.1572 18.789 0.600673 18.4458 0.257432C18.1026 -0.0858105 17.5461 -0.0858105 17.2028 0.257432L15 2.4602L12.7973 0.25749C12.4541 -0.0857519 11.8975 -0.0857519 11.5543 0.25749C11.2111 0.600732 11.2111 1.1572 11.5543 1.50044L13.7571 3.70315L11.5543 5.90592C11.2111 6.24917 11.2111 6.80563 11.5543 7.14887Z" fill="#7F8B25"/>
<path d="M27.0438 19.0164C27.7069 18.3469 28.1172 17.4266 28.1172 16.4121C28.1172 14.3702 26.456 12.709 24.4141 12.709C24.0623 12.709 23.7223 12.7594 23.3996 12.8514C23.2628 10.9332 21.6595 9.41406 19.7071 9.41406C17.7546 9.41406 16.1514 10.9332 16.0146 12.8514C15.6919 12.7594 15.3519 12.709 15.0001 12.709C14.6483 12.709 14.3082 12.7594 13.9856 12.8514C13.8488 10.9332 12.2455 9.41406 10.293 9.41406C8.34059 9.41406 6.73734 10.9332 6.60047 12.8514C6.27779 12.7594 5.93777 12.709 5.58598 12.709C3.54404 12.709 1.88291 14.3702 1.88291 16.4121C1.88291 17.4266 2.29324 18.3469 2.95635 19.0164C1.19842 19.9584 0 21.8134 0 23.9433V29.1211C0 29.6065 0.393516 30 0.878906 30H29.1211C29.6065 30 30 29.6065 30 29.1211V23.9433C30 21.8134 28.8016 19.9584 27.0438 19.0164ZM24.4141 14.4668C25.4867 14.4668 26.3593 15.3395 26.3593 16.4121C26.3593 17.4847 25.4866 18.3574 24.4141 18.3574C23.3414 18.3574 22.4688 17.4847 22.4688 16.4121C22.4688 15.3394 23.3414 14.4668 24.4141 14.4668ZM19.707 11.1719C20.7797 11.1719 21.6523 12.0446 21.6523 13.1172C21.6523 14.1898 20.7796 15.0625 19.707 15.0625C18.6344 15.0625 17.7618 14.1898 17.7618 13.1172C17.7618 12.0446 18.6344 11.1719 19.707 11.1719ZM15 14.4668C16.0727 14.4668 16.9453 15.3395 16.9453 16.4121C16.9453 17.4847 16.0726 18.3574 15 18.3574C13.9274 18.3574 13.0547 17.4847 13.0547 16.4121C13.0547 15.3394 13.9273 14.4668 15 14.4668ZM10.293 11.1719C11.3656 11.1719 12.2382 12.0446 12.2382 13.1172C12.2382 14.1898 11.3655 15.0625 10.293 15.0625C9.22031 15.0625 8.34768 14.1898 8.34768 13.1172C8.34768 12.0446 9.22031 11.1719 10.293 11.1719ZM5.58592 14.4668C6.65859 14.4668 7.53123 15.3395 7.53123 16.4121C7.53123 17.4847 6.65854 18.3574 5.58592 18.3574C4.5133 18.3574 3.64066 17.4847 3.64066 16.4121C3.64066 15.3394 4.5133 14.4668 5.58592 14.4668ZM9.41408 28.2422H1.75781V23.9433C1.75781 21.8325 3.47514 20.1152 5.58592 20.1152C7.69676 20.1152 9.41408 21.8325 9.41408 23.9433V28.2422ZM10.293 20.9385C9.77748 20.1338 9.06123 19.4695 8.21561 19.0164C8.82023 18.4059 9.21363 17.5867 9.27844 16.6779C9.60111 16.7699 9.94113 16.8203 10.2929 16.8203C10.6447 16.8203 10.9847 16.77 11.3074 16.6779C11.3722 17.5867 11.7656 18.4059 12.3703 19.0164C11.5247 19.4695 10.8085 20.1337 10.293 20.9385ZM18.8281 28.2422H11.1719V23.9433C11.1719 21.8325 12.8892 20.1152 15 20.1152C17.1108 20.1152 18.8281 21.8325 18.8281 23.9433V28.2422ZM19.707 20.9385C19.1915 20.1338 18.4753 19.4695 17.6297 19.0164C18.2343 18.406 18.6277 17.5867 18.6926 16.6779C19.0152 16.77 19.3553 16.8204 19.707 16.8204C20.0588 16.8204 20.3989 16.77 20.7215 16.6779C20.7863 17.5867 21.1798 18.406 21.7843 19.0164C20.9388 19.4695 20.2225 20.1337 19.707 20.9385ZM28.2422 28.2422H20.5859V23.9433C20.5859 21.8325 22.3032 20.1152 24.4141 20.1152C26.5249 20.1152 28.2422 21.8325 28.2422 23.9433V28.2422Z" fill="#7F8B25"/>
</svg>
