<svg width="33" height="30" viewBox="0 0 33 30" fill="none" xmlns="http://www.w3.org/2000/svg">
<path d="M32.9999 15C32.9999 14.7405 32.8664 14.499 32.6459 14.3625L30.0419 12.75L32.6459 11.139C32.8664 11.001 32.9999 10.7595 32.9999 10.5C32.9999 10.2405 32.8664 9.99904 32.6444 9.86249L16.8945 0.112482C16.6529 -0.0374941 16.3469 -0.0374941 16.1055 0.112482L0.355499 9.86249C0.133523 9.99897 0 10.2405 0 10.5C0 10.7595 0.133523 11.001 0.355499 11.1375L2.95797 12.75L0.354023 14.364C0.133523 14.499 0 14.7405 0 15C0 15.2595 0.133523 15.501 0.354023 15.6375L2.95804 17.25L0.354023 18.864C0.133523 18.999 0 19.2405 0 19.5C0 19.7595 0.135 20.001 0.355499 20.1375L16.1055 29.8875C16.2255 29.9626 16.3635 30 16.5 30C16.6365 30 16.7745 29.9626 16.8945 29.8875L32.6445 20.1375C32.865 20.001 33 19.7595 33 19.5C33 19.2405 32.8665 18.999 32.646 18.8625L30.042 17.2485L32.646 15.636C32.8665 15.501 32.9999 15.2595 32.9999 15ZM2.17497 10.5L16.5 1.632L30.825 10.5L16.5 19.368L2.17497 10.5ZM30.825 19.5L16.5 28.3679L2.17497 19.5L4.38299 18.132L16.1055 25.389C16.2255 25.4625 16.3635 25.5 16.5 25.5C16.6365 25.5 16.7745 25.4626 16.8945 25.3875L28.617 18.1305L30.825 19.5ZM16.5 23.8679L2.1735 15L4.38152 13.6305L16.104 20.8875C16.2255 20.9625 16.3635 21 16.5 21C16.6365 21 16.7745 20.9625 16.8945 20.8875L28.617 13.6305L30.8265 14.9999L16.5 23.8679Z" fill="#7F8B25"/>
</svg>
